SplineFontDB: 3.0
FontName: Cantarell-Bold
FullName: Cantarell Bold
FamilyName: Cantarell
Weight: Bold
Copyright: Copyright (c) 2009-2011, Understanding Limited (dave@understandinglimited.com),\nCopyright (c) 2010-2011, Jakub Steiner (jimmac@gmail.com).\n\nThis Font Software is licensed under the SIL Open Font License, Version 1.1.\nThis license is copied below, and is also available with a FAQ at:\nhttp://scripts.sil.org/OFL
UComments: "Cantarell was originally designed by Dave Crossland and is developed by the GNOME community+AA0ACgAA-dave@understandinglimited.com+AA0ACgAA-http://live.gnome.org/CantarellFonts" 
Version: 0.05
ItalicAngle: 0
UnderlinePosition: -113
UnderlineWidth: 56
Ascent: 739
Descent: 261
LayerCount: 2
Layer: 0 1 "Back"  1
Layer: 1 1 "Fore"  0
NeedsXUIDChange: 1
XUID: [1021 472 1916768597 5236576]
FSType: 0
OS2Version: 0
OS2_WeightWidthSlopeOnly: 0
OS2_UseTypoMetrics: 1
CreationTime: 1236980653
ModificationTime: 1300753058
PfmFamily: 33
TTFWeight: 700
TTFWidth: 5
LineGap: 0
VLineGap: 0
OS2TypoAscent: 1058
OS2TypoAOffset: 0
OS2TypoDescent: -286
OS2TypoDOffset: 0
OS2TypoLinegap: 0
OS2WinAscent: 1058
OS2WinAOffset: 0
OS2WinDescent: 286
OS2WinDOffset: 0
HheadAscent: 1058
HheadAOffset: 0
HheadDescent: -286
HheadDOffset: 0
OS2FamilyClass: 2050
OS2Vendor: 'ABAT'
MarkAttachClasses: 1
DEI: 91125
LangName: 1033 "" "" "" "" "" "" "" "" "" "Dave Crossland" "" "http://live.gnome.org/CantarellFonts+AAoA" "http://abattis.org" "This Font Software is licensed under the SIL Open Font License, Version 1.1.+AAoA-This license is copied below, and is also available with a FAQ at:+AAoA-http://scripts.sil.org/OFL" "http://scripts.sil.org/OFL" "" "" "" "" "" "Cantarell" 
Encoding: UnicodeFull
Compacted: 1
UnicodeInterp: none
NameList: Adobe Glyph List
DisplaySize: -96
AntiAlias: 1
FitToEm: 1
WinInfo: 330 10 6
BeginPrivate: 0
EndPrivate
GridOrder2: 1
Grid
-1000 1056.64 m 1,0,-1
 2000 1056.64 l 1
-1000 737.793 m 1,2,-1
 2000 737.793 l 1
-1000 693.75 m 1,4,-1

StartChar: a
Encoding: 97 97 0
Width: 563
VWidth: 1023
Flags: HMW
HStem: 0 90 200 65 400 90
LayerCount: 2
Back
SplineSet
247.761 491.465 m 4,0,1
 263.910222241 491.465 263.910222241 491.465 279.469526533 490.24523509 c 0
 295.028830826 489.02547018 295.028830826 489.02547018 322.300041467 482.14216491 c 0
 349.571252108 475.258859641 349.571252108 475.258859641 370.059958533 463.37323509 c 0
 390.548664958 451.487610539 390.548664958 451.487610539 408.570473467 427.17336491 c 0
 426.592281975 402.859119281 426.592281975 402.859119281 431.639 369.76 c 0,2,3
 434.104 353.590198413 434.104 353.590198413 434.104 327.237 c 0,4,5
 434.099380851 323.765720826 434.099380851 323.765720826 434.084 320.312 c 2,6,-1
 432.619 0 l 1,7,-1
 377.443 0 l 1,8,-1
 358.725 43.9316 l 1,9,10
 299.906838571 -9.75 299.906838571 -9.75 222.992 -9.75 c 0,11,12
 154.668838067 -9.75 154.668838067 -9.75 107.323669033 31.5272385106 c 0
 59.9785 72.8044770212 59.9785 72.8044770212 59.9785 127.73 c 0,13,14
 59.9785 168.92053677 59.9785 168.92053677 90.1734282259 206.747045258 c 0
 120.368356452 244.573553746 120.368356452 244.573553746 188.459 260.229 c 0,15,16
 214.149911296 266.135400343 214.149911296 266.135400343 251.448758413 269.408899482 c 0
 288.74760553 272.68239862 288.74760553 272.68239862 353.518 273.73 c 1,17,-1
 353.518 299.316 l 2,18,19
 353.518 301.720875 353.518 301.720875 353.543 306.551125 c 0
 353.568 311.381375 353.568 311.381375 353.568 313.802 c 0,20,21
 353.568 322.087077852 353.568 322.087077852 353.354255821 326.436736867 c 0
 353.140511641 330.786395882 353.140511641 330.786395882 352.028630898 342.175018993 c 0
 350.916750155 353.563642104 350.916750155 353.563642104 347.737498008 360.99195171 c 0
 344.558245862 368.420261317 344.558245862 368.420261317 339.482787148 379.304409618 c 0
 334.407328434 390.188557919 334.407328434 390.188557919 325.353833946 397.324713429 c 0
 316.300339457 404.46086894 316.300339457 404.46086894 304.352568398 411.469737743 c 0
 292.404797339 418.478606546 292.404797339 418.478606546 274.568326133 421.951803273 c 0
 256.731854928 425.425 256.731854928 425.425 234.946 425.425 c 0,22,23
 183.609214276 425.425 183.609214276 425.425 105.959 403.32 c 1,24,-1
 90.8223 461.914 l 1,25,26
 169.017962645 491.313700787 169.017962645 491.313700787 247.761 491.465 c 4,0,1
353.518 213.613 m 5,27,28
 346.266522467 213.504140083 346.266522467 213.504140083 332.324487432 213.331115293 c 0
 305.077950937 212.992977693 305.077950937 212.992977693 291.94700023 212.653881126 c 0
 278.816049524 212.314784559 278.816049524 212.314784559 257.975146479 211.150459783 c 0
 237.134243433 209.986135007 237.134243433 209.986135007 225.80577166 207.6901057 c 0
 214.477299886 205.394076393 214.477299886 205.394076393 200.43156646 201.513064693 c 0
 186.385833034 197.632052993 186.385833034 197.632052993 176.609653349 191.463858441 c 0
 166.833473665 185.295663888 166.833473665 185.295663888 158.693 176.758 c 0,29,30
 139.864 157.008587989 139.864 157.008587989 139.864 131.942 c 0,31,32
 139.864 100.910013907 139.864 100.910013907 170.838773912 77.0458069535 c 0
 201.813547825 53.1816 201.813547825 53.1816 244.812 53.1816 c 0,33,34
 307.936480407 53.1816 307.936480407 53.1816 353.518 102.412 c 1,35,-1
 353.518 213.613 l 5,27,28
EndSplineSet
Fore
SplineSet
87 460 m 1,0,1
 181 492 181 492 260.5 492 c 128,-1,2
 340 492 340 492 385.5 478 c 128,-1,3
 431 464 431 464 454 438 c 0,4,5
 497 391 497 391 497 316 c 2,6,-1
 497 0 l 1,7,-1
 407 0 l 1,8,-1
 394 32 l 1,9,10
 328 -10 328 -10 246 -10 c 0,11,12
 132 -10 132 -10 74 55 c 0,13,14
 43 91 43 91 43 131 c 0,15,16
 43 168 43 168 53 193 c 0,17,18
 63 219 63 219 86 235.5 c 128,-1,19
 109 252 109 252 135 262.5 c 128,-1,20
 161 273 161 273 203 278 c 0,21,22
 271 286 271 286 377 286 c 1,23,-1
 377 293 l 2,24,25
 377 359 377 359 323 377 c 0,26,27
 298 385 298 385 249 385 c 128,-1,28
 200 385 200 385 114 364 c 1,29,-1
 95 358 l 1,30,-1
 70 455 l 1,31,-1
 87 460 l 1,0,1
377 125 m 1,32,-1
 377 195 l 1,33,-1
 365 195 l 2,34,35
 255 195 255 195 212.5 186 c 128,-1,36
 170 177 170 177 170 142 c 0,37,38
 170 119 170 119 197.5 106 c 128,-1,39
 225 93 225 93 278 93 c 128,-1,40
 331 93 331 93 377 125 c 1,32,-1
EndSplineSet
EndChar

StartChar: d
Encoding: 100 100 1
Width: 592
VWidth: 1023
Flags: HW
HStem: -10 106<227.604 400.609> 0 21G<425.316 522.407> 389 103<226.676 401.158> 673 20G<402.407 522.407>
VStem: 45 119<161.081 327.685> 402 120<105.799 380.751 476 693>
LayerCount: 2
Fore
SplineSet
45 233 m 0,0,1
 45 295 45 295 64.5 344.5 c 128,-1,2
 84 394 84 394 118 426 c 0,3,4
 189 492 189 492 300 492 c 0,5,6
 355 492 355 492 402 476 c 1,7,-1
 402 693 l 1,8,-1
 522 693 l 1,9,-1
 522 0 l 1,10,-1
 434 0 l 1,11,-1
 424 22 l 1,12,13
 358 -10 358 -10 285 -10 c 0,14,15
 168 -10 168 -10 102 64 c 0,16,17
 45 128 45 128 45 233 c 0,0,1
264 102.5 m 128,-1,19
 288 96 288 96 323 96 c 128,-1,20
 358 96 358 96 402 113 c 1,21,-1
 402 375 l 1,22,23
 355 389 355 389 328.5 389 c 128,-1,24
 302 389 302 389 292 388 c 128,-1,25
 282 387 282 387 270 384.5 c 128,-1,26
 258 382 258 382 247.5 378.5 c 128,-1,27
 237 375 237 375 226.5 369 c 128,-1,28
 216 363 216 363 206.5 355.5 c 128,-1,29
 197 348 197 348 189 337 c 128,-1,30
 181 326 181 326 176 312 c 0,31,32
 164 284 164 284 164 242.5 c 128,-1,33
 164 201 164 201 178.5 170 c 128,-1,34
 193 139 193 139 216.5 124 c 128,-1,18
 240 109 240 109 264 102.5 c 128,-1,19
EndSplineSet
EndChar

StartChar: e
Encoding: 101 101 2
Width: 562
VWidth: 1023
Flags: HMW
HStem: 0 90 200 65 400 90
LayerCount: 2
Back
SplineSet
295.639 491.729 m 4,0,1
 311.666144758 491.729 311.666144758 491.729 327.143593483 489.808132366 c 0
 342.621042209 487.887264731 342.621042209 487.887264731 366.675318517 479.111675634 c 0
 390.729594824 470.336086537 390.729594824 470.336086537 409.454281483 455.481924366 c 0
 428.178968143 440.627762194 428.178968143 440.627762194 445.138806517 411.406267634 c 0
 462.09864489 382.184773074 462.09864489 382.184773074 468.949 342.727 c 0,2,3
 472.495355744 322.30217994 472.495355744 322.30217994 473.552177872 300.962589393 c 0
 474.609 279.622998847 474.609 279.622998847 474.609 250.977 c 2,4,-1
 474.609 203.613 l 1,5,-1
 143.066 203.613 l 1,6,7
 147.337666303 145.02093853 147.337666303 145.02093853 194.470389903 99.608119265 c 0
 241.603113504 54.1953 241.603113504 54.1953 324.332 54.1953 c 0,8,9
 375.735954545 54.1953 375.735954545 54.1953 434.082 71.7773 c 1,10,-1
 448.242 17.0898 l 1,11,12
 370.258783416 -9.74792030345 370.258783416 -9.74792030345 293.75 -9.76562 c 0,13,14
 115.800133717 -9.76562 115.800133717 -9.76562 74.3205649459 139.991217867 c 0
 63.5695054118 179.791139896 63.5695054118 179.791139896 63.4521 225.768 c 0,15,16
 63.4521 386.668621647 63.4521 386.668621647 170.942126725 455.952982668 c 0
 227.026185942 491.437478156 227.026185942 491.437478156 295.639 491.729 c 4,0,1
278.48 422.233 m 4,17,18
 235.604754021 422.233 235.604754021 422.233 204.604896261 398.442371879 c 0
 173.605038502 374.651743758 173.605038502 374.651743758 159.617770405 339.802628121 c 0
 145.630502308 304.953512484 145.630502308 304.953512484 145.02 264.16 c 1,19,-1
 396.973 264.16 l 1,20,21
 397.092577038 269.412668255 397.092577038 269.412668255 397.105 273.672 c 0,22,23
 397.105 319.410554614 397.105 319.410554614 385.775897942 350.932529936 c 0
 374.446795884 382.454505257 374.446795884 382.454505257 355.053367683 396.846532564 c 0
 335.659939483 411.238559871 335.659939483 411.238559871 317.566804192 416.735779936 c 0
 299.473668901 422.233 299.473668901 422.233 278.48 422.233 c 4,17,18
EndSplineSet
Fore
SplineSet
340 98 m 0,0,1
 399 98 399 98 483 115 c 1,2,-1
 483 12 l 1,3,-1
 467 8 l 2,4,5
 399 -9 399 -9 308 -9 c 0,6,7
 105 -9 105 -9 58 140 c 0,8,9
 45 180 45 180 45 237 c 0,10,11
 45 294 45 294 66.5 346 c 128,-1,12
 88 398 88 398 125 429 c 0,13,14
 199 492 199 492 301 492 c 0,15,16
 428 492 428 492 487 377 c 0,17,18
 519 316 519 316 519 246 c 2,19,-1
 519 184 l 1,20,-1
 174 184 l 1,21,22
 196 98 196 98 340 98 c 0,0,1
292 382 m 0,23,24
 240 382 240 382 207.5 350.5 c 128,-1,25
 175 319 175 319 175 273 c 1,26,-1
 399 273 l 1,27,28
 399 357 399 357 333 376 c 0,29,30
 315 382 315 382 292 382 c 0,23,24
EndSplineSet
EndChar

StartChar: h
Encoding: 104 104 3
Width: 584
VWidth: 1023
Flags: HW
HStem: 0 21G<66.291 186.291 397.791 516.791> 380 111<214.967 366.456> 673 20G<66.291 186.291>
VStem: 66 120<0 361.306 458 693> 398 119<0 348.095>
LayerCount: 2
Back
SplineSet
301.82 420.039 m 4,0,1
 245.106106458 420.039 245.106106458 420.039 172.852 382.266 c 1,2,-1
 172.852 0 l 1,3,-1
 92.7734 0 l 1,4,-1
 92.7734 737.793 l 1,5,-1
 172.852 737.793 l 1,6,-1
 172.852 445.816 l 1,7,8
 258.961112281 491.406 258.961112281 491.406 332.842 491.406 c 0,9,10
 351.936139848 491.406 351.936139848 491.406 370.323627816 488.008884371 c 0
 388.711115784 484.611768743 388.711115784 484.611768743 410.495140184 474.042035629 c 0
 432.279164584 463.472302514 432.279164584 463.472302514 448.842219816 446.632644371 c 0
 465.405275049 429.792986228 465.405275049 429.792986228 477.748612184 400.021235629 c 0
 490.091949319 370.249485029 490.091949319 370.249485029 492.7 331.335 c 0,11,12
 493.872 313.80650268 493.872 313.80650268 493.872 289.412 c 0,13,14
 493.872 287.486564103 493.872 287.486564103 493.652 257.324 c 2,15,-1
 491.699 0 l 1,16,-1
 411.621 0 l 1,17,-1
 411.133 290.527 l 2,18,19
 411.115017871 301.015812648 411.115017871 301.015812648 410.984430528 306.553139127 c 0
 410.853843186 312.090465605 410.853843186 312.090465605 409.555161308 324.79277341 c 0
 408.25647943 337.495081214 408.25647943 337.495081214 405.842471345 345.737308223 c 0
 403.428463259 353.979535232 403.428463259 353.979535232 398.281569472 365.73754892 c 0
 393.134675684 377.495562608 393.134675684 377.495562608 385.907206039 385.560940876 c 0
 378.679736393 393.626319145 378.679736393 393.626319145 367.15458988 401.558289445 c 0
 355.629443366 409.490259745 355.629443366 409.490259745 341.021 414.221 c 0,20,21
 323.049591742 420.039 323.049591742 420.039 301.82 420.039 c 4,0,1
EndSplineSet
Fore
SplineSet
301 380 m 0,0,1
 252 380 252 380 186 353 c 1,2,-1
 186 0 l 1,3,-1
 66 0 l 1,4,-1
 66 693 l 1,5,-1
 186 693 l 1,6,-1
 186 458 l 1,7,8
 264 491 264 491 333 491 c 0,9,10
 399 491 399 491 436 467 c 0,11,12
 477 441 477 441 491 410 c 0,13,14
 509 370 509 370 512 344 c 0,15,16
 516 306 516 306 517 274 c 2,17,-1
 517 0 l 1,18,-1
 398 0 l 1,19,-1
 398 282 l 2,20,21
 398 380 398 380 301 380 c 0,0,1
EndSplineSet
EndChar

StartChar: i
Encoding: 105 105 4
Width: 253
VWidth: 1023
Flags: HW
HStem: 0 21G<64.7373 184.737> 462 20G<64.7373 184.737> 562 132<57.7373 191.737>
VStem: 58 134<562 694> 65 120<0 482>
LayerCount: 2
Fore
SplineSet
58 694 m 5,0,-1
 192 694 l 1,1,-1
 192 562 l 1,2,-1
 58 562 l 1,3,-1
 58 694 l 5,0,-1
65 482 m 5,4,-1
 185 482 l 1,5,-1
 185 0 l 1,6,-1
 65 0 l 1,7,-1
 65 482 l 5,4,-1
EndSplineSet
EndChar

StartChar: n
Encoding: 110 110 5
Width: 580
VWidth: 1023
Flags: HW
HStem: 0 21G<62.7266 182.727 390.627 511.627> 380 112<215.307 363.434> 462 20G<62.7266 156.424>
VStem: 63 120<0 361.288> 391 121<0 354.174>
LayerCount: 2
Back
SplineSet
87.8906 482.422 m 1,0,-1
 144.043 482.422 l 1,1,-1
 161.621 441.406 l 1,2,3
 212.959954101 469.409438279 212.959954101 469.409438279 255.852781875 480.798719139 c 0
 298.745609649 492.188 298.745609649 492.188 331.543 492.188 c 0,4,5
 364.888014374 492.188 364.888014374 492.188 390.74759403 484.07347674 c 0
 416.607173686 475.958953481 416.607173686 475.958953481 433.104614303 460.44652326 c 0
 449.602054921 444.934093039 449.602054921 444.934093039 460.707251437 426.623513777 c 0
 471.812447954 408.312934516 471.812447954 408.312934516 477.266799489 383.533115852 c 0
 482.721151023 358.753297188 482.721151023 358.753297188 484.768575511 336.784217481 c 0
 486.816 314.815137774 486.816 314.815137774 486.816 287.598 c 2,6,-1
 486.816 0 l 1,7,-1
 406.25 0 l 1,8,-1
 406.25 290.527 l 2,9,10
 406.25 301.312474561 406.25 301.312474561 406.07445985 307.564769382 c 0
 405.8989197 313.817064202 405.8989197 313.817064202 403.888790879 329.081233534 c 0
 401.878662057 344.345402866 401.878662057 344.345402866 398.168045856 354.502623609 c 0
 394.457429655 364.659844352 394.457429655 364.659844352 386.390423532 378.18849884 c 0
 378.323417409 391.717153328 378.323417409 391.717153328 367.097433611 399.902868507 c 0
 355.871449813 408.088583686 355.871449813 408.088583686 337.767274844 414.005291843 c 0
 319.663099875 419.922 319.663099875 419.922 296.875 419.922 c 0,11,12
 240.194443923 419.922 240.194443923 419.922 167.969 382.324 c 1,13,-1
 167.969 0 l 1,14,-1
 87.8906 0 l 1,15,-1
 87.8906 482.422 l 1,0,-1
EndSplineSet
Fore
SplineSet
63 482 m 5,0,-1
 147 482 l 1,1,-1
 163 449 l 1,2,3
 257 492 257 492 333 492 c 0,4,5
 457 492 457 492 493 400 c 0,6,7
 511 354 511 354 512 285 c 2,8,-1
 512 0 l 1,9,-1
 391 0 l 1,10,-1
 391 283 l 2,11,12
 391 334 391 334 369 356 c 0,13,14
 346 380 346 380 296.5 380 c 128,-1,15
 247 380 247 380 183 353 c 1,16,-1
 183 0 l 1,17,-1
 63 0 l 1,18,-1
 63 482 l 5,0,-1
EndSplineSet
EndChar

StartChar: o
Encoding: 111 111 6
Width: 608
VWidth: 1023
Flags: HW
HStem: -10 109<230.691 379.874> 383 109<222.82 374.127>
VStem: 45 119<168.275 325.09> 441 118<159.172 317.512>
LayerCount: 2
Fore
SplineSet
117 422.5 m 128,-1,1
 189 492 189 492 302.5 492 c 132,-1,2
 416 492 416 492 487.5 427.5 c 128,-1,3
 559 363 559 363 559 247 c 128,-1,4
 559 131 559 131 486.5 60.5 c 128,-1,5
 414 -10 414 -10 290 -10 c 128,-1,6
 166 -10 166 -10 96 78 c 0,7,8
 46 143 46 143 45 236 c 0,9,0
 45 353 45 353 117 422.5 c 128,-1,1
365 367.5 m 128,-1,11
 333 383 333 383 298.5 383 c 132,-1,12
 264 383 264 383 234.5 369 c 128,-1,13
 205 355 205 355 184.5 323.5 c 128,-1,14
 164 292 164 292 164 249 c 0,15,16
 164 185 164 185 203.5 142 c 128,-1,17
 243 99 243 99 303.5 99 c 128,-1,18
 364 99 364 99 402.5 136.5 c 128,-1,19
 441 174 441 174 441 228.5 c 128,-1,20
 441 283 441 283 419 317.5 c 128,-1,10
 397 352 397 352 365 367.5 c 128,-1,11
EndSplineSet
EndChar

StartChar: s
Encoding: 115 115 7
Width: 524
VWidth: 1023
Flags: HW
HStem: -10 103<131.439 340.099> 372 99<314.613 433.891> 389 103<207.774 438.54>
VStem: 63 127<318.934 371.287> 355 129<108.717 162.947>
LayerCount: 2
Fore
SplineSet
355 144 m 1,0,1
 354 160 354 160 331 169.5 c 128,-1,2
 308 179 308 179 273.5 188 c 128,-1,3
 239 197 239 197 228.5 200 c 128,-1,4
 218 203 218 203 199 208.5 c 128,-1,5
 180 214 180 214 169 218.5 c 128,-1,6
 158 223 158 223 142 231 c 128,-1,7
 126 239 126 239 116 246 c 128,-1,8
 106 253 106 253 95 263.5 c 128,-1,9
 84 274 84 274 77 285 c 0,10,11
 61 313 61 313 62 341 c 0,12,13
 62 391 62 391 114 438 c 0,14,15
 140 462 140 462 191 477 c 128,-1,16
 242 492 242 492 311 492 c 0,17,18
 350 492 350 492 368 489 c 128,-1,19
 386 486 386 486 391 485.5 c 128,-1,20
 396 485 396 485 406 482 c 128,-1,21
 416 479 416 479 418.5 478.5 c 128,-1,22
 421 478 421 478 432 474.5 c 128,-1,23
 443 471 443 471 444 471 c 2,24,-1
 464 465 l 1,25,-1
 431 367 l 1,26,-1
 412 372 l 1,27,28
 352 389 352 389 311 389 c 128,-1,29
 270 389 270 389 249 385 c 128,-1,30
 228 381 228 381 217.5 375.5 c 128,-1,31
 207 370 207 370 200 362 c 0,32,33
 190 351 190 351 190 340 c 0,34,35
 190 325 190 325 220.5 313 c 128,-1,36
 251 301 251 301 294 289 c 128,-1,37
 337 277 337 277 380.5 261 c 128,-1,38
 424 245 424 245 454 215 c 0,39,40
 484 185 484 185 484 144 c 0,41,42
 484 68 484 68 412 26 c 0,43,44
 352 -10 352 -10 254 -10 c 128,-1,45
 156 -10 156 -10 64 28 c 2,46,-1
 45 36 l 1,47,-1
 82 133 l 1,48,-1
 100 126 l 1,49,50
 188 93 188 93 246 93 c 0,51,52
 355 93 355 93 355 144 c 1,0,1
EndSplineSet
EndChar

StartChar: bar
Encoding: 124 124 8
Width: 365
VWidth: 1023
Flags: HW
VStem: 124 120<-170 802>
LayerCount: 2
Fore
SplineSet
124 802 m 1,0,-1
 244 802 l 1,1,-1
 244 -170 l 1,2,-1
 124 -170 l 1,3,-1
 124 802 l 1,0,-1
EndSplineSet
EndChar

StartChar: b
Encoding: 98 98 9
Width: 592
VWidth: 1023
Flags: HW
HStem: -10 103<186.823 361.644> 0 21G<66.291 161.291> 386 106<187.811 358.41> 674 20G<66.291 186.291>
VStem: 66 120<101.249 377.171 471 694> 424 118<152.01 320.827>
LayerCount: 2
Fore
SplineSet
66 694 m 5,0,-1
 186 694 l 1,1,-1
 186 471 l 1,2,3
 240 492 240 492 284.5 492 c 128,-1,4
 329 492 329 492 356 487 c 128,-1,5
 383 482 383 482 410.5 471 c 128,-1,6
 438 460 438 460 461 440.5 c 128,-1,7
 484 421 484 421 503 395 c 0,8,9
 542 339 542 339 542 247 c 0,10,11
 542 128 542 128 471.5 59 c 128,-1,12
 401 -10 401 -10 287 -10 c 0,13,14
 223 -10 223 -10 161 16 c 1,15,-1
 155 0 l 1,16,-1
 66 0 l 1,17,-1
 66 694 l 5,0,-1
305 383.5 m 128,-1,19
 289 386 289 386 258.5 386 c 128,-1,20
 228 386 228 386 186 370 c 1,21,-1
 186 107 l 1,22,23
 231 93 231 93 265.5 93 c 128,-1,24
 300 93 300 93 323.5 99 c 128,-1,25
 347 105 347 105 371 119.5 c 128,-1,26
 395 134 395 134 409.5 163.5 c 128,-1,27
 424 193 424 193 424 229 c 129,-1,28
 424 265 424 265 417 289.5 c 128,-1,29
 410 314 410 314 398 330 c 128,-1,30
 386 346 386 346 371 357.5 c 128,-1,31
 356 369 356 369 338.5 375 c 128,-1,18
 321 381 321 381 305 383.5 c 128,-1,19
EndSplineSet
EndChar

StartChar: l
Encoding: 108 108 10
Width: 322
VWidth: 1023
Flags: HW
HStem: -10 75<141.5 304.592> 674 20G<69.3868 189.4>
VStem: 69 120<74.8596 693.75>
LayerCount: 2
Back
SplineSet
69.8545 738 m 5,0,-1
 189.854 738 l 1,1,-1
 189.854 0 l 1,2,-1
 69.8545 0 l 1,3,-1
 69.8545 738 l 5,0,-1
EndSplineSet
Fore
SplineSet
217 70 m 0,0,1
 231 65 231 65 252.5 65 c 132,-1,2
 274 65 274 65 310 76 c 1,3,-1
 310 14 l 1,4,5
 308 13 308 13 296 8 c 128,-1,6
 284 3 284 3 274 0 c 0,7,8
 242 -9 242 -9 173 -10 c 0,9,10
 126 -10 126 -10 97.5 22 c 128,-1,11
 69 54 69 54 69 105 c 2,12,-1
 69 694 l 1,13,-1
 189 694 l 1,14,-1
 189 134 l 2,15,16
 189 80 189 80 217 70 c 0,0,1
EndSplineSet
EndChar

StartChar: w
Encoding: 119 119 11
Width: 877
VWidth: 1023
Flags: HW
HStem: 0 21G<198.953 322.962 548.564 673.536> 462 20G<20.6709 156.113 381.252 502.59 732.865 869.071>
LayerCount: 2
Back
SplineSet
708.008 482.422 m 1,0,-1
 793.457 482.422 l 1,1,-1
 924.316 77.6367 l 1,2,-1
 1048.34 482.422 l 1,3,-1
 1126.95 482.422 l 1,4,-1
 1255.86 78.125 l 1,5,-1
 1386.72 482.422 l 1,6,-1
 1472.17 482.422 l 1,7,-1
 1295.9 0 l 1,8,-1
 1215.33 0 l 1,9,-1
 1086.91 391.113 l 1,10,-1
 959.961 0 l 1,11,-1
 879.395 0 l 1,12,-1
 708.008 482.422 l 1,0,-1
EndSplineSet
Fore
SplineSet
21 482 m 1,0,-1
 150 482 l 1,1,-1
 265 125 l 1,2,-1
 388 482 l 1,3,-1
 496 482 l 1,4,-1
 611 124 l 1,5,-1
 740 482 l 1,6,-1
 869 482 l 1,7,-1
 665 0 l 1,8,-1
 555 0 l 1,9,-1
 442 347 l 1,10,-1
 316 0 l 1,11,-1
 207 0 l 1,12,-1
 21 482 l 1,0,-1
EndSplineSet
EndChar

StartChar: exclam
Encoding: 33 33 12
Width: 266
VWidth: 1023
Flags: HW
HStem: -20 138<64.7998 202.8>
VStem: 65 138<-20 118> 72 123<204 714>
LayerCount: 2
Fore
SplineSet
65 118 m 1,0,-1
 203 118 l 1,1,-1
 203 -20 l 1,2,-1
 65 -20 l 1,3,-1
 65 118 l 1,0,-1
72 714 m 1,4,-1
 195 714 l 1,5,-1
 195 204 l 1,6,-1
 72 204 l 1,7,-1
 72 714 l 1,4,-1
EndSplineSet
EndChar

StartChar: u
Encoding: 117 117 14
Width: 586
VWidth: 1023
Flags: HW
HStem: -10 112<211.106 361.091> 0 21G<419.735 517.826> 462 20G<62.7266 182.727 397.826 517.826>
VStem: 63 120<127.826 482> 398 120<120.712 482>
LayerCount: 2
Fore
SplineSet
414 33 m 1,0,1
 322 -10 322 -10 242 -10 c 0,2,3
 116 -10 116 -10 81 82 c 0,4,5
 63 128 63 128 63 197 c 2,6,-1
 63 482 l 1,7,-1
 183 482 l 1,8,-1
 183 198 l 2,9,10
 183 156 183 156 193 142.5 c 128,-1,11
 203 129 203 129 213 120 c 0,12,13
 234 102 234 102 283 102 c 128,-1,14
 332 102 332 102 398 129 c 1,15,-1
 398 482 l 1,16,-1
 518 482 l 1,17,-1
 518 0 l 1,18,-1
 429 0 l 1,19,-1
 414 33 l 1,0,1
EndSplineSet
EndChar

StartChar: p
Encoding: 112 112 15
Width: 591
VWidth: 1023
Flags: HW
HStem: -10 103<188.934 361.733> 385 107<189.98 360.562> 462 20G<62.7266 161.292>
VStem: 63 125<-259 7 102.057 375.31> 423 118<154.882 323.631>
LayerCount: 2
Fore
SplineSet
432 459 m 0,0,1
 541 397 541 397 541 246 c 0,2,3
 541 167 541 167 508.5 108.5 c 128,-1,4
 476 50 476 50 419 20 c 128,-1,5
 362 -10 362 -10 299.5 -10 c 128,-1,6
 237 -10 237 -10 188 7 c 1,7,-1
 188 -259 l 1,8,-1
 63 -259 l 1,9,-1
 63 482 l 1,10,-1
 152 482 l 1,11,-1
 163 459 l 1,12,13
 235 492 235 492 304.5 492 c 128,-1,14
 374 492 374 492 432 459 c 0,0,1
313.5 382 m 128,-1,16
 295 385 295 385 263.5 385 c 128,-1,17
 232 385 232 385 188 368 c 1,18,-1
 188 108 l 1,19,20
 236 93 236 93 268.5 93 c 128,-1,21
 301 93 301 93 324.5 99 c 128,-1,22
 348 105 348 105 371 119.5 c 128,-1,23
 394 134 394 134 408.5 163.5 c 128,-1,24
 423 193 423 193 423 232 c 128,-1,25
 423 271 423 271 413 299 c 128,-1,26
 403 327 403 327 388 343 c 128,-1,27
 373 359 373 359 352.5 369 c 128,-1,15
 332 379 332 379 313.5 382 c 128,-1,16
EndSplineSet
EndChar

StartChar: q
Encoding: 113 113 16
Width: 584
VWidth: 1023
Flags: HW
HStem: -10 107<225.617 394.191> 387 105<219.517 395.226> 462 20G<423.622 518.193>
VStem: 44 119<159.617 327.332> 397 121<-259 13 106.69 375.187>
LayerCount: 2
Fore
SplineSet
397 13 m 1,0,1
 339 -10 339 -10 282 -10 c 0,2,3
 226 -10 226 -10 172 12 c 0,4,5
 118 35 118 35 82 90 c 0,6,7
 44 146 44 146 44 238 c 0,8,9
 44 300 44 300 65.5 349.5 c 128,-1,10
 87 399 87 399 123 430 c 0,11,12
 196 492 196 492 294 492 c 0,13,14
 351 492 351 492 423 461 c 1,15,-1
 432 482 l 1,16,-1
 518 482 l 1,17,-1
 518 -259 l 1,18,-1
 397 -259 l 1,19,-1
 397 13 l 1,0,1
299 387 m 0,20,21
 237 387 237 387 200 349.5 c 128,-1,22
 163 312 163 312 163 246 c 0,23,24
 163 149 163 149 233 114 c 0,25,26
 268 97 268 97 310.5 97 c 128,-1,27
 353 97 353 97 397 114 c 1,28,-1
 397 369 l 1,29,30
 342 387 342 387 299 387 c 0,20,21
EndSplineSet
EndChar

StartChar: m
Encoding: 109 109 17
Width: 877
VWidth: 1023
Flags: HW
HStem: 0 21G<62.7266 182.727 375.326 495.326 688.826 808.826> 378 114<210.385 350.81 508.948 664.799> 462 20G<62.7266 160.759>
VStem: 63 120<0 360.252> 375 120<0 350.967> 689 120<0 351.278>
LayerCount: 2
Fore
SplineSet
285 378 m 0,0,1
 248 378 248 378 183 352 c 1,2,-1
 183 0 l 1,3,-1
 63 0 l 1,4,-1
 63 482 l 1,5,-1
 152 482 l 1,6,-1
 166 451 l 1,7,8
 248 492 248 492 324 492 c 128,-1,9
 400 492 400 492 446 443 c 1,10,11
 538 491 538 491 626 491 c 0,12,13
 733 491 733 491 773 430 c 0,14,15
 809 376 809 376 809 286 c 2,16,-1
 809 0 l 1,17,-1
 689 0 l 1,18,-1
 689 285 l 2,19,20
 689 331 689 331 667 354.5 c 128,-1,21
 645 378 645 378 597 378 c 0,22,23
 554 378 554 378 491 352 c 1,24,25
 495 330 495 330 495 283 c 2,26,-1
 495 0 l 1,27,-1
 375 0 l 1,28,-1
 375 287 l 2,29,30
 375 378 375 378 285 378 c 0,0,1
EndSplineSet
EndChar

StartChar: c
Encoding: 99 99 18
Width: 518
VWidth: 1023
Flags: HW
HStem: -10 106<232.52 435.388> 382 109<221.782 439.724>
VStem: 45 118<159.813 323.276>
LayerCount: 2
Fore
SplineSet
324 382 m 0,0,1
 163 382 163 382 163 246 c 0,2,3
 163 96 163 96 334 96 c 0,4,5
 381 96 381 96 421 111 c 2,6,-1
 440 118 l 1,7,-1
 473 25 l 1,8,-1
 455 19 l 1,9,10
 380 -10 380 -10 303 -10 c 0,11,12
 194 -10 194 -10 119.5 46 c 128,-1,13
 45 102 45 102 45 231 c 1,14,15
 45 392 45 392 162 456 c 0,16,17
 227 491 227 491 310 491 c 128,-1,18
 393 491 393 491 460 461 c 1,19,-1
 478 454 l 1,20,-1
 446 358 l 1,21,-1
 427 365 l 1,22,23
 378 382 378 382 324 382 c 0,0,1
EndSplineSet
EndChar

StartChar: t
Encoding: 116 116 19
Width: 432
VWidth: 1023
Flags: HW
HStem: -10 103<238.605 394.75> 379 103<24.2363 99.2363 219.236 388.336>
VStem: 99 120<112.105 379 482 621>
LayerCount: 2
Back
SplineSet
409.18 8.78906 m 6,0,1
 369.394686008 -1.50017897684 369.394686008 -1.50017897684 340.7350936 -5.63289948842 c 0
 312.075501191 -9.76562 312.075501191 -9.76562 289.062 -9.76562 c 0,2,3
 231.774047329 -9.76562 231.774047329 -9.76562 192.630789138 3.37436948053 c 0
 153.487530948 16.5143589611 153.487530948 16.5143589611 133.998729612 41.021042707 c 0
 114.509928276 65.5277264529 114.509928276 65.5277264529 106.815514138 92.4703613555 c 0
 99.1211 119.412996258 99.1211 119.412996258 99.1211 154.785 c 2,4,-1
 99.1211 379.395 l 1,5,-1
 34.1797 379.395 l 1,6,-1
 34.1797 482.422 l 1,7,-1
 99.1211 482.422 l 1,8,-1
 99.1211 620.605 l 1,9,-1
 242.188 620.605 l 1,10,-1
 242.188 482.422 l 1,11,-1
 406.25 482.422 l 1,12,-1
 406.25 379.395 l 1,13,-1
 242.188 379.395 l 1,14,-1
 242.188 163.086 l 2,15,16
 242.188 152.208288378 242.188 152.208288378 243.131878698 144.288732247 c 0
 244.075757395 136.369176116 244.075757395 136.369176116 248.415729302 125.914370153 c 0
 252.755701209 115.459564189 252.755701209 115.459564189 260.451830698 108.851189847 c 0
 268.147960186 102.242815505 268.147960186 102.242815505 282.962161302 97.5081077527 c 0
 297.776362419 92.7734 297.776362419 92.7734 318.359 92.7734 c 0,17,18
 325.01993123 92.7734 325.01993123 92.7734 331.845739928 93.4934131538 c 0
 338.671548627 94.2134263076 338.671548627 94.2134263076 349.794593405 95.9596535129 c 0
 360.917638184 97.7058807181 360.917638184 97.7058807181 389.648 102.539 c 2,19,-1
 408.691 105.957 l 1,20,-1
 427.734 13.6719 l 1,21,-1
 409.18 8.78906 l 6,0,1
EndSplineSet
Fore
SplineSet
391 9 m 6,0,1
 319 -10 319 -10 277.5 -10 c 128,-1,2
 236 -10 236 -10 207.5 -4 c 128,-1,3
 179 2 179 2 160 14 c 128,-1,4
 141 26 141 26 129 40.5 c 128,-1,5
 117 55 117 55 110 75 c 0,6,7
 99 110 99 110 99 155 c 2,8,-1
 99 379 l 1,9,-1
 24 379 l 1,10,-1
 24 482 l 1,11,-1
 99 482 l 1,12,-1
 99 621 l 1,13,-1
 219 621 l 1,14,-1
 219 482 l 1,15,-1
 388 482 l 1,16,-1
 388 379 l 1,17,-1
 219 379 l 1,18,-1
 219 163 l 2,19,20
 219 135 219 135 237.5 114 c 128,-1,21
 256 93 256 93 300 93 c 0,22,23
 314 93 314 93 372 103 c 2,24,-1
 391 106 l 1,25,-1
 410 14 l 1,26,-1
 391 9 l 6,0,1
EndSplineSet
EndChar

StartChar: r
Encoding: 114 114 20
Width: 429
VWidth: 1023
Flags: HW
HStem: 0 21G<62.7266 182.727> 383 109<187.704 392.666> 462 20G<62.7266 153.927>
VStem: 63 120<0 368.266>
LayerCount: 2
Fore
SplineSet
366 370 m 2,0,1
 333 383 333 383 284 383 c 128,-1,2
 235 383 235 383 183 360 c 1,3,-1
 183 0 l 1,4,-1
 63 0 l 1,5,-1
 63 482 l 1,6,-1
 143 482 l 1,7,-1
 157 457 l 5,8,9
 227 492 227 492 294.5 492 c 128,-1,10
 362 492 362 492 406 471 c 2,11,-1
 423 463 l 1,12,-1
 385 363 l 1,13,-1
 366 370 l 2,0,1
EndSplineSet
EndChar

StartChar: v
Encoding: 118 118 21
Width: 526
VWidth: 1023
Flags: HW
HStem: 0 21G<206.843 339.428> 462 20G<22.8096 167.3 383.02 515.409>
LayerCount: 2
Back
SplineSet
448.242 482.422 m 5,0,-1
 278.809 0 l 1,1,-1
 200.684 0 l 1,2,-1
 31.7383 482.422 l 1,3,-1
 114.746 482.422 l 1,4,-1
 239.746 79.5898 l 1,5,-1
 365.234 482.422 l 1,6,-1
 448.242 482.422 l 5,0,-1
EndSplineSet
Fore
SplineSet
515 482 m 1,0,-1
 332 0 l 1,1,-1
 215 0 l 1,2,-1
 23 482 l 1,3,-1
 161 482 l 1,4,-1
 276 127 l 1,5,-1
 389 482 l 1,6,-1
 515 482 l 1,0,-1
EndSplineSet
EndChar

StartChar: k
Encoding: 107 107 22
Width: 558
VWidth: 1023
Flags: HW
HStem: 0 21G<62.7266 182.727 377.427 543.127> 472 20G<370.144 535.127> 674 20G<62.7266 182.727>
VStem: 63 120<0 240 289 694>
LayerCount: 2
Fore
SplineSet
183 289 m 1,0,-1
 391 492 l 1,1,-1
 535 492 l 1,2,-1
 297 271 l 1,3,-1
 543 0 l 1,4,-1
 395 0 l 1,5,-1
 183 240 l 1,6,-1
 183 0 l 1,7,-1
 63 0 l 1,8,-1
 63 694 l 1,9,-1
 183 694 l 1,10,-1
 183 289 l 1,0,-1
EndSplineSet
EndChar

StartChar: j
Encoding: 106 106 23
Width: 270
VWidth: 1023
Flags: HW
HStem: 462 20G<92.416 212.416> 562 132<84.416 219.416>
VStem: 84 135<562 694> 92 120<-124.777 482>
LayerCount: 2
Fore
SplineSet
84 694 m 1,0,-1
 219 694 l 1,1,-1
 219 562 l 1,2,-1
 84 562 l 1,3,-1
 84 694 l 1,0,-1
92 482 m 1,4,-1
 212 482 l 1,5,-1
 212 -47 l 2,6,7
 212 -134 212 -134 180 -182 c 0,8,9
 166 -202 166 -202 138 -224 c 128,-1,10
 110 -246 110 -246 70 -260 c 2,11,-1
 53 -266 l 1,12,-1
 6 -171 l 1,13,-1
 24 -162 l 1,14,15
 92 -130 92 -130 92 -55 c 2,16,-1
 92 482 l 1,4,-1
EndSplineSet
EndChar

StartChar: x
Encoding: 120 120 24
Width: 558
VWidth: 1023
Flags: HW
HStem: 0 21G<28.8096 177.231 392.537 549.609> 462 20G<22.8096 179.741 407.891 558.209>
LayerCount: 2
Fore
SplineSet
23 482 m 1,0,-1
 165 482 l 1,1,-1
 296 306 l 1,2,-1
 422 482 l 1,3,-1
 558 482 l 1,4,-1
 364 237 l 1,5,-1
 550 0 l 1,6,-1
 408 0 l 1,7,-1
 283 166 l 1,8,-1
 163 0 l 1,9,-1
 29 0 l 1,10,-1
 214 237 l 1,11,-1
 23 482 l 1,0,-1
EndSplineSet
EndChar

StartChar: z
Encoding: 122 122 25
Width: 546
VWidth: 1023
Flags: HW
HStem: 0 103<218.835 490.035> 379 103<52.0352 308.835>
LayerCount: 2
Fore
SplineSet
52 482 m 1,0,-1
 478 482 l 1,1,-1
 478 420 l 1,2,-1
 219 103 l 1,3,-1
 490 103 l 1,4,-1
 490 0 l 1,5,-1
 52 0 l 1,6,-1
 52 62 l 1,7,-1
 309 379 l 1,8,-1
 52 379 l 1,9,-1
 52 482 l 1,0,-1
EndSplineSet
EndChar

StartChar: y
Encoding: 121 121 26
Width: 559
VWidth: 1023
Flags: HW
HStem: 462 20G<17.1074 162.843 420.801 554.807>
LayerCount: 2
Back
SplineSet
24.4141 482.422 m 5,0,-1
 107.422 482.422 l 1,1,-1
 261.719 73.2422 l 1,2,-1
 405.273 482.422 l 1,3,-1
 488.281 482.422 l 1,4,-1
 209.961 -259.277 l 1,5,-1
 124.512 -259.277 l 1,6,-1
 223.633 -18.5547 l 1,7,-1
 24.4141 482.422 l 5,0,-1
EndSplineSet
Fore
SplineSet
17 482 m 1,0,-1
 155 482 l 1,1,-1
 298 112 l 1,2,-1
 428 482 l 1,3,-1
 555 482 l 1,4,-1
 260 -259 l 1,5,-1
 125 -259 l 1,6,-1
 235 -4 l 1,7,-1
 17 482 l 1,0,-1
EndSplineSet
EndChar

StartChar: f
Encoding: 102 102 27
Width: 459
VWidth: 1023
Flags: HW
HStem: 0 21G<127.044 247.044> 379 103<47.0439 127.044 247.044 428.044> 591 107<272.764 449.778>
VStem: 127 120<0 379 482 567.089>
LayerCount: 2
Back
SplineSet
323.318 630.762 m 4,0,1
 292.78708097 630.762 292.78708097 630.762 270.857891858 621.616045404 c 0
 248.928702745 612.470090809 248.928702745 612.470090809 238.794461245 601.20935651 c 0
 228.660219746 589.94862221 228.660219746 589.94862221 223.181463266 573.186966689 c 0
 217.702706787 556.425311167 217.702706787 556.425311167 217.156227843 548.333628933 c 0
 216.609748899 540.241946699 216.609748899 540.241946699 216.772510078 530.294376616 c 0
 216.795960492 528.861144005 216.795960492 528.861144005 216.797 528.32 c 2,2,-1
 216.882 482.422 l 1,3,-1
 378.418 482.422 l 1,4,-1
 378.418 419.434 l 1,5,-1
 216.998 419.434 l 1,6,-1
 217.773 0 l 1,7,-1
 136.719 0 l 1,8,-1
 135.947 419.434 l 1,9,-1
 65.918 419.434 l 1,10,-1
 65.918 482.422 l 1,11,-1
 135.832 482.422 l 1,12,-1
 135.742 531.25 l 1,13,14
 135.738 534.458 l 2,15,16
 135.738 552.534424994 135.738 552.534424994 136.567746139 564.904198382 c 0
 137.397492278 577.273971769 137.397492278 577.273971769 141.820920528 595.189468285 c 0
 146.244348777 613.104964801 146.244348777 613.104964801 154.57 627.739 c 0,17,18
 167.305302367 650.124291518 167.305302367 650.124291518 188.256935474 665.849156213 c 0
 209.208568582 681.574020908 209.208568582 681.574020908 236.732064526 689.651510454 c 0
 264.255560469 697.729 264.255560469 697.729 296.711 697.729 c 0,19,20
 350.181575272 697.729 350.181575272 697.729 412.598 678.711 c 1,21,-1
 400.391 619.141 l 1,22,23
 358.325856346 630.762 358.325856346 630.762 323.318 630.762 c 4,0,1
EndSplineSet
Fore
SplineSet
353 591 m 0,0,1
 247 591 247 591 247 515 c 2,2,-1
 247 482 l 1,3,-1
 428 482 l 1,4,-1
 428 379 l 1,5,-1
 247 379 l 1,6,-1
 247 0 l 1,7,-1
 127 0 l 1,8,-1
 127 379 l 1,9,-1
 47 379 l 1,10,-1
 47 482 l 1,11,-1
 127 482 l 1,12,-1
 127 511 l 6,13,14
 127 584 127 584 143 616 c 0,15,16
 164 657 164 657 199 674 c 0,17,18
 248 698 248 698 315.5 698 c 128,-1,19
 383 698 383 698 449 678 c 1,20,-1
 466 672 l 1,21,-1
 446 575 l 1,22,-1
 426 580 l 1,23,24
 375 591 375 591 353 591 c 0,0,1
EndSplineSet
EndChar

StartChar: G
Encoding: 71 71 28
Width: 756
VWidth: 1023
Flags: HW
HStem: -10 114<342.68 552.176> 278 108<387.34 582.64> 586 113<335.644 555.307>
VStem: 68 124<247.869 448.158> 583 121<130.36 278>
LayerCount: 2
Fore
SplineSet
704 101 m 1,0,1
 601 -10 601 -10 431 -10 c 0,2,3
 359 -10 359 -10 298 10.5 c 128,-1,4
 237 31 237 31 195.5 66 c 128,-1,5
 154 101 154 101 124 147 c 0,6,7
 68 236 68 236 68 346 c 0,8,9
 68 484 68 484 161 591 c 1,10,11
 206 641 206 641 275.5 670 c 128,-1,12
 345 699 345 699 430 699 c 0,13,14
 553 699 553 699 662 638 c 1,15,-1
 679 628 l 1,16,-1
 628 531 l 1,17,-1
 610 541 l 1,18,19
 525 586 525 586 434 586 c 0,20,21
 338 586 338 586 267 524 c 0,22,23
 233 495 233 495 212.5 450 c 128,-1,24
 192 405 192 405 192 351 c 1,25,26
 192 243 192 243 265 173.5 c 128,-1,27
 338 104 338 104 450 104 c 0,28,29
 530 104 530 104 583 145 c 1,30,-1
 583 278 l 1,31,-1
 387 278 l 1,32,-1
 387 386 l 1,33,-1
 704 386 l 1,34,-1
 704 101 l 1,0,1
EndSplineSet
EndChar

StartChar: H
Encoding: 72 72 29
Width: 759
VWidth: 1023
Flags: HW
HStem: 0 21G<90 213 546.899 669.899> 301 114<213 546.899> 674 20G<90 213 546.899 669.899>
VStem: 90 123<0 301 415 694> 547 123<0 301 415 694>
LayerCount: 2
Fore
SplineSet
547 694 m 1,0,-1
 670 694 l 1,1,-1
 670 0 l 1,2,-1
 547 0 l 1,3,-1
 547 301 l 1,4,-1
 213 301 l 1,5,-1
 213 0 l 1,6,-1
 90 0 l 1,7,-1
 90 694 l 1,8,-1
 213 694 l 1,9,-1
 213 415 l 1,10,-1
 547 415 l 1,11,-1
 547 694 l 1,0,-1
EndSplineSet
EndChar

StartChar: g
Encoding: 103 103 30
Width: 589
VWidth: 1023
Flags: HW
HStem: -264 107<130.489 340.633> -10 106<231.992 400.981> 387 105<227.837 400.947> 462 20G<425.626 522.293>
VStem: 44 125<161.09 328.324> 402 120<-92.3037 12 106.606 375.187>
LayerCount: 2
Back
SplineSet
286.684 492.041 m 4,0,1
 344.224491448 492.041 344.224491448 492.041 419.733 453.651 c 1,2,-1
 430.176 482.422 l 1,3,-1
 486.328 482.422 l 1,4,-1
 486.328 -23.4375 l 2,5,6
 486.328 -24.5802677006 486.328 -24.5802677006 486.337862351 -27.1387916273 c 0
 487.04776587 -211.304334424 487.04776587 -211.304334424 326.172 -254.395 c 0,7,8
 316.778584842 -256.910502035 316.778584842 -256.910502035 307.12825707 -258.784140964 c 0
 297.477929299 -260.657779893 297.477929299 -260.657779893 287.782946055 -261.862187161 c 0
 278.08796281 -263.066594428 278.08796281 -263.066594428 268.37791332 -263.659297214 c 0
 258.667863831 -264.252 258.667863831 -264.252 248.799 -264.252 c 0,9,10
 174.147261479 -264.252 174.147261479 -264.252 99.6094 -232.91 c 1,11,-1
 122.07 -174.805 l 1,12,13
 152.269561709 -186.045314392 152.269561709 -186.045314392 181.874226473 -191.704801388 c 0
 211.478891238 -197.364288385 211.478891238 -197.364288385 238.229 -197.434 c 2,14,-1
 238.88 -197.434 l 2,15,16
 253.014097747 -197.434 253.014097747 -197.434 267.075251301 -195.612552034 c 0
 281.136404855 -193.791104069 281.136404855 -193.791104069 299.806665366 -189.059006299 c 0
 318.476925876 -184.326908529 318.476925876 -184.326908529 334.61951056 -174.222461294 c 0
 350.762095244 -164.118014059 350.762095244 -164.118014059 365.650146847 -149.535221114 c 0
 380.53819845 -134.952428169 380.53819845 -134.952428169 390.671103153 -111.314170553 c 0
 400.804007856 -87.6759129372 400.804007856 -87.6759129372 404.046 -57.8594 c 0,17,18
 406.254 -37.5523350801 406.254 -37.5523350801 406.254 -0.730469 c 2,19,-1
 406.25 23.25 l 1,20,21
 344.619469399 -9.56543 344.619469399 -9.56543 278.64 -9.56543 c 0,22,23
 256.547334587 -9.56543 256.547334587 -9.56543 235.07144484 -5.52002252801 c 0
 213.595555094 -1.47461505601 213.595555094 -1.47461505601 192.002681107 7.65787392742 c 0
 170.40980712 16.7903629109 170.40980712 16.7903629109 151.486714811 30.3776185216 c 0
 132.563622502 43.9648741323 132.563622502 43.9648741323 116.099619883 64.2414861723 c 0
 99.6356172627 84.5180982124 99.6356172627 84.5180982124 87.8595311378 109.579308317 c 0
 76.083445013 134.640518423 76.083445013 134.640518423 69.3425225065 167.993359875 c 0
 62.6016 201.346201327 62.6016 201.346201327 62.6016 239.893 c 0,24,25
 62.6016 330.412753369 62.6016 330.412753369 103.36885018 390.815605009 c 0
 144.13610036 451.218456649 144.13610036 451.218456649 191.479416487 471.629728324 c 0
 238.822732614 492.041 238.822732614 492.041 286.684 492.041 c 4,0,1
291.559 427.169 m 4,26,27
 246.688491197 427.169 246.688491197 427.169 212.411622799 405.133333333 c 0
 178.134754401 383.097666667 178.134754401 383.097666667 159.369377201 342.572666667 c 0
 140.604 302.047666667 140.604 302.047666667 140.604 248.859 c 0,28,29
 140.604 194.902427257 140.604 194.902427257 157.900732534 152.166065148 c 0
 175.197465067 109.429703038 175.197465067 109.429703038 212.293934133 82.8721015191 c 0
 249.390403199 56.3145 249.390403199 56.3145 301.394 56.3145 c 0,30,31
 354.484933182 56.3145 354.484933182 56.3145 406.25 83.9062 c 1,32,-1
 406.25 400.048 l 1,33,34
 387.969490235 407.552383116 387.969490235 407.552383116 370.510669179 413.00916689 c 0
 353.051848122 418.465950663 353.051848122 418.465950663 341.309354821 421.09596111 c 0
 329.566861521 423.725971558 329.566861521 423.725971558 318.117165179 425.21687889 c 0
 306.667468836 426.707786221 306.667468836 426.707786221 301.710010821 426.93839311 c 0
 296.752552807 427.169 296.752552807 427.169 291.559 427.169 c 4,26,27
EndSplineSet
Fore
SplineSet
402 12 m 1,0,1
 346 -10 346 -10 292 -10 c 0,2,3
 248 -10 248 -10 205 4 c 0,4,5
 106 37 106 37 67 124 c 0,6,7
 45 174 45 174 44.5 230 c 129,-1,8
 44 286 44 286 56 325 c 128,-1,9
 68 364 68 364 89 390.5 c 128,-1,10
 110 417 110 417 135.5 437.5 c 128,-1,11
 161 458 161 458 191 469 c 0,12,13
 249 492 249 492 303 492 c 128,-1,14
 357 492 357 492 425 461 c 1,15,-1
 432 482 l 1,16,-1
 522 482 l 1,17,-1
 522 -10 l 2,18,19
 522 -70 522 -70 506.5 -113 c 128,-1,20
 491 -156 491 -156 471 -180 c 128,-1,21
 451 -204 451 -204 423 -223 c 0,22,23
 364 -264 364 -264 271.5 -264 c 128,-1,24
 179 -264 179 -264 94 -231 c 2,25,-1
 76 -224 l 1,26,-1
 112 -129 l 1,27,-1
 132 -136 l 2,28,29
 195 -157 195 -157 241.5 -157 c 128,-1,30
 288 -157 288 -157 316.5 -147 c 128,-1,31
 345 -137 345 -137 361 -121.5 c 128,-1,32
 377 -106 377 -106 387 -83 c 0,33,34
 403 -46 403 -46 402 8 c 2,35,-1
 402 12 l 1,0,1
234 117 m 0,36,37
 268 96 268 96 311.5 96 c 128,-1,38
 355 96 355 96 402 114 c 1,39,-1
 402 369 l 1,40,41
 348 387 348 387 295.5 387 c 128,-1,42
 243 387 243 387 206 349 c 128,-1,43
 169 311 169 311 169 248 c 0,44,45
 169 157 169 157 234 117 c 0,36,37
EndSplineSet
EndChar

StartChar: O
Encoding: 79 79 31
Width: 801
VWidth: 1023
Flags: HW
HStem: -7 112<319.415 505.986> 588 113<313.661 499.714>
VStem: 68 126<241.41 466.352> 626 126<231.566 456.638>
LayerCount: 2
Fore
SplineSet
411 701 m 4,0,1
 507 701 507 701 584 659.5 c 128,-1,2
 661 618 661 618 706.5 538 c 128,-1,3
 752 458 752 458 752 354 c 0,4,5
 752 194 752 194 654.5 93.5 c 128,-1,6
 557 -7 557 -7 407 -7 c 0,7,8
 274 -7 274 -7 174 80 c 0,9,10
 126 122 126 122 97 191 c 128,-1,11
 68 260 68 260 68 345 c 0,12,13
 68 505 68 505 165.5 603 c 128,-1,14
 263 701 263 701 411 701 c 4,0,1
406.5 588 m 132,-1,16
 367 588 367 588 330 574 c 128,-1,17
 293 560 293 560 262 533 c 128,-1,18
 231 506 231 506 212.5 460 c 128,-1,19
 194 414 194 414 194 355 c 0,20,21
 194 242 194 242 257 173.5 c 128,-1,22
 320 105 320 105 414 105 c 0,23,24
 495 105 495 105 557 161 c 0,25,26
 588 189 588 189 607 237 c 128,-1,27
 626 285 626 285 626 346.5 c 128,-1,28
 626 408 626 408 606.5 456 c 128,-1,29
 587 504 587 504 554.5 532 c 128,-1,30
 522 560 522 560 484 574 c 128,-1,15
 446 588 446 588 406.5 588 c 132,-1,16
EndSplineSet
EndChar

StartChar: A
Encoding: 65 65 32
Width: 690
VWidth: 1023
Flags: HW
HStem: 0 21G<40.8242 168.44 547.31 682.024> 182 112<268.824 446.124> 674 20G<292.846 429.323>
LayerCount: 2
Fore
SplineSet
300 694 m 1,0,-1
 422 694 l 1,1,-1
 682 0 l 1,2,-1
 555 0 l 1,3,-1
 485 182 l 1,4,-1
 230 182 l 1,5,-1
 161 0 l 1,6,-1
 41 0 l 1,7,-1
 300 694 l 1,0,-1
446 294 m 1,8,-1
 358 552 l 1,9,-1
 269 294 l 1,10,-1
 446 294 l 1,8,-1
EndSplineSet
EndChar

StartChar: L
Encoding: 76 76 33
Width: 563
VWidth: 1023
Flags: HW
HStem: 0 113<215.016 542.915> 674 20G<92.0156 215.016>
VStem: 92 123<113 694>
LayerCount: 2
Fore
SplineSet
92 694 m 1,0,-1
 215 694 l 1,1,-1
 215 113 l 1,2,-1
 543 113 l 1,3,-1
 543 0 l 1,4,-1
 92 0 l 1,5,-1
 92 694 l 1,0,-1
EndSplineSet
EndChar

StartChar: E
Encoding: 69 69 34
Width: 614
VWidth: 1023
Flags: HW
HStem: 0 113<215.016 553.715> 301 113<215.016 527.715> 581 113<215.016 553.715>
VStem: 92 123<113 301 414 581>
LayerCount: 2
Fore
SplineSet
92 0 m 1,0,-1
 92 694 l 1,1,-1
 554 694 l 1,2,-1
 554 581 l 1,3,-1
 215 581 l 1,4,-1
 215 414 l 1,5,-1
 528 414 l 1,6,-1
 528 301 l 1,7,-1
 215 301 l 1,8,-1
 215 113 l 1,9,-1
 554 113 l 1,10,-1
 554 0 l 1,11,-1
 92 0 l 1,0,-1
EndSplineSet
EndChar

StartChar: F
Encoding: 70 70 35
Width: 601
VWidth: 1023
Flags: HW
HStem: 0 21G<92.0156 215.016> 301 113<215.016 520.115> 581 113<215.016 550.115>
VStem: 92 123<0 301 414 581>
LayerCount: 2
Fore
SplineSet
215 581 m 1,0,-1
 215 414 l 1,1,-1
 520 414 l 1,2,-1
 520 301 l 1,3,-1
 215 301 l 1,4,-1
 215 0 l 1,5,-1
 92 0 l 1,6,-1
 92 694 l 1,7,-1
 550 694 l 1,8,-1
 550 581 l 1,9,-1
 215 581 l 1,0,-1
EndSplineSet
EndChar

StartChar: N
Encoding: 78 78 36
Width: 786
VWidth: 1023
Flags: HW
HStem: 0 21G<90 213 546.522 696> 674 20G<90 236.903 573 696>
VStem: 90 123<0 534> 573 123<161 694>
LayerCount: 2
Fore
SplineSet
90 694 m 1,0,-1
 224 694 l 1,1,-1
 573 161 l 1,2,-1
 573 694 l 1,3,-1
 696 694 l 1,4,-1
 696 0 l 1,5,-1
 560 0 l 1,6,-1
 213 534 l 1,7,-1
 213 0 l 1,8,-1
 90 0 l 1,9,-1
 90 694 l 1,0,-1
EndSplineSet
EndChar

StartChar: V
Encoding: 86 86 37
Width: 694
VWidth: 1023
Flags: HW
HStem: 0 21G<289.967 450.166> 674 20G<44.0645 189.807 543.94 682.764>
LayerCount: 2
Fore
SplineSet
44 694 m 1,0,-1
 183 694 l 1,1,-1
 375 132 l 1,2,-1
 550 694 l 1,3,-1
 683 694 l 1,4,-1
 443 0 l 1,5,-1
 297 0 l 1,6,-1
 44 694 l 1,0,-1
EndSplineSet
EndChar

StartChar: Z
Encoding: 90 90 38
Width: 671
VWidth: 1023
Flags: HW
HStem: 0 113<219.647 647.447> 581 113<63.248 455.447>
LayerCount: 2
Fore
SplineSet
63 694 m 1,0,-1
 634 694 l 1,1,-1
 634 619 l 1,2,-1
 220 113 l 1,3,-1
 647 113 l 1,4,-1
 647 0 l 1,5,-1
 49 0 l 1,6,-1
 49 76 l 1,7,-1
 455 581 l 1,8,-1
 63 581 l 1,9,-1
 63 694 l 1,0,-1
EndSplineSet
EndChar

StartChar: T
Encoding: 84 84 39
Width: 630
VWidth: 1023
Flags: HW
HStem: 0 21G<265.115 389.115> 581 113<27.2148 265.115 389.115 627.016>
VStem: 265 124<0 581>
LayerCount: 2
Fore
SplineSet
27 694 m 5,0,-1
 627 694 l 1,1,-1
 627 581 l 1,2,-1
 389 581 l 1,3,-1
 389 0 l 1,4,-1
 265 0 l 1,5,-1
 265 581 l 1,6,-1
 27 581 l 1,7,-1
 27 694 l 5,0,-1
EndSplineSet
EndChar

StartChar: I
Encoding: 73 73 40
Width: 303
VWidth: 1023
Flags: HW
HStem: 0 21G<90 213> 674 20G<90 213>
VStem: 90 123<0 694>
LayerCount: 2
Fore
SplineSet
90 694 m 1,0,-1
 213 694 l 1,1,-1
 213 0 l 1,2,-1
 90 0 l 1,3,-1
 90 694 l 1,0,-1
EndSplineSet
EndChar

StartChar: X
Encoding: 88 88 41
Width: 698
VWidth: 1023
Flags: HW
HStem: 0 21G<34.9922 199.297 539.887 709.191> 674 20G<64.9922 223.957 526.467 682.191>
LayerCount: 2
Fore
SplineSet
540 694 m 1,0,-1
 682 694 l 1,1,-1
 450 363 l 1,2,-1
 709 0 l 1,3,-1
 553 0 l 1,4,-1
 370 276 l 1,5,-1
 186 0 l 1,6,-1
 35 0 l 1,7,-1
 298 362 l 1,8,-1
 65 694 l 1,9,-1
 210 694 l 1,10,-1
 378 449 l 1,11,-1
 540 694 l 1,0,-1
EndSplineSet
EndChar

StartChar: Y
Encoding: 89 89 42
Width: 658
VWidth: 1023
Flags: HW
HStem: 0 21G<275.053 413.053> 674 20G<31.752 187.248 512.43 664.452>
VStem: 275 138<0 324>
LayerCount: 2
Fore
SplineSet
32 694 m 1,0,-1
 174 694 l 1,1,-1
 349 425 l 1,2,-1
 526 694 l 1,3,-1
 664 694 l 1,4,-1
 413 324 l 1,5,-1
 413 0 l 1,6,-1
 275 0 l 1,7,-1
 275 324 l 1,8,-1
 32 694 l 1,0,-1
EndSplineSet
EndChar

StartChar: K
Encoding: 75 75 43
Width: 691
VWidth: 1023
Flags: HW
HStem: 0 21G<92.0156 215.016 496.03 672.815> 674 20G<92.0156 215.016 481.528 655.815>
VStem: 92 123<0 336 376 694>
LayerCount: 2
Fore
SplineSet
215 376 m 1,0,-1
 499 694 l 1,1,-1
 656 694 l 1,2,-1
 341 362 l 1,3,-1
 673 0 l 1,4,-1
 514 0 l 1,5,-1
 215 336 l 1,6,-1
 215 0 l 1,7,-1
 92 0 l 1,8,-1
 92 694 l 1,9,-1
 215 694 l 1,10,-1
 215 376 l 1,0,-1
EndSplineSet
EndChar

StartChar: M
Encoding: 77 77 44
Width: 884
VWidth: 1023
Flags: HW
HStem: 0 21G<90 213 671.1 794.1> 674 20G<90 246.775 643.444 794.1>
VStem: 90 123<0 519> 671 123<0 519>
LayerCount: 2
Fore
SplineSet
90 694 m 1,0,-1
 236 694 l 1,1,-1
 443 295 l 1,2,-1
 654 694 l 1,3,-1
 794 694 l 1,4,-1
 794 0 l 1,5,-1
 671 0 l 1,6,-1
 671 519 l 1,7,-1
 494 199 l 1,8,-1
 389 199 l 1,9,-1
 213 519 l 1,10,-1
 213 0 l 1,11,-1
 90 0 l 1,12,-1
 90 694 l 1,0,-1
EndSplineSet
EndChar

StartChar: hyphen
Encoding: 45 45 45
Width: 553
VWidth: 1023
Flags: HW
HStem: 268 107<46.7998 506.8>
LayerCount: 2
Fore
SplineSet
47 375 m 1,0,-1
 507 375 l 1,1,-1
 507 268 l 1,2,-1
 47 268 l 1,3,-1
 47 375 l 1,0,-1
EndSplineSet
EndChar

StartChar: J
Encoding: 74 74 46
Width: 479
VWidth: 1023
Flags: HW
HStem: -8 113<52.0469 231.065> 9 108<53.6959 139.007> 674 20G<289.092 412.092>
VStem: 289 123<163.703 694>
LayerCount: 2
Fore
SplineSet
289 694 m 1,0,-1
 412 694 l 1,1,-1
 412 250 l 2,2,3
 412 201 412 201 403.5 162.5 c 128,-1,4
 395 124 395 124 370.5 81.5 c 128,-1,5
 346 39 346 39 291 15.5 c 128,-1,6
 236 -8 236 -8 169 -8 c 128,-1,7
 102 -8 102 -8 53 4 c 1,8,-1
 35 9 l 1,9,-1
 55 117 l 1,10,-1
 76 112 l 2,11,12
 105 105 105 105 143 105 c 128,-1,13
 181 105 181 105 210.5 116.5 c 128,-1,14
 240 128 240 128 254.5 143 c 128,-1,15
 269 158 269 158 278 181 c 0,16,17
 290 212 290 212 289 250 c 2,18,-1
 289 694 l 1,0,-1
EndSplineSet
EndChar

StartChar: R
Encoding: 82 82 47
Width: 693
VWidth: 1023
Flags: HW
HStem: 0 21G<92.0156 215.016 482.767 655.815> 269 113<215.016 320.315> 581 113<215.016 433.038>
VStem: 92 123<0 269 382 581> 472 128<420.441 544.004>
LayerCount: 2
Fore
SplineSet
600 495 m 0,0,1
 600 425 600 425 564.5 369.5 c 128,-1,2
 529 314 529 314 451 290 c 1,3,-1
 656 0 l 1,4,-1
 496 0 l 1,5,-1
 320 269 l 1,6,-1
 215 269 l 1,7,-1
 215 0 l 1,8,-1
 92 0 l 1,9,-1
 92 694 l 1,10,-1
 370 694 l 2,11,12
 600 694 600 694 600 495 c 0,0,1
215 581 m 1,13,-1
 215 382 l 1,14,-1
 317 382 l 2,15,16
 432 382 432 382 460 430 c 0,17,18
 473 451 473 451 472 484 c 0,19,20
 472 581 472 581 337 581 c 2,21,-1
 215 581 l 1,13,-1
EndSplineSet
EndChar

StartChar: D
Encoding: 68 68 48
Width: 756
VWidth: 0
Flags: HW
HStem: 0 113<217.608 443.567> 581 113<217.608 446.655>
VStem: 95 123<113 581> 572 123<238.84 455.43>
LayerCount: 2
Back
SplineSet
141.602 693.848 m 5,0,-1
 335.449 693.848 l 2,1,2
 337.345441642 693.848 337.345441642 693.848 342.110424265 693.889276405 c 0
 371.351825061 694.142578463 371.351825061 694.142578463 394.187348178 692.411723533 c 0
 417.022871296 690.680868604 417.022871296 690.680868604 465.880172286 683.17691932 c 0
 514.737473276 675.672970036 514.737473276 675.672970036 551.124117064 654.155348821 c 0
 587.510760852 632.637727606 587.510760852 632.637727606 625.819371279 599.23597875 c 0
 664.127981706 565.834229894 664.127981706 565.834229894 685.103490853 505.99472872 c 0
 706.079 446.155227546 706.079 446.155227546 706.079 367.926 c 0,3,4
 706.079 291.447383291 706.079 291.447383291 688.478308171 230.727158024 c 0
 670.877616342 170.006932756 670.877616342 170.006932756 645.812209002 132.0968169 c 0
 620.746801662 94.1867010446 620.746801662 94.1867010446 580.373573071 67.0305254957 c 0
 540.00034448 39.8743499468 540.00034448 39.8743499468 507.811574989 27.1589574634 c 0
 475.622805498 14.44356498 475.622805498 14.44356498 429.528665065 7.70198668316 c 0
 383.434524632 0.960408386352 383.434524632 0.960408386352 361.17401791 0.290286808333 c 0
 338.913511188 -0.379834769687 338.913511188 -0.379834769687 305.040504102 -0.0805932952938 c 0
 302.686003637 -0.0597931286976 302.686003637 -0.0597931286976 301.44031264 -0.0494276080658 c 0
 300.194621643 -0.039062087434 300.194621643 -0.039062087434 298.310092385 -0.0253730754987 c 0
 296.425563126 -0.0116840635635 296.425563126 -0.0116840635635 294.911795653 -0.00584203178171 c 0
 293.39802818 5.44875410638e-14 293.39802818 5.44875410638e-14 291.992 5.68434188608e-14 c 2,5,-1
 141.602 0 l 1,6,-1
 141.602 693.848 l 5,0,-1
224.609 620.605 m 5,7,-1
 224.609 73.2422 l 1,8,-1
 325.684 73.2422 l 2,9,10
 354.51765467 73.2422 354.51765467 73.2422 378.095269085 74.8953376829 c 0
 401.672883499 76.5484753659 401.672883499 76.5484753659 433.675121586 83.0894337456 c 0
 465.677359673 89.6303921254 465.677359673 89.6303921254 490.432878414 100.825468295 c 0
 515.188397155 112.020544465 515.188397155 112.020544465 541.086958321 133.01929497 c 0
 566.985519487 154.018045475 566.985519487 154.018045475 583.999409026 182.544235642 c 0
 601.013298566 211.070425809 601.013298566 211.070425809 611.888649283 254.31614395 c 0
 622.764 297.56186209 622.764 297.56186209 622.764 351.336 c 0,11,12
 622.764 382.049303478 622.764 382.049303478 617.705904113 411.479304422 c 0
 612.647808225 440.909305366 612.647808225 440.909305366 601.483720887 472.164070578 c 0
 590.319633549 503.41883579 590.319633549 503.41883579 569.906228187 529.368480348 c 0
 549.492822825 555.318124905 549.492822825 555.318124905 521.491906072 576.207885393 c 0
 493.49098932 597.097645881 493.49098932 597.097645881 451.868885594 608.85132294 c 0
 410.246781868 620.605 410.246781868 620.605 359.375 620.605 c 2,13,-1
 224.609 620.605 l 5,7,-1
EndSplineSet
Fore
SplineSet
331 581 m 2,0,-1
 218 581 l 1,1,-1
 218 113 l 1,2,-1
 298 113 l 2,3,4
 387 113 387 113 417.5 124 c 128,-1,5
 448 135 448 135 470 146 c 0,6,7
 514 169 514 169 543 223 c 128,-1,8
 572 277 572 277 572 351 c 0,9,10
 572 471 572 471 491 534 c 0,11,12
 447 568 447 568 391 577 c 0,13,14
 366 581 366 581 331 581 c 2,0,-1
328 694 m 2,15,16
 475 694 475 694 570 631 c 0,17,18
 620 598 620 598 655 538 c 0,19,20
 696 467 696 467 695 367 c 0,21,22
 695 215 695 215 617 118 c 0,23,24
 556 41 556 41 446 15 c 0,25,26
 387 0 387 0 268 0 c 2,27,-1
 95 0 l 1,28,-1
 95 694 l 1,29,-1
 328 694 l 2,15,16
EndSplineSet
EndChar

StartChar: P
Encoding: 80 80 49
Width: 645
VWidth: 1023
Flags: HW
HStem: 0 21G<92.0156 215.016> 268 112<215.016 426.107> 581 113<215.016 431.961>
VStem: 92 123<0 270 383 581> 477 126<425.702 542.68>
LayerCount: 2
Fore
SplineSet
92 694 m 1,0,-1
 328 694 l 2,1,2
 423 694 423 694 475 677 c 0,3,4
 535 657 535 657 565 621 c 0,5,6
 603 574 603 574 603 499 c 0,7,8
 603 343 603 343 470 295 c 0,9,10
 396 268 396 268 269 268 c 0,11,12
 251 268 251 268 215 270 c 1,13,-1
 215 0 l 1,14,-1
 92 0 l 1,15,-1
 92 694 l 1,0,-1
215 383 m 1,16,-1
 276 380 l 1,17,18
 396 380 396 380 437 406 c 0,19,20
 477 431 477 431 477 485 c 0,21,22
 477 570 477 570 358 579 c 0,23,24
 336 581 336 581 306 581 c 2,25,-1
 215 581 l 1,26,-1
 215 383 l 1,16,-1
EndSplineSet
EndChar

StartChar: B
Encoding: 66 66 50
Width: 680
VWidth: 1023
Flags: HW
HStem: 0 113<215.016 450.252> 320 78<215.016 387.193> 590 104<215.016 410.346>
VStem: 92 123<113 314 398 590> 445 136<443.934 558.378> 508 123<157.174 266.575>
LayerCount: 2
Fore
SplineSet
317 590 m 2,0,-1
 215 590 l 1,1,-1
 215 398 l 1,2,3
 217 398 217 398 234 398.5 c 128,-1,4
 251 399 251 399 266.5 399.5 c 128,-1,5
 282 400 282 400 309.5 402.5 c 128,-1,6
 337 405 337 405 352.5 408.5 c 128,-1,7
 368 412 368 412 388.5 420 c 128,-1,8
 409 428 409 428 419 439 c 0,9,10
 445 465 445 465 445 503 c 0,11,12
 445 567 445 567 373 584 c 0,13,14
 349 590 349 590 317 590 c 2,0,-1
324 320 m 1,15,-1
 215 314 l 1,16,-1
 215 113 l 1,17,-1
 313 113 l 2,18,19
 378 113 378 113 404.5 119 c 128,-1,20
 431 125 431 125 450 132.5 c 128,-1,21
 469 140 469 140 480 150 c 0,22,23
 508 174 508 174 508 212 c 1,24,25
 508 262 508 262 458.5 291 c 128,-1,26
 409 320 409 320 324 320 c 1,15,-1
92 694 m 1,27,-1
 342 694 l 2,28,29
 440 694 440 694 494 661 c 0,30,31
 547 629 547 629 565 589 c 0,32,33
 582 550 582 550 581.5 517 c 128,-1,34
 581 484 581 484 563.5 449.5 c 128,-1,35
 546 415 546 415 518 392 c 1,36,37
 599 359 599 359 624 273 c 0,38,39
 631 246 631 246 631 220.5 c 128,-1,40
 631 195 631 195 625 170 c 128,-1,41
 619 145 619 145 598.5 113.5 c 128,-1,42
 578 82 578 82 546 57.5 c 128,-1,43
 514 33 514 33 456.5 16.5 c 128,-1,44
 399 0 399 0 325 0 c 2,45,-1
 92 0 l 1,46,-1
 92 694 l 1,27,-1
EndSplineSet
EndChar

StartChar: U
Encoding: 85 85 51
Width: 748
VWidth: 1023
Flags: HW
HStem: -10 112<278.836 468.093> 674 20G<90 213 535.199 657.199>
VStem: 90 123<160.884 694> 535 123<163.255 694>
LayerCount: 2
Back
SplineSet
141.602 693.848 m 5,0,-1
 224.609 693.848 l 1,1,-1
 224.609 244.141 l 2,2,3
 224.609 202.273303175 224.609 202.273303175 231.50434245 172.675206732 c 0
 238.3996849 143.07711029 238.3996849 143.07711029 261.23 117.188 c 0,4,5
 309.888711165 62.0117 309.888711165 62.0117 405.273 62.0117 c 0,6,7
 439.302210654 62.0117 439.302210654 62.0117 468.406394611 69.6444523536 c 0
 497.510578568 77.2772047073 497.510578568 77.2772047073 519.969105389 91.7721288964 c 0
 542.42763221 106.267053085 542.42763221 106.267053085 557.870144611 127.874627354 c 0
 573.312657013 149.482201622 573.312657013 149.482201622 580.083 176.818 c 0,8,9
 585.938 200.457966851 585.938 200.457966851 585.938 244.141 c 2,10,-1
 585.938 693.848 l 1,11,-1
 668.945 693.848 l 1,12,-1
 668.945 302.734 l 2,13,14
 668.945 293.585583333 668.945 293.585583333 669.1405 281.647541667 c 0
 669.336 269.7095 669.336 269.7095 669.5315 257.757458333 c 0
 669.727 245.805416667 669.727 245.805416667 669.727 236.623 c 0,15,16
 669.727 214.215691142 669.727 214.215691142 668.687030842 197.366278125 c 0
 667.647061684 180.516865108 667.647061684 180.516865108 662.063505601 153.12649068 c 0
 656.479949518 125.736116252 656.479949518 125.736116252 646.605065827 105.483548096 c 0
 636.730182137 85.2309799393 636.730182137 85.2309799393 616.98717907 62.1497151697 c 0
 597.244176004 39.0684504 597.244176004 39.0684504 570.096698481 24.2960787079 c 0
 542.949220957 9.52370701572 542.949220957 9.52370701572 500.609091607 -0.365096492138 c 0
 458.268962257 -10.2539 458.268962257 -10.2539 405.273 -10.2539 c 0,17,18
 357.104919233 -10.2539 357.104919233 -10.2539 317.500613345 -2.30464333694 c 0
 277.896307457 5.64461332613 277.896307457 5.64461332613 251.763761655 19.8478016703 c 0
 225.631215854 34.0509900144 225.631215854 34.0509900144 206.514826308 49.5831307371 c 0
 187.398436762 65.1152714599 187.398436762 65.1152714599 175.928169063 84.4989535221 c 0
 164.457901364 103.882635584 164.457901364 103.882635584 158.741372604 117.693771478 c 0
 153.024843844 131.504907371 153.024843844 131.504907371 149.414 146.484 c 0,19,20
 144.486244458 166.92693574 144.486244458 166.92693574 142.652122229 188.811509834 c 0
 140.818 210.696083928 140.818 210.696083928 140.818 236.613 c 0,21,22
 140.818 247.640625 140.818 247.640625 141.21 269.700875 c 0
 141.602 291.761125 141.602 291.761125 141.602 302.734 c 2,23,-1
 141.602 693.848 l 5,0,-1
EndSplineSet
Fore
SplineSet
657 694 m 1,0,-1
 658 250 l 2,1,2
 658 164 658 164 632 112 c 0,3,4
 621 90 621 90 600 66 c 128,-1,5
 579 42 579 42 550 26 c 0,6,7
 483 -10 483 -10 374 -10 c 5,8,9
 210 -10 210 -10 145 63 c 0,10,11
 124 87 124 87 113.5 107 c 128,-1,12
 103 127 103 127 97 155 c 0,13,14
 90 192 90 192 90 237 c 2,15,-1
 90 694 l 1,16,-1
 213 694 l 1,17,-1
 213 254 l 2,18,19
 213 217 213 217 219 192.5 c 0,20,21
 224 168 224 168 244 147 c 0,22,23
 284 102 284 102 374 102 c 0,24,25
 436 102 436 102 476.5 126 c 128,-1,26
 517 150 517 150 529 195 c 0,27,28
 535 220 535 220 535 254 c 2,29,-1
 535 694 l 1,30,-1
 657 694 l 1,0,-1
EndSplineSet
EndChar

StartChar: Q
Encoding: 81 81 52
Width: 816
VWidth: 1023
Flags: HW
HStem: -7 112<325.677 516.958> 588 113<313.621 499.291>
VStem: 68 126<238.677 466.327> 624 128<217.347 456.017>
LayerCount: 2
Fore
SplineSet
608 53 m 1,0,1
 525 -7 525 -7 421 -7 c 128,-1,2
 317 -7 317 -7 240 33.5 c 128,-1,3
 163 74 163 74 115.5 155 c 128,-1,4
 68 236 68 236 68 344 c 0,5,6
 68 424 68 424 94.5 491.5 c 128,-1,7
 121 559 121 559 167 604.5 c 128,-1,8
 213 650 213 650 276 675.5 c 128,-1,9
 339 701 339 701 411 701 c 0,10,11
 562 701 562 701 657 603.5 c 128,-1,12
 752 506 752 506 752 346 c 0,13,14
 752 212 752 212 686 121 c 1,15,-1
 775 37 l 1,16,-1
 704 -36 l 1,17,-1
 608 53 l 1,0,1
450.5 583 m 128,-1,19
 427 588 427 588 396 588 c 128,-1,20
 365 588 365 588 329 574.5 c 128,-1,21
 293 561 293 561 262 534 c 128,-1,22
 231 507 231 507 212.5 460 c 128,-1,23
 194 413 194 413 194 353 c 0,24,25
 194 236 194 236 259.5 170.5 c 128,-1,26
 325 105 325 105 421 105 c 0,27,28
 480 105 480 105 525 131 c 1,29,-1
 379 263 l 1,30,-1
 456 338 l 1,31,-1
 597 206 l 1,32,33
 624 257 624 257 624 320.5 c 128,-1,34
 624 384 624 384 614 424 c 128,-1,35
 604 464 604 464 586.5 490.5 c 128,-1,36
 569 517 569 517 547.5 537 c 128,-1,37
 526 557 526 557 500 567.5 c 128,-1,18
 474 578 474 578 450.5 583 c 128,-1,19
EndSplineSet
EndChar

StartChar: W
Encoding: 87 87 53
Width: 1115
VWidth: 1023
Flags: HW
HStem: 0 21G<266.465 397.708 712.103 843.429> 674 20G<44.0645 180.068 513.662 628.158 964.447 1101.76>
LayerCount: 2
Fore
SplineSet
44 694 m 1,0,-1
 174 694 l 1,1,-1
 334 161 l 1,2,-1
 521 694 l 1,3,-1
 622 694 l 1,4,-1
 777 161 l 1,5,-1
 972 694 l 1,6,-1
 1102 694 l 1,7,-1
 836 0 l 1,8,-1
 718 0 l 1,9,-1
 567 531 l 1,10,-1
 391 0 l 1,11,-1
 273 0 l 1,12,-1
 44 694 l 1,0,-1
EndSplineSet
EndChar

StartChar: C
Encoding: 67 67 54
Width: 702
VWidth: 1023
Flags: HW
HStem: -10 116<357.873 593.01> 585 114<349.414 584.355>
VStem: 87 124<248.993 445.898>
LayerCount: 2
Fore
SplineSet
456 699 m 0,0,1
 553 699 553 699 651 660 c 2,2,-1
 669 653 l 1,3,-1
 631 547 l 1,4,-1
 612 554 l 1,5,6
 523 585 523 585 453 585 c 0,7,8
 344 585 344 585 277.5 515 c 128,-1,9
 211 445 211 445 211 346 c 0,10,11
 211 247 211 247 282 176.5 c 128,-1,12
 353 106 353 106 471 106 c 0,13,14
 539 106 539 106 621 135 c 1,15,-1
 639 141 l 1,16,-1
 679 43 l 1,17,-1
 661 36 l 1,18,19
 553 -10 553 -10 446 -10 c 0,20,21
 339 -10 339 -10 256 38 c 128,-1,22
 173 86 173 86 130 166.5 c 128,-1,23
 87 247 87 247 87 346 c 0,24,25
 87 499 87 499 188.5 599 c 128,-1,26
 290 699 290 699 456 699 c 0,0,1
EndSplineSet
EndChar

StartChar: S
Encoding: 83 83 55
Width: 657
VWidth: 1023
Flags: HW
HStem: -10 122<204.644 431.037> 558 113<481.914 557.307> 582 118<278.981 526.867>
VStem: 96 134<460.459 540.749> 478 132<150.841 238.8>
LayerCount: 2
Fore
SplineSet
394 700 m 0,0,1
 481 700 481 700 575 671 c 1,2,-1
 595 666 l 1,3,-1
 555 552 l 1,4,-1
 536 558 l 1,5,6
 454 582 454 582 388 582 c 128,-1,7
 322 582 322 582 276 559 c 128,-1,8
 230 536 230 536 230 499 c 0,9,10
 230 475 230 475 251 457 c 128,-1,11
 272 439 272 439 305.5 426.5 c 128,-1,12
 339 414 339 414 380 402 c 128,-1,13
 421 390 421 390 461.5 373.5 c 128,-1,14
 502 357 502 357 535.5 336 c 128,-1,15
 569 315 569 315 589 280 c 0,16,17
 609 245 609 245 610 209 c 0,18,19
 610 172 610 172 600 142 c 0,20,21
 590 113 590 113 567 85.5 c 128,-1,22
 544 58 544 58 511 37 c 0,23,24
 437 -10 437 -10 316 -10 c 0,25,26
 256 -10 256 -10 206 2.5 c 128,-1,27
 156 15 156 15 94 39 c 1,28,-1
 76 45 l 1,29,-1
 118 164 l 1,30,-1
 137 156 l 1,31,32
 256 112 256 112 324.5 112 c 128,-1,33
 393 112 393 112 435.5 135.5 c 128,-1,34
 478 159 478 159 478 198 c 0,35,36
 478 247 478 247 403 274 c 0,37,38
 369 287 369 287 328.5 298.5 c 128,-1,39
 288 310 288 310 247 325 c 128,-1,40
 206 340 206 340 172 360 c 128,-1,41
 138 380 138 380 117 414 c 128,-1,42
 96 448 96 448 96 493 c 0,43,44
 96 580 96 580 179.5 640 c 128,-1,45
 263 700 263 700 394 700 c 0,0,1
EndSplineSet
EndChar

StartChar: at
Encoding: 64 64 56
Width: 992
VWidth: 1023
Flags: HW
HStem: -229 110<366.19 590.004> -76 106<710.983 783.758> -30 103<434.277 584.433> 390 100<431.299 585.147> 584 119<387.001 659.525>
VStem: 49 122<86.8278 354.362> 254 115<139.488 323.618> 586 116<82.7344 382.024> 837 123<105.523 402.705>
LayerCount: 2
Fore
SplineSet
604 468 m 1,0,-1
 613 493 l 1,1,-1
 702 493 l 1,2,-1
 702 123 l 2,3,4
 702 59 702 59 714.5 44.5 c 128,-1,5
 727 30 727 30 739.5 30 c 128,-1,6
 752 30 752 30 761 34 c 128,-1,7
 770 38 770 38 780.5 47 c 128,-1,8
 791 56 791 56 801 73 c 128,-1,9
 811 90 811 90 819 112 c 0,10,11
 837 162 837 162 837 234.5 c 128,-1,12
 837 307 837 307 828.5 354 c 128,-1,13
 820 401 820 401 798 445 c 128,-1,14
 776 489 776 489 741 519 c 0,15,16
 664 584 664 584 518 584 c 1,17,18
 355 584 355 584 264 484 c 0,19,20
 171 382 171 382 171 214 c 0,21,22
 171 86 171 86 234 2 c 0,23,24
 325 -119 325 -119 478 -119 c 0,25,26
 549 -119 549 -119 611 -88 c 1,27,-1
 629 -80 l 1,28,-1
 678 -173 l 1,29,-1
 660 -182 l 1,30,31
 569 -229 569 -229 465 -229 c 0,32,33
 321 -229 321 -229 212 -156 c 0,34,35
 49 -45 49 -45 49 197 c 0,36,37
 49 271 49 271 62.5 339 c 128,-1,38
 76 407 76 407 110.5 475 c 128,-1,39
 145 543 145 543 198.5 592 c 128,-1,40
 252 641 252 641 339.5 672 c 128,-1,41
 427 703 427 703 520.5 703 c 128,-1,42
 614 703 614 703 675 689 c 128,-1,43
 736 675 736 675 779 651 c 128,-1,44
 822 627 822 627 855 592.5 c 128,-1,45
 888 558 888 558 907.5 520 c 128,-1,46
 927 482 927 482 939 436 c 0,47,48
 960 357 960 357 960 268 c 128,-1,49
 960 179 960 179 943.5 117 c 128,-1,50
 927 55 927 55 903 19.5 c 128,-1,51
 879 -16 879 -16 847 -38 c 0,52,53
 794 -76 794 -76 735 -76 c 0,54,55
 677 -76 677 -76 637 -40 c 0,56,57
 618 -23 618 -23 606 0 c 1,58,59
 546 -30 546 -30 483 -30 c 0,60,61
 383 -30 383 -30 318.5 38.5 c 128,-1,62
 254 107 254 107 254 223 c 128,-1,63
 254 339 254 339 321 414.5 c 128,-1,64
 388 490 388 490 496 490 c 0,65,66
 551 490 551 490 604 468 c 1,0,-1
507 390 m 0,67,68
 445 390 445 390 407 348.5 c 128,-1,69
 369 307 369 307 369 232 c 0,70,71
 369 181 369 181 388 145 c 0,72,73
 425 73 425 73 509 73 c 0,74,75
 549 73 549 73 586 91 c 1,76,-1
 586 375 l 1,77,78
 547 390 547 390 507 390 c 0,67,68
EndSplineSet
EndChar

StartChar: question
Encoding: 63 63 57
Width: 486
VWidth: 1023
Flags: HW
HStem: -20 138<125.561 263.561> 612 110<75.9303 282.192>
VStem: 126 138<-20 118> 133 123<171 269.925> 321 121<461.034 575.502>
LayerCount: 2
Fore
SplineSet
126 118 m 1,0,-1
 264 118 l 1,1,-1
 264 -20 l 1,2,-1
 126 -20 l 1,3,-1
 126 118 l 1,0,-1
442 539 m 0,4,5
 442 496 442 496 434 465.5 c 128,-1,6
 426 435 426 435 408.5 411 c 128,-1,7
 391 387 391 387 378 374 c 128,-1,8
 365 361 365 361 342 341.5 c 128,-1,9
 319 322 319 322 308 311 c 128,-1,10
 297 300 297 300 282 282 c 0,11,12
 255 247 255 247 256 191 c 2,13,-1
 256 171 l 1,14,-1
 133 171 l 1,15,-1
 133 191 l 2,16,17
 133 302 133 302 199 366 c 0,18,19
 232 398 232 398 250 412 c 128,-1,20
 268 426 268 426 280 438 c 128,-1,21
 292 450 292 450 301 462 c 0,22,23
 321 488 321 488 321 522 c 1,24,25
 321 552 321 552 297 579 c 0,26,27
 268 612 268 612 198 612 c 128,-1,28
 128 612 128 612 76 590 c 1,29,-1
 57 583 l 1,30,-1
 17 678 l 1,31,-1
 34 687 l 1,32,33
 104 722 104 722 201 722 c 0,34,35
 312 722 312 722 376 676 c 0,36,37
 442 628 442 628 442 539 c 0,4,5
EndSplineSet
EndChar

StartChar: eight
Encoding: 56 56 58
Width: 649
VWidth: 1023
Flags: HW
HStem: -10 114<232.886 423.294> 593 110<244.775 408.225>
VStem: 40 126<160.431 278.382> 79 128<471.105 558.631> 444 126<467.352 559.72> 482 127<156.571 277.446>
LayerCount: 2
Fore
SplineSet
207 520.5 m 128,-1,1
 207 496 207 496 219.5 479.5 c 128,-1,2
 232 463 232 463 257 451 c 0,3,4
 295 433 295 433 348 418 c 1,5,6
 401 448 401 448 422.5 467.5 c 128,-1,7
 444 487 444 487 444 511 c 0,8,9
 444 550 444 550 408.5 571.5 c 128,-1,10
 373 593 373 593 322 593 c 128,-1,11
 271 593 271 593 239 569 c 128,-1,0
 207 545 207 545 207 520.5 c 128,-1,1
441.5 136 m 128,-1,13
 482 168 482 168 482 218.5 c 128,-1,14
 482 269 482 269 436 301 c 128,-1,15
 390 333 390 333 308 354 c 1,16,17
 242 336 242 336 204 298 c 128,-1,18
 166 260 166 260 166 224 c 128,-1,19
 166 188 166 188 185 162.5 c 128,-1,20
 204 137 204 137 243 120.5 c 128,-1,21
 282 104 282 104 341.5 104 c 128,-1,12
 401 104 401 104 441.5 136 c 128,-1,13
144 652.5 m 128,-1,23
 209 703 209 703 327.5 703 c 128,-1,24
 446 703 446 703 508 655.5 c 128,-1,25
 570 608 570 608 570 524 c 0,26,27
 570 452 570 452 489 388 c 1,28,29
 609 323 609 323 609 208 c 0,30,31
 609 120 609 120 534 55 c 128,-1,32
 459 -10 459 -10 330.5 -10 c 128,-1,33
 202 -10 202 -10 121 48.5 c 128,-1,34
 40 107 40 107 40 199 c 0,35,36
 40 253 40 253 72.5 302.5 c 128,-1,37
 105 352 105 352 159 385 c 1,38,39
 115 415 115 415 97 453.5 c 128,-1,40
 79 492 79 492 79 526 c 0,41,22
 79 602 79 602 144 652.5 c 128,-1,23
EndSplineSet
EndChar

StartChar: nine
Encoding: 57 57 59
Width: 668
VWidth: 1023
Flags: HW
HStem: -7 112<115.813 339.617> 236 108<253.242 421.689> 595 109<253.933 408.999>
VStem: 60 121<405.369 525.662> 487 121<242.525 519.154>
LayerCount: 2
Fore
SplineSet
343 704 m 0,0,1
 422 704 422 704 484 670 c 0,2,3
 520 650 520 650 547 618 c 128,-1,4
 574 586 574 586 591 531 c 128,-1,5
 608 476 608 476 608 404 c 0,6,7
 608 -7 608 -7 189 -7 c 0,8,9
 158 -7 158 -7 126 -4 c 2,10,-1
 106 -2 l 1,11,-1
 116 110 l 1,12,-1
 136 108 l 2,13,14
 162 105 162 105 212 105 c 128,-1,15
 262 105 262 105 315 118.5 c 128,-1,16
 368 132 368 132 397.5 157.5 c 128,-1,17
 427 183 427 183 441.5 209.5 c 128,-1,18
 456 236 456 236 465 272 c 1,19,20
 399 236 399 236 316 236 c 0,21,22
 203 236 203 236 131.5 298.5 c 128,-1,23
 60 361 60 361 60 461 c 128,-1,24
 60 561 60 561 139 632.5 c 128,-1,25
 218 704 218 704 343 704 c 0,0,1
440 552.5 m 128,-1,27
 393 595 393 595 332.5 595 c 128,-1,28
 272 595 272 595 226.5 555 c 128,-1,29
 181 515 181 515 181 465 c 128,-1,30
 181 415 181 415 227.5 379.5 c 128,-1,31
 274 344 274 344 336.5 344 c 128,-1,32
 399 344 399 344 443 378.5 c 128,-1,33
 487 413 487 413 487 461.5 c 128,-1,26
 487 510 487 510 440 552.5 c 128,-1,27
EndSplineSet
EndChar

StartChar: six
Encoding: 54 54 60
Width: 667
VWidth: 1023
Flags: HW
HStem: -12 108<258.381 412.346> 367 108<244.187 417.006> 586 113<336.623 552>
VStem: 60 121<171.887 304.497> 487 120<166.829 305.096>
LayerCount: 2
Fore
SplineSet
478 699 m 0,0,1
 510 699 510 699 542 696 c 2,2,-1
 561 694 l 1,3,-1
 552 582 l 1,4,-1
 532 583 l 1,5,6
 507 586 507 586 481 586 c 0,7,8
 250 586 250 586 203 438 c 1,9,10
 269 475 269 475 353 475 c 0,11,12
 468 475 468 475 537.5 411 c 128,-1,13
 607 347 607 347 607 242 c 128,-1,14
 607 137 607 137 530.5 62.5 c 128,-1,15
 454 -12 454 -12 326 -12 c 0,16,17
 192 -12 192 -12 120 72 c 0,18,19
 94 104 94 104 77 158.5 c 128,-1,20
 60 213 60 213 60 285 c 0,21,22
 60 699 60 699 478 699 c 0,0,1
441 331 m 128,-1,24
 395 367 395 367 331.5 367 c 128,-1,25
 268 367 268 367 224.5 332 c 128,-1,26
 181 297 181 297 181 241.5 c 128,-1,27
 181 186 181 186 226.5 141 c 128,-1,28
 272 96 272 96 335 96 c 128,-1,29
 398 96 398 96 442.5 137.5 c 128,-1,30
 487 179 487 179 487 237 c 128,-1,23
 487 295 487 295 441 331 c 128,-1,24
EndSplineSet
EndChar

StartChar: seven
Encoding: 55 55 61
Width: 677
VWidth: 0
Flags: HW
HStem: 0 21G<124 276.981> 576 118<50 477>
LayerCount: 2
Fore
SplineSet
50 694 m 1,0,-1
 637 694 l 1,1,-1
 637 621 l 1,2,-1
 265 0 l 1,3,-1
 124 0 l 1,4,-1
 477 576 l 1,5,-1
 50 576 l 1,6,-1
 50 694 l 1,0,-1
EndSplineSet
EndChar

StartChar: five
Encoding: 53 53 62
Width: 666
VWidth: 1023
Flags: HW
HStem: -10 115<79.8125 404.459> 12 113<82.5133 265.142> 343 115<220.574 404.521> 581 113<218.999 593>
VStem: 95 124<454 581> 488 128<166.877 279.804>
LayerCount: 2
Fore
SplineSet
95 694 m 1,0,-1
 593 694 l 1,1,-1
 593 581 l 1,2,-1
 219 581 l 1,3,-1
 219 454 l 1,4,5
 269 458 269 458 325 458 c 128,-1,6
 381 458 381 458 436.5 443 c 128,-1,7
 492 428 492 428 525 404.5 c 0,8,9
 558 382 558 382 580 350 c 0,10,11
 616 297 616 297 616 231 c 0,12,13
 616 162 616 162 576 105 c 0,14,15
 494 -10 494 -10 275 -10 c 0,16,17
 173 -10 173 -10 80 8 c 2,18,-1
 60 12 l 1,19,-1
 84 125 l 1,20,-1
 104 121 l 2,21,22
 182 105 182 105 268 105 c 0,23,24
 389 105 389 105 438.5 141.5 c 128,-1,25
 488 178 488 178 488 223 c 128,-1,26
 488 268 488 268 439 305.5 c 128,-1,27
 390 343 390 343 278 343 c 0,28,29
 210 343 210 343 117 332 c 1,30,-1
 95 329 l 1,31,-1
 95 694 l 1,0,-1
EndSplineSet
EndChar

StartChar: two
Encoding: 50 50 63
Width: 666
VWidth: 0
Flags: HW
HStem: 0 113<211 576> 587 112<141.226 378.085>
VStem: 437 126<449.13 538.233>
LayerCount: 2
Back
SplineSet
96.6797 644.043 m 5,0,1
 145.695035554 668.385824582 145.695035554 668.385824582 201.640245984 683.567912291 c 0
 257.585456413 698.75 257.585456413 698.75 313.556 698.75 c 0,2,3
 415.454848928 698.75 415.454848928 698.75 477.783424464 646.954730793 c 0
 540.112 595.159461586 540.112 595.159461586 540.112 520.049 c 0,4,5
 540.112 484.510087725 540.112 484.510087725 526.190000752 453.036641147 c 0
 512.268001504 421.563194569 512.268001504 421.563194569 488.635232484 395.899483635 c 0
 465.002463465 370.235772701 465.002463465 370.235772701 435.741073638 345.333740855 c 0
 406.479683811 320.431709009 406.479683811 320.431709009 373.756212076 292.522373431 c 0
 341.032740341 264.613037852 341.032740341 264.613037852 311.110338944 234.529144937 c 0
 281.187937547 204.445252021 281.187937547 204.445252021 254.052142105 162.537015996 c 0
 226.916346663 120.628779971 226.916346663 120.628779971 210.875 73.2422 c 1,6,-1
 552.734 73.2422 l 1,7,-1
 552.734 0 l 1,8,-1
 109.863 0 l 1,9,-1
 109.863 45.4102 l 1,10,11
 131.095232118 111.799578561 131.095232118 111.799578561 166.786659613 170.366443554 c 0
 202.478087108 228.933308547 202.478087108 228.933308547 241.703540387 269.838118046 c 0
 280.928993665 310.742927544 280.928993665 310.742927544 317.162739613 342.127297954 c 0
 353.396485561 373.511668364 353.396485561 373.511668364 385.845860387 400.267900446 c 0
 418.295235212 427.024132527 418.295235212 427.024132527 430.302 442.562 c 0,12,13
 453.467 472.53891838 453.467 472.53891838 453.467 505.4 c 0,14,15
 453.467 537.813293145 453.467 537.813293145 432.678406261 565.834239953 c 0
 411.889812523 593.855186761 411.889812523 593.855186761 375.891927072 610.45809338 c 0
 339.894041621 627.061 339.894041621 627.061 297.678 627.061 c 0,16,17
 258.125846405 627.061 258.125846405 627.061 194.74 607.529 c 2,18,-1
 115.723 582.031 l 1,19,-1
 96.6797 644.043 l 5,0,1
EndSplineSet
Fore
SplineSet
53 64 m 1,0,1
 75 130 75 130 114.5 186.5 c 128,-1,2
 154 243 154 243 195.5 279 c 128,-1,3
 237 315 237 315 281 347.5 c 128,-1,4
 325 380 325 380 359 402 c 0,5,6
 437 451 437 451 437 490.5 c 128,-1,7
 437 530 437 530 391.5 558.5 c 128,-1,8
 346 587 346 587 273 587 c 128,-1,9
 200 587 200 587 86 548 c 1,10,-1
 67 542 l 1,11,-1
 30 642 l 1,12,-1
 47 650 l 1,13,14
 161 699 161 699 290.5 699 c 128,-1,15
 420 699 420 699 491.5 646 c 128,-1,16
 563 593 563 593 563 513 c 0,17,18
 563 436 563 436 495 378 c 0,19,20
 440 332 440 332 348 265 c 0,21,22
 310 238 310 238 272.5 197.5 c 128,-1,23
 235 157 235 157 211 113 c 1,24,-1
 576 113 l 1,25,-1
 576 0 l 1,26,-1
 53 0 l 1,27,-1
 53 64 l 1,0,1
EndSplineSet
EndChar

StartChar: three
Encoding: 51 51 64
Width: 660
VWidth: 1023
Flags: HW
HStem: -22 117<135.565 390.904> 314 111<209 371.798> 587 115<175.419 394.959>
VStem: 430 130<470.228 555.221> 465 125<154.173 256.482>
LayerCount: 2
Fore
SplineSet
85 650 m 2,0,1
 189 702 189 702 305 702 c 128,-1,2
 421 702 421 702 490.5 653 c 128,-1,3
 560 604 560 604 560 527 c 0,4,5
 560 432 560 432 483 381 c 1,6,7
 590 334 590 334 590 222.5 c 128,-1,8
 590 111 590 111 504 44.5 c 128,-1,9
 418 -22 418 -22 275 -22 c 0,10,11
 168 -22 168 -22 73 17 c 1,12,-1
 55 24 l 1,13,-1
 91 127 l 1,14,-1
 109 123 l 1,15,16
 217 95 217 95 286 95 c 128,-1,17
 355 95 355 95 410 126 c 128,-1,18
 465 157 465 157 465 205 c 0,19,20
 466 244 466 244 422 276 c 0,21,22
 370 315 370 315 232 314 c 2,23,-1
 209 314 l 1,24,-1
 209 425 l 1,25,-1
 232 425 l 2,26,27
 382 425 382 425 421 485 c 0,28,29
 430 499 430 499 430 514 c 0,30,31
 430 546 430 546 393.5 566.5 c 128,-1,32
 357 587 357 587 288 587 c 128,-1,33
 219 587 219 587 130 548 c 1,34,-1
 111 540 l 1,35,-1
 69 642 l 1,36,-1
 85 650 l 2,0,1
EndSplineSet
EndChar

StartChar: one
Encoding: 49 49 65
Width: 594
VWidth: 0
Flags: HW
HStem: 0 113<77 252 393 561> 674 20G<196.496 393>
VStem: 252 141<113 573>
LayerCount: 2
Fore
SplineSet
253 694 m 1,0,-1
 393 694 l 1,1,-1
 393 113 l 1,2,-1
 561 113 l 1,3,-1
 561 0 l 1,4,-1
 77 0 l 1,5,-1
 77 113 l 1,6,-1
 252 113 l 1,7,-1
 252 573 l 1,8,-1
 121 530 l 1,9,-1
 74 630 l 1,10,-1
 253 694 l 1,0,-1
EndSplineSet
EndChar

StartChar: zero
Encoding: 48 48 66
Width: 727
VWidth: 1023
Flags: HW
HStem: -10 114<286.779 440.64> 588 115<284.672 441.919>
VStem: 60 123<227.02 470.272> 544 123<225.789 469.377>
LayerCount: 2
Fore
SplineSet
363 588 m 128,-1,1
 333 588 333 588 304 576.5 c 128,-1,2
 275 565 275 565 246.5 540 c 128,-1,3
 218 515 218 515 200.5 467 c 128,-1,4
 183 419 183 419 183 352 c 128,-1,5
 183 285 183 285 200.5 233.5 c 128,-1,6
 218 182 218 182 246.5 155.5 c 128,-1,7
 275 129 275 129 304.5 116.5 c 128,-1,8
 334 104 334 104 364 104 c 128,-1,9
 394 104 394 104 423 116.5 c 128,-1,10
 452 129 452 129 480.5 155 c 128,-1,11
 509 181 509 181 526.5 232.5 c 128,-1,12
 544 284 544 284 544 350.5 c 128,-1,13
 544 417 544 417 526.5 465.5 c 128,-1,14
 509 514 509 514 480.5 539.5 c 128,-1,15
 452 565 452 565 422.5 576.5 c 128,-1,0
 393 588 393 588 363 588 c 128,-1,1
363 703 m 128,-1,17
 404 703 404 703 444 693 c 128,-1,18
 484 683 484 683 525.5 657.5 c 128,-1,19
 567 632 567 632 597.5 594 c 128,-1,20
 628 556 628 556 647.5 494 c 128,-1,21
 667 432 667 432 667 343 c 128,-1,22
 667 254 667 254 638.5 179.5 c 0,23,24
 610 106 610 106 563 66 c 0,25,26
 413 -10 413 -10 370 -11 c 0,27,28
 366 -11 366 -11 364 -10 c 1,29,30
 274 -10 274 -10 201 38 c 0,31,32
 160 65 160 65 129.5 105 c 128,-1,33
 99 145 99 145 79.5 209.5 c 128,-1,34
 60 274 60 274 60 353 c 128,-1,35
 60 432 60 432 79.5 494 c 128,-1,36
 99 556 99 556 129.5 594 c 128,-1,37
 160 632 160 632 201 657.5 c 128,-1,38
 242 683 242 683 282 693 c 128,-1,16
 322 703 322 703 363 703 c 128,-1,17
EndSplineSet
EndChar

StartChar: four
Encoding: 52 52 67
Width: 699
VWidth: 0
Flags: HW
HStem: 0 21G<396 516> 148 113<193.999 381 516 637> 674 20G<336.78 516>
VStem: 381 135<261 542> 396 120<0 148>
LayerCount: 2
Fore
SplineSet
350 694 m 1,0,-1
 516 694 l 1,1,-1
 516 261 l 1,2,-1
 637 261 l 1,3,-1
 637 148 l 1,4,-1
 516 148 l 1,5,-1
 516 0 l 1,6,-1
 396 0 l 1,7,-1
 396 148 l 1,8,-1
 40 148 l 1,9,-1
 40 225 l 1,10,-1
 350 694 l 1,0,-1
381 261 m 1,11,-1
 381 542 l 1,12,-1
 194 261 l 1,13,-1
 381 261 l 1,11,-1
EndSplineSet
EndChar

StartChar: period
Encoding: 46 46 68
Width: 239
VWidth: 1023
Flags: HW
HStem: -20 143<48.96 190.96>
VStem: 49 142<-20 123>
LayerCount: 2
Fore
SplineSet
49 123 m 1,0,-1
 191 123 l 1,1,-1
 191 -20 l 1,2,-1
 49 -20 l 1,3,-1
 49 123 l 1,0,-1
EndSplineSet
EndChar

StartChar: comma
Encoding: 44 44 69
Width: 262
VWidth: 1023
Flags: HW
HStem: -127 230<86.5195 124.52>
VStem: -6 224
LayerCount: 2
Fore
SplineSet
87 103 m 1,0,-1
 218 103 l 1,1,-1
 125 -127 l 1,2,-1
 -6 -127 l 1,3,-1
 87 103 l 1,0,-1
EndSplineSet
EndChar

StartChar: bracketleft
Encoding: 91 91 70
Width: 350
VWidth: 1023
Flags: HW
HStem: -220 113<193.439 337.439> 645 113<193.439 337.439>
VStem: 73 264<-220 -107 645 758> 73 120<-107 645>
LayerCount: 2
Fore
SplineSet
73 758 m 1,0,-1
 337 758 l 1,1,-1
 337 645 l 1,2,-1
 193 645 l 1,3,-1
 193 -107 l 1,4,-1
 337 -107 l 1,5,-1
 337 -220 l 1,6,-1
 73 -220 l 1,7,-1
 73 758 l 1,0,-1
EndSplineSet
EndChar

StartChar: bracketright
Encoding: 93 93 71
Width: 346
VWidth: 1023
Flags: HW
HStem: -220 113<13.6797 157.68> 645 113<13.6797 157.68>
VStem: 14 264<-220 -107 645 758> 158 120<-107 645>
LayerCount: 2
Fore
SplineSet
14 758 m 5,0,-1
 278 758 l 1,1,-1
 278 -220 l 1,2,-1
 14 -220 l 1,3,-1
 14 -107 l 1,4,-1
 158 -107 l 1,5,-1
 158 645 l 1,6,-1
 14 645 l 1,7,-1
 14 758 l 5,0,-1
EndSplineSet
EndChar

StartChar: parenleft
Encoding: 40 40 72
Width: 334
VWidth: 1023
Flags: HW
VStem: 63 126<111.171 449.732>
LayerCount: 2
Fore
SplineSet
227 782 m 1,0,-1
 327 730 l 1,1,-1
 316 712 l 1,2,3
 189 500 189 500 189 281 c 0,4,5
 189 62 189 62 316 -148 c 1,6,-1
 327 -165 l 1,7,-1
 230 -227 l 1,8,-1
 219 -209 l 2,9,10
 180 -144 180 -144 148 -76.5 c 128,-1,11
 116 -9 116 -9 89.5 90.5 c 128,-1,12
 63 190 63 190 63 281 c 0,13,14
 63 510 63 510 218 766 c 1,15,-1
 227 782 l 1,0,-1
EndSplineSet
EndChar

StartChar: parenright
Encoding: 41 41 73
Width: 334
VWidth: 1023
Flags: HW
VStem: 146 126<110.359 449.849>
LayerCount: 2
Fore
SplineSet
272 281 m 0,0,1
 272 189 272 189 244.5 88.5 c 128,-1,2
 217 -12 217 -12 185.5 -79 c 128,-1,3
 154 -146 154 -146 116 -209 c 2,4,-1
 105 -227 l 1,5,-1
 9 -165 l 1,6,-1
 19 -148 l 1,7,8
 74 -58 74 -58 110 52 c 128,-1,9
 146 162 146 162 146 280 c 0,10,11
 146 499 146 499 19 712 c 1,12,-1
 8 730 l 1,13,-1
 108 782 l 1,14,-1
 118 766 l 1,15,16
 272 512 272 512 272 281 c 0,0,1
EndSplineSet
EndChar

StartChar: slash
Encoding: 47 47 74
Width: 361
VWidth: 1023
Flags: HW
LayerCount: 2
Fore
SplineSet
249 714 m 1,0,-1
 375 714 l 1,1,-1
 119 -64 l 1,2,-1
 -6 -64 l 1,3,-1
 249 714 l 1,0,-1
EndSplineSet
EndChar

StartChar: backslash
Encoding: 92 92 75
Width: 361
VWidth: 1023
Flags: HW
LayerCount: 2
Fore
SplineSet
-13 714 m 1,0,-1
 112 714 l 1,1,-1
 368 -64 l 1,2,-1
 242 -64 l 1,3,-1
 -13 714 l 1,0,-1
EndSplineSet
EndChar

StartChar: plus
Encoding: 43 43 76
Width: 659
VWidth: 1023
Flags: HW
HStem: 268 107<29.5195 274.52 386.52 631.52>
VStem: 275 112<21 268 375 622>
LayerCount: 2
Fore
SplineSet
275 622 m 1,0,-1
 387 622 l 1,1,-1
 387 375 l 1,2,-1
 632 375 l 1,3,-1
 632 268 l 1,4,-1
 387 268 l 1,5,-1
 387 21 l 1,6,-1
 275 21 l 1,7,-1
 275 268 l 1,8,-1
 30 268 l 1,9,-1
 30 375 l 1,10,-1
 275 375 l 1,11,-1
 275 622 l 1,0,-1
EndSplineSet
EndChar

StartChar: asterisk
Encoding: 42 42 77
Width: 549
VWidth: 1023
Flags: HW
LayerCount: 2
Fore
SplineSet
212 714 m 1,0,-1
 337 714 l 1,1,-1
 330 577 l 1,2,-1
 444 652 l 1,3,-1
 507 543 l 1,4,-1
 385 482 l 1,5,-1
 507 420 l 1,6,-1
 444 311 l 1,7,-1
 330 386 l 1,8,-1
 337 250 l 1,9,-1
 212 250 l 1,10,-1
 220 386 l 1,11,-1
 106 311 l 1,12,-1
 43 420 l 1,13,-1
 166 482 l 1,14,-1
 43 543 l 1,15,-1
 106 652 l 1,16,-1
 220 577 l 1,17,-1
 212 714 l 1,0,-1
EndSplineSet
EndChar

StartChar: numbersign
Encoding: 35 35 78
Width: 682
VWidth: 1023
Flags: HW
HStem: 165 113<2.43945 156.439 274.439 409.439 527.439 682.439> 410 113<1.43945 156.439 274.439 409.439 527.439 682.439>
VStem: 156 118<-35 165 278 410 523 714> 409 118<-35 165 278 410 523 714>
LayerCount: 2
Fore
SplineSet
156 714 m 1,0,-1
 274 714 l 1,1,-1
 274 523 l 1,2,-1
 409 523 l 1,3,-1
 409 714 l 1,4,-1
 527 714 l 1,5,-1
 527 523 l 1,6,-1
 682 523 l 1,7,-1
 682 410 l 1,8,-1
 527 410 l 1,9,-1
 527 278 l 1,10,-1
 682 278 l 1,11,-1
 682 165 l 1,12,-1
 527 165 l 1,13,-1
 527 -35 l 1,14,-1
 409 -35 l 1,15,-1
 409 165 l 1,16,-1
 274 165 l 1,17,-1
 274 -35 l 1,18,-1
 156 -35 l 1,19,-1
 156 165 l 1,20,-1
 2 165 l 1,21,-1
 2 278 l 1,22,-1
 156 278 l 1,23,-1
 156 410 l 1,24,-1
 1 410 l 1,25,-1
 1 523 l 1,26,-1
 156 523 l 1,27,-1
 156 714 l 1,0,-1
274 410 m 1,28,-1
 274 278 l 1,29,-1
 409 278 l 1,30,-1
 409 410 l 1,31,-1
 274 410 l 1,28,-1
EndSplineSet
EndChar

StartChar: dollar
Encoding: 36 36 79
Width: 607
VWidth: 1023
Flags: HW
HStem: 104 97<160.639 253.92 374.92 392.83> 503 95<377.476 487.515> 520 97<374.92 484.639>
VStem: 97 127<452.027 500.582> 254 121<-32 104 617 738> 410 129<219.386 278.766>
LayerCount: 2
Fore
SplineSet
254.5 505.5 m 128,-1,1
 224 491 224 491 224 475 c 128,-1,2
 224 459 224 459 247.5 447 c 128,-1,3
 271 435 271 435 306 427 c 128,-1,4
 341 419 341 419 381.5 405 c 128,-1,5
 422 391 422 391 457 375 c 128,-1,6
 492 359 492 359 515.5 330.5 c 128,-1,7
 539 302 539 302 539 272 c 128,-1,8
 539 242 539 242 531.5 220 c 128,-1,9
 524 198 524 198 507 175 c 0,10,11
 470 125 470 125 375 109 c 1,12,-1
 375 -32 l 1,13,-1
 254 -32 l 1,14,-1
 254 104 l 1,15,16
 182 107 182 107 98 139 c 2,17,-1
 80 146 l 1,18,-1
 116 239 l 1,19,-1
 136 232 l 1,20,21
 215 201 215 201 265.5 201 c 128,-1,22
 316 201 316 201 341.5 204.5 c 128,-1,23
 367 208 367 208 382 215 c 0,24,25
 410 228 410 228 410 256 c 1,26,27
 408 283 408 283 327 301 c 0,28,29
 246 318 246 318 177 349 c 0,30,31
 143 365 143 365 120 394.5 c 128,-1,32
 97 424 97 424 97 453.5 c 128,-1,33
 97 483 97 483 104.5 503.5 c 128,-1,34
 112 524 112 524 129 545 c 0,35,36
 166 591 166 591 254 608 c 1,37,-1
 254 738 l 1,38,-1
 375 738 l 1,39,-1
 375 617 l 1,40,41
 434 616 434 616 498 598 c 1,42,-1
 518 592 l 1,43,-1
 485 499 l 1,44,-1
 467 503 l 1,45,46
 399 520 399 520 342 520 c 128,-1,0
 285 520 285 520 254.5 505.5 c 128,-1,1
EndSplineSet
EndChar

StartChar: semicolon
Encoding: 59 59 80
Width: 262
VWidth: 1023
Flags: HW
HStem: 362 143<70.5195 212.52>
VStem: 71 142<362 505>
LayerCount: 2
Fore
SplineSet
87 103 m 1,0,-1
 218 103 l 1,1,-1
 125 -127 l 1,2,-1
 -6 -127 l 1,3,-1
 87 103 l 1,0,-1
71 505 m 1,4,-1
 213 505 l 1,5,-1
 213 362 l 1,6,-1
 71 362 l 1,7,-1
 71 505 l 1,4,-1
EndSplineSet
EndChar

StartChar: colon
Encoding: 58 58 81
Width: 239
VWidth: 1023
Flags: HW
HStem: -20 143<48.96 190.96> 362 143<48.96 190.96>
VStem: 49 142<-20 123 362 505>
LayerCount: 2
Fore
SplineSet
49 123 m 1,0,-1
 191 123 l 1,1,-1
 191 -20 l 1,2,-1
 49 -20 l 1,3,-1
 49 123 l 1,0,-1
49 505 m 1,4,-1
 191 505 l 1,5,-1
 191 362 l 1,6,-1
 49 362 l 1,7,-1
 49 505 l 1,4,-1
EndSplineSet
EndChar

StartChar: equal
Encoding: 61 61 82
Width: 634
VWidth: 1023
Flags: HW
HStem: 151 114<62.6396 571.64> 373 113<62.6396 571.64>
LayerCount: 2
Fore
SplineSet
63 265 m 1,0,-1
 572 265 l 1,1,-1
 572 151 l 1,2,-1
 63 151 l 1,3,-1
 63 265 l 1,0,-1
63 486 m 1,4,-1
 572 486 l 1,5,-1
 572 373 l 1,6,-1
 63 373 l 1,7,-1
 63 486 l 1,4,-1
EndSplineSet
EndChar

StartChar: quotedbl
Encoding: 34 34 83
Width: 368
VWidth: 1023
Flags: HW
HStem: 509 249<24.4805 154.48 214.48 344.48>
VStem: 24 130<509 758> 214 130<509 758>
LayerCount: 2
Fore
SplineSet
214 758 m 1,0,-1
 344 758 l 1,1,-1
 344 509 l 1,2,-1
 214 509 l 1,3,-1
 214 758 l 1,0,-1
24 758 m 1,4,-1
 154 758 l 1,5,-1
 154 509 l 1,6,-1
 24 509 l 1,7,-1
 24 758 l 1,4,-1
EndSplineSet
EndChar

StartChar: quotesingle
Encoding: 39 39 84
Width: 177
VWidth: 1023
Flags: HW
HStem: 509 249<24.4805 154.48>
VStem: 24 130<509 758>
LayerCount: 2
Fore
SplineSet
24 758 m 1,0,-1
 154 758 l 1,1,-1
 154 509 l 1,2,-1
 24 509 l 1,3,-1
 24 758 l 1,0,-1
EndSplineSet
EndChar

StartChar: underscore
Encoding: 95 95 85
Width: 535
VWidth: 1023
Flags: HW
HStem: -20 113<38.1602 498.16>
LayerCount: 2
Fore
SplineSet
38 93 m 1,0,-1
 498 93 l 1,1,-1
 498 -20 l 1,2,-1
 38 -20 l 1,3,-1
 38 93 l 1,0,-1
EndSplineSet
EndChar

StartChar: percent
Encoding: 37 37 86
Width: 712
VWidth: 1023
Flags: HW
HStem: 0 21G<30.2393 177.772> 12 86<506.065 581.105> 237 87<505.225 581.84> 374 85<153.531 226.456> 599 87<150.817 228.375> 674 20G<553.706 701.239>
VStem: 54 88<468.603 590.916> 237 97<468.845 590.485> 399 96<107.006 228.543> 591 87<107.239 230.27>
LayerCount: 2
Fore
SplineSet
142 529 m 128,-1,1
 142 459 142 459 189.5 459 c 128,-1,2
 237 459 237 459 237 532 c 0,3,4
 237 599 237 599 189.5 599 c 128,-1,0
 142 599 142 599 142 529 c 128,-1,1
189 686 m 0,5,6
 202 686 202 686 216 684 c 128,-1,7
 230 682 230 682 244.5 677 c 128,-1,8
 259 672 259 672 271.5 664.5 c 128,-1,9
 284 657 284 657 296 645 c 128,-1,10
 308 633 308 633 316 618 c 0,11,12
 334 584 334 584 334 534.5 c 128,-1,13
 334 485 334 485 315 448 c 0,14,15
 276 374 276 374 186.5 374 c 128,-1,16
 97 374 97 374 66 456 c 0,17,18
 53 492 53 492 54 530 c 0,19,20
 54 550 54 550 57 570 c 0,21,22
 68 633 68 633 116 665 c 0,23,24
 147 686 147 686 189 686 c 0,5,6
543 237 m 128,-1,26
 495 237 495 237 495 167.5 c 128,-1,27
 495 98 495 98 543 98 c 128,-1,28
 591 98 591 98 591 170 c 0,29,25
 591 237 591 237 543 237 c 128,-1,26
678 178 m 128,-1,31
 678 98 678 98 640.5 55 c 128,-1,32
 603 12 603 12 543 12 c 0,33,34
 486 12 486 12 445 46 c 0,35,36
 399 84 399 84 399 164 c 128,-1,37
 399 244 399 244 441.5 284 c 128,-1,38
 484 324 484 324 539 324 c 128,-1,39
 594 324 594 324 636 291 c 128,-1,30
 678 258 678 258 678 178 c 128,-1,31
569 694 m 1,40,-1
 701 694 l 1,41,-1
 162 0 l 1,42,-1
 30 0 l 1,43,-1
 569 694 l 1,40,-1
EndSplineSet
EndChar

StartChar: braceright
Encoding: 125 125 87
Width: 393
VWidth: 1023
Flags: HW
HStem: -223 102<36.1284 81.3581> 655 103<35.8759 84.0895>
LayerCount: 2
Fore
SplineSet
228.5 625 m 128,-1,1
 246 583 246 583 250.5 529 c 132,-1,2
 255 475 255 475 259.5 442.5 c 128,-1,3
 264 410 264 410 279 381 c 0,4,5
 307 330 307 330 360 321 c 1,6,-1
 376 319 l 1,7,-1
 376 217 l 1,8,-1
 360 215 l 1,9,10
 311 206 311 206 283 165 c 0,11,12
 259 131 259 131 254 42 c 0,13,14
 246 -96 246 -96 187 -157 c 0,15,16
 165 -180 165 -180 138 -195 c 0,17,18
 96 -218 96 -218 54 -221 c 1,19,-1
 37 -223 l 1,20,-1
 14 -121 l 1,21,-1
 36 -118 l 2,22,23
 83 -112 83 -112 112 -69 c 0,24,25
 136 -32 136 -32 142 59 c 0,26,27
 144 95 144 95 149 132 c 0,28,29
 161 218 161 218 219 268 c 1,30,31
 161 318 161 318 150 404 c 0,32,33
 145 441 145 441 142 477 c 0,34,35
 136 568 136 568 109.5 608.5 c 128,-1,36
 83 649 83 649 36 655 c 2,37,-1
 14 658 l 1,38,-1
 37 759 l 1,39,-1
 54 758 l 2,40,41
 98 755 98 755 133.5 734.5 c 128,-1,42
 169 714 169 714 190 690.5 c 128,-1,0
 211 667 211 667 228.5 625 c 128,-1,1
EndSplineSet
EndChar

StartChar: asciitilde
Encoding: 126 126 88
Width: 583
VWidth: 1023
Flags: HW
HStem: 284 99<338.29 385.131> 373 99<197.663 244.953>
VStem: 90 93<294.022 366.81> 397 92<386.755 462.472>
LayerCount: 2
Fore
SplineSet
368 383 m 0,0,1
 385 383 385 383 396 449 c 0,2,3
 397 454 397 454 397 457 c 2,4,-1
 400 476 l 1,5,-1
 493 462 l 1,6,-1
 489 441 l 2,7,8
 489 440 489 440 485 419 c 128,-1,9
 481 398 481 398 479.5 392.5 c 128,-1,10
 478 387 478 387 472.5 368 c 128,-1,11
 467 349 467 349 462 341.5 c 128,-1,12
 457 334 457 334 448 320 c 128,-1,13
 439 306 439 306 429 300 c 0,14,15
 403 284 403 284 373 284 c 0,16,17
 372 284 372 284 371 284 c 0,18,19
 340 284 340 284 312.5 299 c 128,-1,20
 285 314 285 314 269 330 c 0,21,22
 226 373 226 373 215 373 c 0,23,24
 199 373 199 373 188 311 c 0,25,26
 187 308 187 308 186.5 306 c 128,-1,27
 186 304 186 304 186 302 c 2,28,-1
 183 282 l 1,29,-1
 90 295 l 1,30,-1
 94 316 l 2,31,32
 95 319 95 319 98 335.5 c 128,-1,33
 101 352 101 352 102.5 358.5 c 128,-1,34
 104 365 104 365 108 380.5 c 128,-1,35
 112 396 112 396 116 404 c 2,36,-1
 126 425 l 2,37,38
 132 438 132 438 140.5 444.5 c 0,39,40
 149 450 149 450 159 458 c 0,41,42
 176 471 176 471 208 472 c 0,43,44
 209 472 209 472 210 472 c 0,45,46
 243 472 243 472 271 457 c 128,-1,47
 299 442 299 442 315 426 c 128,-1,48
 331 410 331 410 345.5 396.5 c 128,-1,49
 360 383 360 383 368 383 c 0,0,1
EndSplineSet
EndChar

StartChar: grave
Encoding: 96 96 89
Width: 487
VWidth: 1023
Flags: HW
HStem: 543 259
LayerCount: 2
Fore
SplineSet
132 802 m 1,0,-1
 412 630 l 1,1,-1
 361 543 l 1,2,-1
 76 707 l 1,3,-1
 132 802 l 1,0,-1
EndSplineSet
EndChar

StartChar: asciicircum
Encoding: 94 94 90
Width: 608
VWidth: 1023
Flags: HW
HStem: 541 241
VStem: 135 319
LayerCount: 2
Fore
SplineSet
301 782 m 1,0,-1
 454 612 l 1,1,-1
 380 541 l 1,2,-1
 295 636 l 1,3,-1
 208 542 l 1,4,-1
 135 607 l 1,5,-1
 301 782 l 1,0,-1
EndSplineSet
EndChar

StartChar: ampersand
Encoding: 38 38 91
Width: 750
VWidth: 1023
Flags: HW
HStem: -43 112<204.935 347.801> 613 110<255.896 372.047>
VStem: 49 121<105.02 222.545> 108 122<496.391 586.779> 388 121<513.122 597.716>
LayerCount: 2
Fore
SplineSet
509 574 m 0,0,1
 509 492 509 492 407 408 c 0,2,3
 396 399 396 399 366 375 c 1,4,-1
 506 225 l 1,5,-1
 664 397 l 1,6,-1
 737 323 l 1,7,-1
 580 147 l 1,8,-1
 737 -20 l 1,9,-1
 583 -20 l 1,10,-1
 496 70 l 1,11,12
 430 8 430 8 370.5 -17.5 c 128,-1,13
 311 -43 311 -43 243 -43 c 1,14,15
 153 -43 153 -43 101 8.5 c 128,-1,16
 49 60 49 60 49 138 c 0,17,18
 49 173 49 173 60 206.5 c 128,-1,19
 71 240 71 240 85.5 264 c 128,-1,20
 100 288 100 288 123 312 c 0,21,22
 154 345 154 345 197 378 c 1,23,24
 170 406 170 406 153.5 427 c 128,-1,25
 137 448 137 448 122.5 481 c 128,-1,26
 108 514 108 514 108 548 c 0,27,28
 108 625 108 625 171.5 674 c 128,-1,29
 235 723 235 723 321 723 c 128,-1,30
 407 723 407 723 458 681 c 128,-1,31
 509 639 509 639 509 574 c 0,0,1
369 596 m 128,-1,33
 350 613 350 613 315.5 613 c 128,-1,34
 281 613 281 613 255.5 592 c 128,-1,35
 230 571 230 571 230 544 c 0,36,37
 230 519 230 519 253 493 c 0,38,39
 265 480 265 480 277 468 c 128,-1,40
 289 456 289 456 293 452 c 1,41,42
 297 455 297 455 308.5 463.5 c 128,-1,43
 320 472 320 472 326.5 477.5 c 128,-1,44
 333 483 333 483 344 492 c 128,-1,45
 355 501 355 501 360 506 c 128,-1,46
 365 511 365 511 371.5 518.5 c 128,-1,47
 378 526 378 526 381 531 c 0,48,49
 388 545 388 545 388 562 c 128,-1,32
 388 579 388 579 369 596 c 128,-1,33
273 301 m 1,50,51
 239 274 239 274 220.5 257 c 128,-1,52
 202 240 202 240 186 213.5 c 128,-1,53
 170 187 170 187 170 155 c 128,-1,54
 170 123 170 123 198.5 96 c 128,-1,55
 227 69 227 69 271 69 c 0,56,57
 340 69 340 69 421 146 c 1,58,-1
 273 301 l 1,50,51
EndSplineSet
EndChar

StartChar: less
Encoding: 60 60 92
Width: 506
VWidth: 1023
Flags: HW
LayerCount: 2
Fore
SplineSet
487 583 m 1,0,-1
 487 463 l 1,1,-1
 171 304 l 1,2,-1
 487 152 l 1,3,-1
 487 27 l 1,4,-1
 21 248 l 1,5,-1
 21 354 l 1,6,-1
 487 583 l 1,0,-1
EndSplineSet
EndChar

StartChar: greater
Encoding: 62 62 93
Width: 506
VWidth: 1023
Flags: HW
LayerCount: 2
Fore
SplineSet
21 583 m 1,0,-1
 487 354 l 1,1,-1
 487 248 l 1,2,-1
 21 27 l 1,3,-1
 21 152 l 1,4,-1
 337 304 l 1,5,-1
 21 463 l 1,6,-1
 21 583 l 1,0,-1
EndSplineSet
EndChar

StartChar: braceleft
Encoding: 123 123 94
Width: 393
VWidth: 1023
Flags: HW
HStem: 655 103<311.508 359.448>
LayerCount: 2
Back
SplineSet
43.9453 302.246 m 5,0,1
 89.3922205193 309.888960374 89.3922205193 309.888960374 121.704601866 345.771973426 c 0
 154.016983214 381.654986478 154.016983214 381.654986478 162.771 447.896 c 0,2,3
 163.972471579 456.991777988 163.972471579 456.991777988 164.94965639 467.951615968 c 0
 165.9268412 478.911453949 165.9268412 478.911453949 166.487671735 487.696102782 c 0
 167.04850227 496.480751615 167.04850227 496.480751615 167.85393764 507.962553468 c 0
 168.659373009 519.444355322 168.659373009 519.444355322 169.434 527.832 c 0,4,5
 173.40269619 570.797564219 173.40269619 570.797564219 185.128876119 605.468676309 c 0
 196.855056047 640.139788399 196.855056047 640.139788399 213.659998881 661.882615358 c 0
 230.464941716 683.625442316 230.464941716 683.625442316 248.249052044 699.10016705 c 0
 266.033162373 714.574891784 266.033162373 714.574891784 286.138813696 722.480800543 c 0
 306.244465019 730.386709302 306.244465019 730.386709302 320.282894637 733.828657791 c 0
 334.321324255 737.270606279 334.321324255 737.270606279 347.656 738.281 c 1,6,-1
 362.305 675.293 l 1,7,8
 304.694062201 667.337867109 304.694062201 667.337867109 271.484 616.699 c 0,9,10
 254.591691998 590.940013088 254.591691998 590.940013088 247.309048178 552.329471213 c 0
 240.026404358 513.718929337 240.026404358 513.718929337 237.816215822 476.344544787 c 0
 235.606027286 438.970160238 235.606027286 438.970160238 229.924104178 400.841935213 c 0
 224.24218107 362.713710188 224.24218107 362.713710188 204.121831822 327.560848787 c 0
 184.001482574 292.407987387 184.001482574 292.407987387 147.328 268.599 c 1,11,12
 170.108025016 253.866666652 170.108025016 253.866666652 186.577883165 233.739558562 c 0
 203.047741313 213.612450473 203.047741313 213.612450473 211.88627186 195.989402112 c 0
 220.724802406 178.366353751 220.724802406 178.366353751 226.725911092 150.712405462 c 0
 232.727019779 123.058457174 232.727019779 123.058457174 234.556093324 106.684774289 c 0
 236.38516687 90.3110914042 236.38516687 90.3110914042 238.849563564 59.2703834053 c 0
 240.867941566 33.8475761199 240.867941566 33.8475761199 242.345679773 20.2890711473 c 0
 243.82341798 6.73056617479 243.82341798 6.73056617479 247.284217968 -13.6785851575 c 0
 250.745017957 -34.0877364899 250.745017957 -34.0877364899 256.706064417 -49.8130889381 c 0
 262.667110877 -65.5384413864 262.667110877 -65.5384413864 271.484 -79.1016 c 0,13,14
 304.574915021 -130.003189388 304.574915021 -130.003189388 362.305 -137.695 c 1,15,-1
 347.656 -200.684 l 1,16,17
 332.422346301 -199.422167153 332.422346301 -199.422167153 315.982391876 -195.408809492 c 0
 299.542437452 -191.395451831 299.542437452 -191.395451831 274.097672124 -177.880056668 c 0
 248.652906796 -164.364661504 248.652906796 -164.364661504 228.621127876 -143.776031732 c 0
 208.589348956 -123.187401961 208.589348956 -123.187401961 191.526808124 -84.7839261077 c 0
 174.464267291 -46.3804502547 174.464267291 -46.3804502547 169.434 3.41797 c 0,18,19
 168.499923645 12.6642727005 168.499923645 12.6642727005 166.618037227 43.908049087 c 0
 164.73615081 75.1518254735 164.73615081 75.1518254735 162.102025973 91.726305073 c 0
 159.467901136 108.300784673 159.467901136 108.300784673 153.006042027 133.675406527 c 0
 146.544182919 159.050028381 146.544182919 159.050028381 133.194374773 178.037415313 c 0
 119.844566626 197.024802245 119.844566626 197.024802245 99.7871 211.615 c 0,20,21
 87.4257101569 220.606808824 87.4257101569 220.606808824 73.2097397458 226.53108378 c 0
 58.9937693347 232.455358736 58.9937693347 232.455358736 43.9453 234.863 c 1,22,-1
 43.9453 302.246 l 5,0,1
EndSplineSet
Fore
SplineSet
138 450 m 0,0,1
 138 453 138 453 143 513.5 c 128,-1,2
 148 574 148 574 161 611 c 128,-1,3
 174 648 174 648 192 672 c 128,-1,4
 210 696 210 696 229.5 713 c 128,-1,5
 249 730 249 730 271 739 c 0,6,7
 310 755 310 755 341 758 c 2,8,-1
 358 759 l 1,9,-1
 382 658 l 1,10,-1
 360 655 l 2,11,12
 312 649 312 649 283 605 c 0,13,14
 259 568 259 568 255 501 c 0,15,16
 248 375 248 375 218 320 c 0,17,18
 202 290 202 290 176 268 c 1,19,20
 235 218 235 218 246 132 c 0,21,22
 251 95 251 95 254 59 c 0,23,24
 260 -32 260 -32 286 -72 c 128,-1,25
 312 -112 312 -112 360 -118 c 2,26,-1
 382 -121 l 1,27,-1
 358 -223 l 1,28,-1
 341 -221 l 1,29,30
 300 -218 300 -218 265 -199 c 128,-1,31
 230 -180 230 -180 208 -157.5 c 128,-1,32
 186 -135 186 -135 168 -93 c 0,33,34
 146 -43 146 -43 141 43 c 0,35,36
 136 142 136 142 100 180 c 0,37,38
 74 208 74 208 36 215 c 1,39,-1
 19 217 l 1,40,-1
 19 319 l 1,41,-1
 36 321 l 1,42,43
 75 328 75 328 102.5 359.5 c 128,-1,44
 130 391 130 391 138 450 c 0,0,1
EndSplineSet
EndChar

StartChar: sterling
Encoding: 163 163 95
Width: 634
VWidth: 1023
Flags: HW
HStem: -20 106<54 173 293 581> 303 106<87 173 293 552> 612 107<351.313 540.627>
VStem: 173 120<86 303 409 550.617>
LayerCount: 2
Fore
SplineSet
173 86 m 1,0,-1
 173 303 l 1,1,-1
 87 303 l 1,2,-1
 87 409 l 1,3,-1
 173 409 l 1,4,-1
 173 458 l 2,5,6
 173 531 173 531 195.5 584 c 0,7,8
 218 638 218 638 257 666 c 0,9,10
 330 720 330 720 431 719 c 0,11,12
 489 719 489 719 551 699 c 1,13,-1
 572 693 l 1,14,-1
 534 597 l 1,15,-1
 517 601 l 2,16,17
 473 612 473 612 441 612 c 0,18,19
 355 612 355 612 324 568 c 128,-1,20
 293 524 293 524 293 445 c 2,21,-1
 293 409 l 1,22,-1
 552 409 l 1,23,-1
 552 303 l 1,24,-1
 293 303 l 1,25,-1
 293 86 l 1,26,-1
 581 86 l 1,27,-1
 581 -20 l 1,28,-1
 54 -20 l 1,29,-1
 54 86 l 1,30,-1
 173 86 l 1,0,-1
EndSplineSet
EndChar

StartChar: exclamdown
Encoding: 161 161 96
Width: 317
VWidth: 1023
Flags: HW
HStem: 527 138<90 228>
VStem: 90 138<527 665> 97 123<-220 441>
LayerCount: 2
Fore
SplineSet
97 441 m 1,0,-1
 220 441 l 1,1,-1
 220 -220 l 1,2,-1
 97 -220 l 1,3,-1
 97 441 l 1,0,-1
90 665 m 1,4,-1
 228 665 l 1,5,-1
 228 527 l 1,6,-1
 90 527 l 1,7,-1
 90 665 l 1,4,-1
EndSplineSet
EndChar

StartChar: cent
Encoding: 162 162 97
Width: 498
VWidth: 1023
Flags: HW
HStem: -52 248<247.318 342.836> 93 103<344 429.703> 518 240<245.697 342.469>
VStem: 53 118<267.528 458.675> 245 99<-52 95 622.117 758>
LayerCount: 2
Fore
SplineSet
245 620 m 1,0,-1
 245 758 l 1,1,-1
 344 758 l 1,2,-1
 344 625 l 1,3,4
 395 620 395 620 450 596 c 1,5,-1
 467 589 l 1,6,-1
 436 494 l 1,7,-1
 417 500 l 1,8,9
 365 518 365 518 317 518 c 0,10,11
 171 518 171 518 171 365 c 0,12,13
 172 263 172 263 224 227 c 0,14,15
 269 196 269 196 319.5 196 c 128,-1,16
 370 196 370 196 411 211 c 1,17,-1
 430 217 l 1,18,-1
 462 125 l 1,19,-1
 444 118 l 2,20,21
 389 97 389 97 344 93 c 1,22,-1
 344 -52 l 1,23,-1
 245 -52 l 1,24,-1
 245 95 l 1,25,26
 159 110 159 110 106 173.5 c 128,-1,27
 53 237 53 237 53 346.5 c 128,-1,28
 53 456 53 456 103 528.5 c 128,-1,29
 153 601 153 601 245 620 c 1,0,-1
EndSplineSet
EndChar

StartChar: currency
Encoding: 164 164 98
Width: 634
Flags: HW
HStem: 173 109<265.012 369.521> 442 109<264.249 370.211>
VStem: 128 112<306.46 417.519> 395 111<307.299 417.076>
LayerCount: 2
Fore
SplineSet
398 532 m 1,0,-1
 483 617 l 1,1,-1
 572 527 l 1,2,-1
 487 443 l 1,3,4
 506 406 506 406 506 362 c 0,5,6
 506 318 506 318 488 281 c 1,7,-1
 572 197 l 1,8,-1
 482 108 l 1,9,-1
 398 192 l 1,10,11
 358 173 358 173 315 173 c 0,12,13
 272 173 272 173 236 191 c 1,14,-1
 152 107 l 1,15,-1
 62 196 l 1,16,-1
 147 281 l 1,17,18
 128 319 128 319 128 361 c 0,19,20
 128 403 128 403 147 443 c 1,21,-1
 62 528 l 1,22,-1
 151 618 l 1,23,-1
 237 532 l 1,24,25
 274 551 274 551 316 551 c 0,26,27
 358 551 358 551 398 532 c 1,0,-1
317 442 m 128,-1,29
 285 442 285 442 262.5 419 c 128,-1,30
 240 396 240 396 240 362 c 0,31,32
 240 328 240 328 262.5 305 c 128,-1,33
 285 282 285 282 317 282 c 128,-1,34
 349 282 349 282 372 305.5 c 128,-1,35
 395 329 395 329 395 362 c 128,-1,36
 395 395 395 395 372 418.5 c 128,-1,28
 349 442 349 442 317 442 c 128,-1,29
EndSplineSet
EndChar

StartChar: yen
Encoding: 165 165 99
Width: 634
VWidth: 1023
Flags: HW
HStem: 102 101<121 255 373 514> 260 101<121 237 392 514>
VStem: 255 118<-20 102 203 260>
LayerCount: 2
Fore
SplineSet
35 714 m 1,0,-1
 172 714 l 1,1,-1
 318 441 l 1,2,-1
 468 714 l 1,3,-1
 600 714 l 1,4,-1
 392 361 l 1,5,-1
 514 361 l 1,6,-1
 514 260 l 1,7,-1
 373 260 l 1,8,-1
 373 203 l 1,9,-1
 514 203 l 1,10,-1
 514 102 l 1,11,-1
 373 102 l 1,12,-1
 373 -20 l 1,13,-1
 255 -20 l 1,14,-1
 255 102 l 1,15,-1
 121 102 l 1,16,-1
 121 203 l 1,17,-1
 255 203 l 1,18,-1
 255 260 l 1,19,-1
 121 260 l 1,20,-1
 121 361 l 1,21,-1
 237 361 l 1,22,-1
 35 714 l 1,0,-1
EndSplineSet
EndChar

StartChar: brokenbar
Encoding: 166 166 100
Width: 431
VWidth: 1023
Flags: HW
VStem: 156 120<-170 245 389 802>
LayerCount: 2
Fore
SplineSet
156 245 m 1,0,-1
 276 245 l 1,1,-1
 276 -170 l 1,2,-1
 156 -170 l 1,3,-1
 156 245 l 1,0,-1
156 802 m 1,4,-1
 276 802 l 1,5,-1
 276 389 l 1,6,-1
 156 389 l 1,7,-1
 156 802 l 1,4,-1
EndSplineSet
EndChar

StartChar: section
Encoding: 167 167 101
Width: 554
VWidth: 1023
Flags: HW
HStem: -30 103<129.884 342.726> 596 102<321.163 443.526> 614 106<220.438 445.229>
VStem: 75 128<347.836 401.536 530.276 594.691> 364 132<94.6852 171.04 294.79 354.978>
LayerCount: 2
Fore
SplineSet
456 698 m 1,0,-1
 476 693 l 1,1,-1
 441 590 l 1,2,-1
 422 596 l 2,3,4
 366 614 366 614 313 614 c 128,-1,5
 260 614 260 614 231.5 599.5 c 128,-1,6
 203 585 203 585 203 564.5 c 128,-1,7
 203 544 203 544 224.5 529.5 c 128,-1,8
 246 515 246 515 279 505 c 128,-1,9
 312 495 312 495 349.5 480 c 128,-1,10
 387 465 387 465 420 448.5 c 128,-1,11
 453 432 453 432 474.5 402 c 128,-1,12
 496 372 496 372 496 324.5 c 128,-1,13
 496 277 496 277 463 233 c 1,14,15
 496 197 496 197 496 149 c 0,16,17
 496 86 496 86 449 33 c 0,18,19
 424 5 424 5 374 -12.5 c 128,-1,20
 324 -30 324 -30 256 -30 c 2,21,-1
 250 -30 l 2,22,23
 155 -30 155 -30 71 3 c 1,24,-1
 53 11 l 1,25,-1
 89 108 l 1,26,-1
 107 102 l 1,27,28
 187 73 187 73 249 73 c 0,29,30
 364 73 364 73 364 140 c 0,31,32
 364 161 364 161 334 176 c 128,-1,33
 304 191 304 191 262 203 c 128,-1,34
 220 215 220 215 177.5 231.5 c 128,-1,35
 135 248 135 248 105 282.5 c 128,-1,36
 75 317 75 317 75 367 c 128,-1,37
 75 417 75 417 110 460 c 1,38,39
 75 496 75 496 75 550 c 0,40,41
 75 607 75 607 126 660 c 0,42,43
 152 687 152 687 202 703.5 c 128,-1,44
 252 720 252 720 314.5 720 c 128,-1,45
 377 720 377 720 456 698 c 1,0,-1
212 402 m 1,46,47
 203 391 203 391 203 378 c 128,-1,48
 203 365 203 365 211 355.5 c 128,-1,49
 219 346 219 346 237 337.5 c 128,-1,50
 255 329 255 329 269.5 323.5 c 128,-1,51
 284 318 284 318 313 308.5 c 128,-1,52
 342 299 342 299 356 294 c 1,53,54
 364 306 364 306 364 320.5 c 128,-1,55
 364 335 364 335 356 344.5 c 128,-1,56
 348 354 348 354 331 362 c 128,-1,57
 314 370 314 370 298.5 375 c 128,-1,58
 283 380 283 380 255.5 388.5 c 128,-1,59
 228 397 228 397 212 402 c 1,46,47
EndSplineSet
EndChar

StartChar: copyright
Encoding: 169 169 102
Width: 859
VWidth: 1023
Flags: HW
HStem: -27 105<327.703 532.18> 136 87<385.027 540.828> 445 90<379.383 541.799> 589 105<327.172 532.18>
VStem: 63 105<235.367 430.043> 253 97<259.834 412.916> 691 105<235.544 430.573>
LayerCount: 2
Fore
SplineSet
549 512 m 2,0,-1
 565 505 l 1,1,-1
 538 426 l 1,2,-1
 519 433 l 2,3,4
 484 445 484 445 449 445 c 0,5,6
 350 445 350 445 350 339 c 0,7,8
 350 223 350 223 455 223 c 0,9,10
 485 223 485 223 516 234 c 2,11,-1
 534 240 l 1,12,-1
 562 163 l 1,13,-1
 544 156 l 2,14,15
 492 136 492 136 447.5 136 c 128,-1,16
 403 136 403 136 372.5 145.5 c 128,-1,17
 342 155 342 155 314 176 c 128,-1,18
 286 197 286 197 269.5 236.5 c 128,-1,19
 253 276 253 276 253 330.5 c 128,-1,20
 253 385 253 385 270 426.5 c 128,-1,21
 287 468 287 468 315 490 c 0,22,23
 370 534 370 534 434 534.5 c 128,-1,24
 498 535 498 535 549 512 c 2,0,-1
430 589 m 128,-1,26
 321 589 321 589 244.5 513 c 128,-1,27
 168 437 168 437 168 333 c 128,-1,28
 168 229 168 229 244.5 153.5 c 128,-1,29
 321 78 321 78 430 78 c 128,-1,30
 539 78 539 78 615 153.5 c 128,-1,31
 691 229 691 229 691 333.5 c 128,-1,32
 691 438 691 438 615 513.5 c 128,-1,25
 539 589 539 589 430 589 c 128,-1,26
796 333 m 128,-1,34
 796 186 796 186 689.5 79.5 c 128,-1,35
 583 -27 583 -27 430 -27 c 128,-1,36
 277 -27 277 -27 170 79.5 c 128,-1,37
 63 186 63 186 63 332.5 c 128,-1,38
 63 479 63 479 169.5 586.5 c 128,-1,39
 276 694 276 694 429.5 694 c 128,-1,40
 583 694 583 694 689.5 587 c 128,-1,33
 796 480 796 480 796 333 c 128,-1,34
EndSplineSet
EndChar

StartChar: guillemotleft
Encoding: 171 171 103
Width: 526
VWidth: 1023
Flags: HW
LayerCount: 2
Fore
SplineSet
381 502 m 5,0,-1
 521 502 l 1,1,-1
 373 304 l 1,2,-1
 521 106 l 1,3,-1
 381 106 l 1,4,-1
 242 304 l 1,5,-1
 381 502 l 5,0,-1
151 502 m 5,6,-1
 292 502 l 1,7,-1
 143 304 l 1,8,-1
 292 106 l 1,9,-1
 151 106 l 1,10,-1
 12 304 l 1,11,-1
 151 502 l 5,6,-1
EndSplineSet
EndChar

StartChar: guillemotright
Encoding: 187 187 104
Width: 526
VWidth: 1023
Flags: HW
LayerCount: 2
Fore
SplineSet
5 502 m 1,0,-1
 146 502 l 1,1,-1
 284 304 l 1,2,-1
 146 106 l 1,3,-1
 5 106 l 1,4,-1
 154 304 l 1,5,-1
 5 502 l 1,0,-1
235 502 m 1,6,-1
 375 502 l 1,7,-1
 514 304 l 1,8,-1
 375 106 l 1,9,-1
 235 106 l 1,10,-1
 384 304 l 1,11,-1
 235 502 l 1,6,-1
EndSplineSet
EndChar

StartChar: registered
Encoding: 174 174 105
Width: 601
VWidth: 1023
Flags: HW
HStem: 244 79<213.581 388.109> 468 62<266 301> 593 64<266 343.936> 696 78<214.575 387.539>
VStem: 32 78<425.221 593.686> 196 70<367 468 530 593> 348 68<533.522 590.02> 491 79<423.235 593.466>
LayerCount: 2
Fore
SplineSet
301 593 m 2,0,-1
 266 593 l 1,1,-1
 266 530 l 1,2,3
 298 530 l 2,4,5
 348 530 348 530 348 560 c 0,6,7
 348 579 348 579 337 586 c 128,-1,8
 326 593 326 593 301 593 c 2,0,-1
317 657 m 2,9,10
 371 657 371 657 393.5 630.5 c 128,-1,11
 416 604 416 604 416 565 c 0,12,13
 416 504 416 504 369 481 c 1,14,-1
 426 369 l 1,15,16
 491 424 491 424 491 504 c 0,17,18
 491 584 491 584 435.5 640 c 128,-1,19
 380 696 380 696 301 696 c 128,-1,20
 222 696 222 696 166 640.5 c 128,-1,21
 110 585 110 585 110 509 c 128,-1,22
 110 433 110 433 165.5 378 c 128,-1,23
 221 323 221 323 295 323 c 0,24,25
 369 323 369 323 423 367 c 1,26,-1
 350 367 l 1,27,-1
 301 468 l 1,28,-1
 266 468 l 1,29,-1
 266 367 l 1,30,-1
 196 367 l 1,31,-1
 196 657 l 1,32,-1
 317 657 l 2,9,10
570 509 m 128,-1,34
 570 399 570 399 491 321.5 c 128,-1,35
 412 244 412 244 300 244 c 0,36,37
 188 244 188 244 110 322 c 128,-1,38
 32 400 32 400 32 510 c 0,39,40
 32 620 32 620 111 697 c 128,-1,41
 190 774 190 774 301 774 c 128,-1,42
 412 774 412 774 491 696.5 c 128,-1,33
 570 619 570 619 570 509 c 128,-1,34
EndSplineSet
EndChar

StartChar: paragraph
Encoding: 182 182 106
Width: 647
VWidth: 1023
Flags: HW
HStem: 645 113<377 455>
VStem: 43 334<442.125 639.808> 257 120<-20 317.537> 455 120<-20 645>
LayerCount: 2
Fore
SplineSet
293 758 m 6,0,-1
 575 758 l 1,1,-1
 575 -20 l 1,2,-1
 455 -20 l 1,3,-1
 455 645 l 1,4,-1
 377 645 l 1,5,-1
 377 -20 l 1,6,-1
 257 -20 l 1,7,-1
 257 315 l 1,8,9
 180 322 180 322 116 370 c 0,10,11
 82 396 82 396 62.5 443 c 128,-1,12
 43 490 43 490 43 545.5 c 128,-1,13
 43 601 43 601 55.5 637.5 c 128,-1,14
 68 674 68 674 91.5 695.5 c 128,-1,15
 115 717 115 717 138.5 730.5 c 128,-1,16
 162 744 162 744 194 750 c 0,17,18
 244 758 244 758 293 758 c 6,0,-1
EndSplineSet
EndChar

StartChar: periodcentered
Encoding: 183 183 107
Width: 288
VWidth: 1023
Flags: HW
HStem: 287 142<73 215>
VStem: 73 142<287 429>
LayerCount: 2
Fore
SplineSet
73 429 m 1,0,-1
 215 429 l 1,1,-1
 215 287 l 1,2,-1
 73 287 l 1,3,-1
 73 429 l 1,0,-1
EndSplineSet
EndChar

StartChar: questiondown
Encoding: 191 191 108
Width: 511
VWidth: 1023
Flags: HW
HStem: -89 109<193.764 376.019>
VStem: 37 120<56.838 165.215> 222 123<371.913 482>
LayerCount: 2
Fore
SplineSet
345 502 m 1,0,-1
 345 482 l 2,1,2
 345 401 345 401 325.5 343.5 c 128,-1,3
 306 286 306 286 278.5 257.5 c 128,-1,4
 251 229 251 229 223.5 208 c 128,-1,5
 196 187 196 187 176.5 163.5 c 128,-1,6
 157 140 157 140 157 106.5 c 128,-1,7
 157 73 157 73 187 46.5 c 128,-1,8
 217 20 217 20 271 20 c 128,-1,9
 325 20 325 20 403 52 c 1,10,-1
 421 60 l 1,11,-1
 461 -36 l 1,12,-1
 444 -44 l 2,13,14
 349 -89 349 -89 265 -89 c 128,-1,15
 181 -89 181 -89 109 -28.5 c 128,-1,16
 37 32 37 32 36.5 121 c 128,-1,17
 36 210 36 210 102 262 c 0,18,19
 130 284 130 284 157 307.5 c 128,-1,20
 184 331 184 331 203 374.5 c 128,-1,21
 222 418 222 418 222 482 c 2,22,-1
 222 502 l 1,23,-1
 345 502 l 1,0,-1
353 714 m 1,24,-1
 353 576 l 1,25,-1
 215 576 l 1,26,-1
 215 714 l 1,27,-1
 353 714 l 1,24,-1
EndSplineSet
EndChar

StartChar: uni00B5
Encoding: 181 181 109
Width: 579
VWidth: 1023
Flags: HW
HStem: -33 108<229.011 373.305>
VStem: 73 120<-220 -12 113.894 502> 392 120<95.2864 502>
LayerCount: 2
Fore
SplineSet
73 502 m 1,0,-1
 193 502 l 1,1,-1
 193 210 l 2,2,3
 193 75 193 75 292 75 c 0,4,5
 330 75 330 75 392 105 c 1,6,-1
 392 502 l 1,7,-1
 512 502 l 1,8,-1
 512 -20 l 1,9,-1
 422 -20 l 1,10,-1
 412 4 l 1,11,12
 344 -33 344 -33 288 -33 c 0,13,14
 232 -33 232 -33 193 -12 c 1,15,-1
 193 -220 l 1,16,-1
 73 -220 l 1,17,-1
 73 502 l 1,0,-1
EndSplineSet
EndChar

StartChar: uni00AD
Encoding: 173 173 110
Width: 524
VWidth: 1023
Flags: HW
HStem: 268 107<87 437>
LayerCount: 2
Fore
SplineSet
87 375 m 1,0,-1
 437 375 l 1,1,-1
 437 268 l 1,2,-1
 87 268 l 1,3,-1
 87 375 l 1,0,-1
EndSplineSet
EndChar

StartChar: plusminus
Encoding: 177 177 111
Width: 683
VWidth: 1023
Flags: HW
HStem: 53 107<87 596> 406 107<87 286 397 596>
VStem: 286 111<205 406 513 714>
LayerCount: 2
Fore
SplineSet
87 160 m 1,0,-1
 596 160 l 1,1,-1
 596 53 l 1,2,-1
 87 53 l 1,3,-1
 87 160 l 1,0,-1
286 714 m 1,4,-1
 397 714 l 1,5,-1
 397 513 l 1,6,-1
 596 513 l 1,7,-1
 596 406 l 1,8,-1
 397 406 l 1,9,-1
 397 205 l 1,10,-1
 286 205 l 1,11,-1
 286 406 l 1,12,-1
 87 406 l 1,13,-1
 87 513 l 1,14,-1
 286 513 l 1,15,-1
 286 714 l 1,4,-1
EndSplineSet
EndChar

StartChar: ae
Encoding: 230 230 112
Width: 897
VWidth: 0
Flags: HW
HStem: -10 104<204.753 348.71 569.156 770.973> 193 100<503 716> 213 78<207.809 368> 369 87<117.241 161.377> 382 109<547.31 683.332> 393 98<127.287 335.847>
VStem: 60 120<117.62 188.684>
LayerCount: 2
Fore
SplineSet
190 182 m 128,-1,1
 180 171 180 171 180 151 c 128,-1,2
 180 131 180 131 208 112.5 c 128,-1,3
 236 94 236 94 282 94 c 128,-1,4
 328 94 328 94 368 129 c 1,5,-1
 368 213 l 1,6,7
 287 212 287 212 243.5 202.5 c 128,-1,0
 200 193 200 193 190 182 c 128,-1,1
621 382 m 128,-1,9
 573 382 573 382 541 356.5 c 128,-1,10
 509 331 509 331 503 293 c 1,11,-1
 716 293 l 1,12,13
 712 331 712 331 690.5 356.5 c 128,-1,8
 669 382 669 382 621 382 c 128,-1,9
104 462 m 1,14,15
 188 491 188 491 282 491 c 0,16,17
 398 491 398 491 452 420 c 1,18,19
 531 491 531 491 636 491 c 0,20,21
 686 491 686 491 723 473.5 c 128,-1,22
 760 456 760 456 780.5 429.5 c 0,23,24
 802 403 802 403 814 364 c 0,25,26
 834 303 834 303 833 213 c 2,27,-1
 833 193 l 1,28,-1
 500 193 l 1,29,30
 508 150 508 150 554.5 122.5 c 128,-1,31
 601 95 601 95 656 95 c 128,-1,32
 711 95 711 95 767 111 c 1,33,-1
 787 118 l 1,34,-1
 809 25 l 1,35,-1
 792 19 l 1,36,37
 713 -10 713 -10 635 -10 c 0,38,39
 515 -10 515 -10 441 54 c 1,40,41
 374 -10 374 -10 257 -10 c 0,42,43
 177 -10 177 -10 118.5 32 c 128,-1,44
 60 74 60 74 60 135.5 c 128,-1,45
 60 197 60 197 111.5 237 c 128,-1,46
 163 277 163 277 260 286 c 0,47,48
 315 291 315 291 368 291 c 1,49,-1
 368 295 l 2,50,51
 368 393 368 393 260 393 c 0,52,53
 213 393 213 393 136 374 c 1,54,-1
 118 369 l 1,55,-1
 85 456 l 1,56,-1
 104 462 l 1,14,15
EndSplineSet
EndChar

StartChar: germandbls
Encoding: 223 223 113
Width: 694
VWidth: 1023
Flags: HW
HStem: -13 105<274.863 502.228> 0 21G<98 218> 11 95<272.022 396.271> 586 112<253.948 376.134>
VStem: 98 120<0 551.348> 406 133<482.518 557.383> 511 125<103.034 174.888>
LayerCount: 2
Fore
SplineSet
163.5 643 m 128,-1,1
 229 698 229 698 327 698 c 128,-1,2
 425 698 425 698 482 642 c 128,-1,3
 539 586 539 586 539 518 c 0,4,5
 539 480 539 480 516.5 449 c 128,-1,6
 494 418 494 418 467.5 402.5 c 128,-1,7
 441 387 441 387 418.5 370.5 c 128,-1,8
 396 354 396 354 396 339.5 c 128,-1,9
 396 325 396 325 420.5 313.5 c 128,-1,10
 445 302 445 302 480.5 291.5 c 128,-1,11
 516 281 516 281 551.5 265.5 c 128,-1,12
 587 250 587 250 611.5 217 c 128,-1,13
 636 184 636 184 636 136 c 0,14,15
 636 86 636 86 597 40 c 0,16,17
 577 16 577 16 537.5 1.5 c 128,-1,18
 498 -13 498 -13 429.5 -13 c 128,-1,19
 361 -13 361 -13 266 11 c 1,20,-1
 244 17 l 1,21,-1
 273 110 l 1,22,-1
 294 106 l 1,23,24
 378 92 378 92 425.5 92 c 128,-1,25
 473 92 473 92 492 104 c 128,-1,26
 511 116 511 116 511 140.5 c 128,-1,27
 511 165 511 165 485 180.5 c 128,-1,28
 459 196 459 196 421.5 206 c 128,-1,29
 384 216 384 216 347 229 c 128,-1,30
 310 242 310 242 284 270 c 128,-1,31
 258 298 258 298 258 337.5 c 128,-1,32
 258 377 258 377 281 405 c 0,33,34
 304 434 304 434 332 448 c 0,35,36
 406 486 406 486 406 513 c 0,37,38
 406 544 406 544 377 565 c 128,-1,39
 348 586 348 586 314 586 c 0,40,41
 290 586 290 586 259 570 c 0,42,43
 241 560 241 560 229.5 536.5 c 128,-1,44
 218 513 218 513 218 479 c 2,45,-1
 218 0 l 1,46,-1
 98 0 l 1,47,-1
 98 479 l 2,48,0
 98 588 98 588 163.5 643 c 128,-1,1
EndSplineSet
EndChar

StartChar: multiply
Encoding: 215 215 114
Width: 714
VWidth: 1023
Flags: HW
LayerCount: 2
Fore
SplineSet
169 81 m 1,0,-1
 89 160 l 1,1,-1
 270 319 l 1,2,-1
 93 474 l 1,3,-1
 172 554 l 1,4,-1
 369 392 l 1,5,-1
 562 551 l 1,6,-1
 641 471 l 1,7,-1
 461 312 l 1,8,-1
 638 157 l 1,9,-1
 558 77 l 1,10,-1
 361 239 l 1,11,-1
 169 81 l 1,0,-1
EndSplineSet
EndChar

StartChar: divide
Encoding: 247 247 115
Width: 763
VWidth: 1023
Flags: HW
HStem: 41 135<307 457> 267 108<61 703> 467 135<307 457>
VStem: 307 150<41 176 467 602>
LayerCount: 2
Fore
SplineSet
307 602 m 1,0,-1
 457 602 l 1,1,-1
 457 467 l 1,2,-1
 307 467 l 1,3,-1
 307 602 l 1,0,-1
307 176 m 1,4,-1
 457 176 l 1,5,-1
 457 41 l 1,6,-1
 307 41 l 1,7,-1
 307 176 l 1,4,-1
61 375 m 1,8,-1
 703 375 l 1,9,-1
 703 267 l 1,10,-1
 61 267 l 1,11,-1
 61 375 l 1,8,-1
EndSplineSet
EndChar

StartChar: oslash
Encoding: 248 248 116
Width: 671
VWidth: 1023
Flags: HW
HStem: -10 109<269.382 424.541> 383 109<248.337 417.206>
VStem: 63 119<169.036 320.588> 490 118<163.739 298.564>
LayerCount: 2
Back
SplineSet
576.172 494.141 m 1,0,-1
 633.301 442.871 l 1,1,-1
 577.637 389.648 l 1,2,3
 596.533835233 361.117588215 596.533835233 361.117588215 606.372417617 326.084845542 c 0
 616.211 291.052102869 616.211 291.052102869 616.211 250.488 c 0,4,5
 616.211 107.097135794 616.211 107.097135794 511.010158341 37.0717277279 c 0
 439.888179717 -9.48163548808 439.888179717 -9.48163548808 338.379 -9.76562 c 0,6,7
 236.145982758 -9.76562 236.145982758 -9.76562 165.527 40.0391 c 1,8,-1
 110.84 -15.625 l 1,9,-1
 53.7109 35.6445 l 1,10,-1
 112.305 91.3086 l 1,11,12
 72.0674427943 152.090484555 72.0674427943 152.090484555 71.7773 235.84 c 0,13,14
 71.7773 353.516108853 71.7773 353.516108853 146.000758031 422.607554427 c 0
 220.224216061 491.699 220.224216061 491.699 347.168 491.699 c 0,15,16
 380.999085127 491.699 380.999085127 491.699 412.477008772 486.061099729 c 0
 443.954932416 480.423199458 443.954932416 480.423199458 472.451657895 469.016566937 c 0
 500.948383373 457.609934417 500.948383373 457.609934417 524.414 440.918 c 1,17,-1
 576.172 494.141 l 1,0,-1
339.355 383.301 m 0,18,19
 311.934136332 383.301 311.934136332 383.301 286.20099668 373.576688417 c 0
 260.467857029 363.852376835 260.467857029 363.852376835 239.250206445 345.463592833 c 0
 218.032555861 327.07480883 218.032555861 327.07480883 205.20777793 296.946875917 c 0
 192.383 266.818943005 192.383 266.818943005 192.383 229.492 c 0,20,21
 192.383 187.256675064 192.383 187.256675064 207.031 152.832 c 1,22,-1
 429.688 354.492 l 1,23,24
 389.354514976 383.301 389.354514976 383.301 339.355 383.301 c 0,18,19
496.094 254.883 m 0,25,26
 495.755634966 294.688208848 495.755634966 294.688208848 482.422 328.125 c 1,27,-1
 259.277 126.465 l 1,28,29
 277.947483098 113.022313349 277.947483098 113.022313349 300.454144261 105.827556675 c 0
 322.960805424 98.6328 322.960805424 98.6328 348.145 98.6328 c 0,30,31
 389.086578119 98.6328 389.086578119 98.6328 422.54864453 117.338800938 c 0
 456.01071094 136.044801876 456.01071094 136.044801876 476.05235547 172.048999062 c 0
 496.094 208.053196247 496.094 208.053196247 496.094 254.883 c 0,25,26
EndSplineSet
Fore
SplineSet
578 498 m 1,0,-1
 630 440 l 1,1,-1
 570 386 l 1,2,3
 608 327 608 327 608 250 c 0,4,5
 608 130 608 130 532.5 60 c 128,-1,6
 457 -10 457 -10 330 -10 c 0,7,8
 237 -10 237 -10 173 28 c 1,9,-1
 112 -27 l 1,10,-1
 60 31 l 1,11,-1
 114 80 l 1,12,13
 63 144 63 144 63 236 c 0,14,15
 63 354 63 354 137.5 423 c 128,-1,16
 212 492 212 492 329 492 c 128,-1,17
 446 492 446 492 516 442 c 1,18,-1
 578 498 l 1,0,-1
423 358 m 1,19,20
 383 383 383 383 327 383 c 128,-1,21
 271 383 271 383 226.5 348 c 128,-1,22
 182 313 182 313 182 256 c 128,-1,23
 182 199 182 199 207 164 c 1,24,-1
 423 358 l 1,19,20
476 300 m 1,25,-1
 268 113 l 1,26,27
 301 99 301 99 340 99 c 0,28,29
 404 99 404 99 447 136.5 c 128,-1,30
 490 174 490 174 490 236 c 0,31,32
 490 270 490 270 476 300 c 1,25,-1
EndSplineSet
EndChar

StartChar: OE
Encoding: 338 338 118
Width: 1055
VWidth: 1023
Flags: HW
HStem: 0 113<359.359 532 664 978> 301 113<664 951> 581 113<367.966 532 664 978>
VStem: 105 123<240.326 452.151> 532 132<113 301 414 581>
LayerCount: 2
Fore
SplineSet
532 113 m 1,0,-1
 532 581 l 1,1,-1
 524 581 l 2,2,3
 466 581 466 581 429 576 c 0,4,5
 333 563 333 563 280.5 502 c 128,-1,6
 228 441 228 441 228 349 c 128,-1,7
 228 257 228 257 268 206 c 128,-1,8
 308 155 308 155 358 134 c 128,-1,9
 408 113 408 113 488 113 c 2,10,-1
 532 113 l 1,0,-1
196 597 m 1,11,12
 270 666 270 666 374 682 c 0,13,14
 453 694 453 694 560 694 c 2,15,-1
 978 694 l 1,16,-1
 978 581 l 1,17,-1
 664 581 l 1,18,-1
 664 414 l 1,19,-1
 951 414 l 1,20,-1
 951 301 l 1,21,-1
 664 301 l 1,22,-1
 664 113 l 1,23,-1
 978 113 l 1,24,-1
 978 0 l 1,25,-1
 513 0 l 2,26,27
 374 0 374 0 291.5 31.5 c 128,-1,28
 209 63 209 63 157 142.5 c 128,-1,29
 105 222 105 222 105 343 c 0,30,31
 105 506 105 506 196 597 c 1,11,12
EndSplineSet
EndChar

StartChar: oe
Encoding: 339 339 119
Width: 960
VWidth: 0
Flags: HW
HStem: -11 95<631.247 838.072> -10 108<244.22 391.444> 17 82<772.669 851.571> 179 100<568 780> 381 108<238.185 382.212> 397 90<617.415 743.654>
VStem: 63 119<163.558 323.154> 443 454<179.12 277.817> 780 117<279 358.826>
LayerCount: 2
Fore
SplineSet
407 132.5 m 128,-1,1
 443 167 443 167 443 237 c 128,-1,2
 443 307 443 307 403.5 344 c 128,-1,3
 364 381 364 381 309 381 c 128,-1,4
 254 381 254 381 218 343 c 128,-1,5
 182 305 182 305 182 244 c 128,-1,6
 182 183 182 183 220 140.5 c 128,-1,7
 258 98 258 98 314.5 98 c 128,-1,0
 371 98 371 98 407 132.5 c 128,-1,1
682 397 m 0,8,9
 632 397 632 397 603 363 c 128,-1,10
 574 329 574 329 568 279 c 1,11,-1
 780 279 l 1,12,13
 775 397 775 397 682 397 c 0,8,9
700 487 m 0,14,15
 753 487 753 487 791.5 469.5 c 128,-1,16
 830 452 830 452 850 428 c 128,-1,17
 870 404 870 404 881 366 c 0,18,19
 897 311 897 311 897 232 c 2,20,-1
 897 179 l 1,21,-1
 567 179 l 1,22,23
 576 141 576 141 618.5 112.5 c 128,-1,24
 661 84 661 84 731 84 c 0,25,26
 772 84 772 84 830 99 c 1,27,-1
 851 104 l 1,28,-1
 873 22 l 1,29,-1
 856 17 l 1,30,31
 779 -11 779 -11 697 -11 c 0,32,33
 564 -11 564 -11 498 65 c 1,34,35
 426 -10 426 -10 311.5 -10 c 128,-1,36
 197 -10 197 -10 130 57 c 128,-1,37
 63 124 63 124 63 238 c 128,-1,38
 63 352 63 352 132.5 420.5 c 128,-1,39
 202 489 202 489 323.5 489 c 128,-1,40
 445 489 445 489 512 408 c 1,41,42
 583 487 583 487 700 487 c 0,14,15
EndSplineSet
EndChar

StartChar: AE
Encoding: 198 198 120
Width: 1015
VWidth: 1023
Flags: HW
HStem: 0 113<632 946> 182 112<316 501> 301 113<632 919> 581 113<442 501 632 946>
VStem: 501 131<113 182 294 301 414 581>
LayerCount: 2
Fore
SplineSet
442 581 m 1,0,-1
 316 294 l 1,1,-1
 501 294 l 1,2,-1
 501 581 l 1,3,-1
 442 581 l 1,0,-1
361 694 m 1,4,-1
 946 694 l 1,5,-1
 946 581 l 1,6,-1
 632 581 l 1,7,-1
 632 414 l 1,8,-1
 919 414 l 1,9,-1
 919 301 l 1,10,-1
 632 301 l 1,11,-1
 632 113 l 1,12,-1
 946 113 l 1,13,-1
 946 0 l 1,14,-1
 501 0 l 1,15,-1
 501 182 l 1,16,-1
 269 182 l 1,17,-1
 186 0 l 1,18,-1
 63 0 l 1,19,-1
 361 694 l 1,4,-1
EndSplineSet
EndChar

StartChar: onequarter
Encoding: 188 188 121
Width: 878
VWidth: 0
Flags: HW
HStem: 83 78<595 679 768 820>
VStem: 144 89<290 614> 679 89<-12 83 161 293>
LayerCount: 2
Fore
SplineSet
569 706 m 1,0,-1
 683 706 l 1,1,-1
 268 -12 l 1,2,-1
 154 -12 l 1,3,-1
 569 706 l 1,0,-1
165 706 m 1,4,-1
 233 706 l 1,5,-1
 233 290 l 1,6,-1
 144 290 l 1,7,-1
 144 614 l 1,8,-1
 79 596 l 1,9,-1
 59 677 l 1,10,-1
 165 706 l 1,4,-1
673 420 m 1,11,-1
 768 420 l 1,12,-1
 768 161 l 1,13,-1
 820 161 l 1,14,-1
 820 83 l 1,15,-1
 768 83 l 1,16,-1
 768 -12 l 1,17,-1
 679 -12 l 1,18,-1
 679 83 l 1,19,-1
 488 83 l 1,20,-1
 488 143 l 1,21,-1
 673 420 l 1,11,-1
679 293 m 1,22,-1
 595 161 l 1,23,-1
 679 161 l 1,24,-1
 679 293 l 1,22,-1
EndSplineSet
EndChar

StartChar: onehalf
Encoding: 189 189 122
Width: 926
VWidth: 0
Flags: HW
HStem: -12 81<683 860> 343 80<616.758 755.283>
VStem: 144 89<285 614> 766 94<262.221 330.377>
LayerCount: 2
Back
SplineSet
166.504 693.848 m 5,0,-1
 221.191 693.848 l 1,1,-1
 221.191 296.875 l 1,2,-1
 156.25 296.875 l 1,3,-1
 156.25 630.371 l 1,4,-1
 87.8906 611.328 l 1,5,-1
 73.2422 668.457 l 1,6,-1
 166.504 693.848 l 5,0,-1
102.231 676.24 m 1,7,8
 166.696850239 707.788 166.696850239 707.788 220.553 707.788 c 0,9,10
 255.077206662 707.788 255.077206662 707.788 283.181218332 695.251158238 c 0
 311.285230002 682.714316475 311.285230002 682.714316475 327.418115001 660.161841762 c 0
 343.551 637.60936705 343.551 637.60936705 343.551 609.497 c 0,11,12
 343.551 553.343850335 343.551 553.343850335 297.709 523.999 c 1,13,14
 314.471160852 517.080491355 314.471160852 517.080491355 326.8180841 506.824041073 c 0
 339.165007348 496.567590791 339.165007348 496.567590791 346.310369025 484.217458927 c 0
 353.455730701 471.867327063 353.455730701 471.867327063 356.82836535 458.599541073 c 0
 360.201 445.331755084 360.201 445.331755084 360.201 430.64 c 0,15,16
 360.201 400.361826019 360.201 400.361826019 348.309825105 374.710707095 c 0
 336.418650209 349.05958817 336.418650209 349.05958817 315.654206145 331.428042905 c 0
 294.889762082 313.796497641 294.889762082 313.796497641 266.203387605 303.841207095 c 0
 237.517013128 293.885916549 237.517013128 293.885916549 204.465 293.677 c 2,17,-1
 203.365 293.677 l 2,18,19
 173.834874796 293.677 173.834874796 293.677 148.101959141 300.050104103 c 0
 122.369043487 306.423208206 122.369043487 306.423208206 94.9502 317.561 c 1,20,-1
 112.834 368.977 l 1,21,22
 148.299379493 359.194281586 148.299379493 359.194281586 167.836009073 355.708140793 c 0
 187.372638652 352.222 187.372638652 352.222 204.977 352.222 c 0,23,24
 229.897616162 352.222 229.897616162 352.222 251.015570707 360.66977988 c 0
 272.133525253 369.117559761 272.133525253 369.117559761 285.014762626 385.02422012 c 0
 297.896 400.930880478 297.896 400.930880478 297.896 420.972 c 0,25,26
 297.896 447.119771976 297.896 447.119771976 272.930779346 468.152385988 c 0
 247.965558692 489.185 247.965558692 489.185 189.938 489.185 c 2,27,-1
 176.51 489.185 l 1,28,-1
 176.51 544.302 l 1,29,30
 281.783 547.052547992 281.783 547.052547992 281.783 601.978 c 0,31,32
 281.783 614.545407593 281.783 614.545407593 274.241702391 625.371601898 c 0
 266.700404782 636.197796204 266.700404782 636.197796204 251.059630942 643.257398102 c 0
 235.418857103 650.317 235.418857103 650.317 214.645 650.317 c 0,33,34
 177.143175597 650.317 177.143175597 650.317 123.422 625.537 c 1,35,-1
 102.231 676.24 l 1,7,8
EndSplineSet
Fore
SplineSet
569 706 m 1,0,-1
 683 706 l 1,1,-1
 268 -12 l 1,2,-1
 154 -12 l 1,3,-1
 569 706 l 1,0,-1
165 706 m 1,4,-1
 233 706 l 1,5,-1
 233 285 l 1,6,-1
 144 285 l 1,7,-1
 144 614 l 1,8,-1
 79 596 l 1,9,-1
 59 677 l 1,10,-1
 165 706 l 1,4,-1
577 37 m 5,11,12
 594 92 594 92 627.5 139 c 128,-1,13
 661 186 661 186 690.5 211 c 128,-1,14
 720 236 720 236 743 259 c 128,-1,15
 766 282 766 282 766 298 c 128,-1,16
 766 314 766 314 747.5 328.5 c 128,-1,17
 729 343 729 343 700.5 343 c 128,-1,18
 672 343 672 343 605 317 c 1,19,-1
 594 313 l 1,20,-1
 564 383 l 1,21,-1
 575 389 l 1,22,23
 648 423 648 423 709 423 c 128,-1,24
 770 423 770 423 812 390 c 128,-1,25
 854 357 854 357 854 305 c 0,26,27
 854 270 854 270 834 239.5 c 128,-1,28
 814 209 814 209 788 188 c 0,29,30
 711 125 711 125 683 69 c 1,31,-1
 860 69 l 1,32,-1
 860 -12 l 1,33,-1
 577 -12 l 1,34,-1
 577 37 l 5,11,12
EndSplineSet
EndChar

StartChar: threequarters
Encoding: 190 190 123
Width: 952
VWidth: 0
Flags: HW
HStem: 83 78<668 752 841 894> 281 83<101.374 267.655> 477 80<164 260.25> 638 82<134.362 264.974>
VStem: 270 85<570.658 630.488> 286 87<383.205 460.073> 752 89<-12 83 161 293>
LayerCount: 2
Fore
SplineSet
647 706 m 1,0,-1
 761 706 l 1,1,-1
 346 -12 l 1,2,-1
 232 -12 l 1,3,-1
 647 706 l 1,0,-1
746 420 m 1,4,-1
 841 420 l 1,5,-1
 841 161 l 1,6,-1
 894 161 l 1,7,-1
 894 83 l 1,8,-1
 841 83 l 1,9,-1
 841 -12 l 1,10,-1
 752 -12 l 1,11,-1
 752 83 l 1,12,-1
 562 83 l 1,13,-1
 562 143 l 1,14,-1
 746 420 l 1,4,-1
752 293 m 1,15,-1
 668 161 l 1,16,-1
 752 161 l 1,17,-1
 752 293 l 1,15,-1
97 687 m 1,18,19
 165 720 165 720 221.5 720 c 128,-1,20
 278 720 278 720 316.5 688.5 c 128,-1,21
 355 657 355 657 355 609 c 128,-1,22
 355 561 355 561 320 526 c 1,23,24
 373 494 373 494 373 429 c 128,-1,25
 373 364 373 364 324.5 322.5 c 128,-1,26
 276 281 276 281 203 281 c 0,27,28
 152 281 152 281 90 306 c 1,29,-1
 80 311 l 1,30,-1
 105 384 l 1,31,-1
 116 381 l 2,32,33
 179 364 179 364 208.5 364 c 128,-1,34
 238 364 238 364 262 380 c 128,-1,35
 286 396 286 396 286 421 c 0,36,37
 286 477 286 477 176 477 c 2,38,-1
 164 477 l 1,39,-1
 164 557 l 1,40,-1
 176 557 l 2,41,42
 270 557 270 557 270 602 c 0,43,44
 270 616 270 616 256 627 c 128,-1,45
 242 638 242 638 212 638 c 128,-1,46
 182 638 182 638 129 614 c 1,47,-1
 117 609 l 1,48,-1
 86 682 l 1,49,-1
 97 687 l 1,18,19
EndSplineSet
EndChar

StartChar: degree
Encoding: 176 176 124
Width: 287
Flags: HW
HStem: 473 85<108.425 179.026> 648 84<108.373 178.974>
VStem: 17 84<563.935 641.833> 186 85<564.207 642.019>
LayerCount: 2
Fore
SplineSet
144 648 m 128,-1,1
 126 648 126 648 113.5 634.5 c 0,2,3
 101 620 101 620 101 602 c 128,-1,4
 101 584 101 584 113 571 c 128,-1,5
 125 558 125 558 143 558 c 128,-1,6
 161 558 161 558 173.5 571.5 c 128,-1,7
 186 585 186 585 186 603 c 128,-1,8
 186 621 186 621 174 634.5 c 128,-1,0
 162 648 162 648 144 648 c 128,-1,1
271 603 m 128,-1,10
 271 549 271 549 234 511 c 0,11,12
 196 473 196 473 144 473 c 128,-1,13
 92 473 92 473 54.5 511 c 0,14,15
 17 548 17 548 17 602 c 128,-1,16
 17 656 17 656 54.5 694 c 128,-1,17
 92 732 92 732 144 732 c 128,-1,18
 196 732 196 732 233.5 694.5 c 128,-1,9
 271 657 271 657 271 603 c 128,-1,10
EndSplineSet
EndChar

StartChar: ccedilla
Encoding: 231 231 125
Width: 568
VWidth: 1023
Flags: HW
HStem: -243 86<221.982 364.73> -212 83<194.639 258.316> 379 109<251.904 479.066>
VStem: 63 125<161.956 318.773> 367 93<-154.931 -121.255>
LayerCount: 2
Back
SplineSet
331.543 -163.574 m 0,0,1
 331.543 -157.687117427 331.543 -157.687117427 330.21046214 -152.781878633 c 0
 328.87792428 -147.876639838 328.87792428 -147.876639838 325.491093415 -143.671059639 c 0
 322.10426255 -139.465479439 322.10426255 -139.465479439 318.550733745 -136.207206479 c 0
 314.99720494 -132.94893352 314.99720494 -132.94893352 308.229216872 -129.62010765 c 0
 301.461228804 -126.291281779 301.461228804 -126.291281779 295.847449795 -123.924484943 c 0
 290.233670785 -121.557688107 290.233670785 -121.557688107 280.245266255 -118.350126854 c 0
 270.256861725 -115.142565601 270.256861725 -115.142565601 262.743573251 -112.911755176 c 0
 255.230284778 -110.680944751 255.230284778 -110.680944751 242.182204526 -106.839158404 c 0
 229.134124275 -102.997372057 229.134124275 -102.997372057 219.727 -100.098 c 1,2,-1
 244.629 -6.83594 l 1,3,4
 208.697182342 -1.30795436757 208.697182342 -1.30795436757 178.398723099 13.2988276261 c 0
 148.100263855 27.9056096197 148.100263855 27.9056096197 121.162123776 54.4882839364 c 0
 94.2239836974 81.0709582531 94.2239836974 81.0709582531 78.8502918487 125.984798251 c 0
 63.4766 170.898638249 63.4766 170.898638249 63.4766 229.98 c 0,5,6
 63.4766 300.769096732 63.4766 300.769096732 83.8547672295 353.487995289 c 0
 104.232934459 406.206893845 104.232934459 406.206893845 138.931257771 435.101192211 c 0
 173.629581082 463.995490577 173.629581082 463.995490577 213.203417229 477.603245289 c 0
 252.777253377 491.211 252.777253377 491.211 297.363 491.211 c 0,7,8
 366.661391269 491.211 366.661391269 491.211 432.617 462.402 c 1,9,-1
 413.086 403.809 l 1,10,11
 358.966208227 422.363 358.966208227 422.363 307.129 422.363 c 0,12,13
 274.809205909 422.363 274.809205909 422.363 247.375086402 414.286980003 c 0
 219.940966894 406.210960005 219.940966894 406.210960005 194.900507348 387.661129372 c 0
 169.860047803 369.11129874 169.860047803 369.11129874 155.486523902 333.186573753 c 0
 141.113 297.261848766 141.113 297.261848766 141.113 247.07 c 0,14,15
 141.113 80.6838563135 141.113 80.6838563135 277.355753478 59.0572441292 c 0
 296.200821216 56.2225749215 296.200821216 56.2225749215 315.918 56.1523 c 0,16,17
 338.964848 56.1523 338.964848 56.1523 362.150081986 60.2925243923 c 0
 385.335315972 64.4327487847 385.335315972 64.4327487847 407.715 72.2656 c 1,18,-1
 427.246 17.0898 l 1,19,20
 411.238864165 10.8647743999 411.238864165 10.8647743999 394.898192974 6.07042770842 c 0
 378.557521783 1.27608101692 378.557521783 1.27608101692 363.235025776 -1.80562020842 c 0
 347.912529769 -4.88732143375 347.912529769 -4.88732143375 333.893505474 -6.70115979158 c 0
 319.874481179 -8.51499814942 319.874481179 -8.51499814942 306.152 -9.27734 c 1,21,-1
 290.527 -70.8008 l 2,22,23
 291.385996483 -71.0622315506 291.385996483 -71.0622315506 298.361202027 -73.0911298063 c 0
 305.336407571 -75.1200280621 305.336407571 -75.1200280621 308.635252973 -76.1744897937 c 0
 311.934098376 -77.2289515252 311.934098376 -77.2289515252 319.699152027 -80.1309622063 c 0
 327.464205678 -83.0329728875 327.464205678 -83.0329728875 331.994692973 -85.4448881937 c 0
 336.525180268 -87.8568034998 336.525180268 -87.8568034998 343.732422027 -92.1693994063 c 0
 350.939663785 -96.4819953129 350.939663785 -96.4819953129 355.354132973 -100.788836994 c 0
 359.768602161 -105.095678674 359.768602161 -105.095678674 365.070372027 -111.356332606 c 0
 370.372141893 -117.616986538 370.372141893 -117.616986538 373.322932973 -124.356227394 c 0
 376.273724054 -131.095468249 376.273724054 -131.095468249 378.322362027 -139.841653006 c 0
 380.371 -148.587837764 380.371 -148.587837764 380.371 -158.27 c 0,24,25
 380.371 -192.780194 380.371 -192.780194 353.43820397 -220.202597 c 0
 326.50540794 -247.625 326.50540794 -247.625 280.762 -247.625 c 0,26,27
 274.916351056 -247.625 274.916351056 -247.625 268.361520947 -247.045121769 c 0
 261.806690838 -246.465243538 261.806690838 -246.465243538 255.112577818 -245.36559428 c 0
 248.418464799 -244.265945023 248.418464799 -244.265945023 241.765221907 -242.921840562 c 0
 235.111979015 -241.5777361 235.111979015 -241.5777361 228.082287009 -239.795564102 c 0
 221.052595003 -238.013392104 221.052595003 -238.013392104 214.879638917 -236.339102565 c 0
 208.70668283 -234.664813025 208.70668283 -234.664813025 201.920111426 -232.634159438 c 0
 195.133540022 -230.603505851 195.133540022 -230.603505851 190.01957033 -229.033072386 c 0
 184.905600637 -227.462638921 184.905600637 -227.462638921 178.940849423 -225.617544898 c 0
 172.97609821 -223.772450875 172.97609821 -223.772450875 169.434 -222.723 c 1,28,-1
 182.129 -178.289 l 1,29,30
 258.626537035 -201.238 258.626537035 -201.238 282.715 -201.238 c 0,31,32
 305.151817472 -201.238 305.151817472 -201.238 318.347408736 -190.150531914 c 0
 331.543 -179.063063827 331.543 -179.063063827 331.543 -163.574 c 0,0,1
EndSplineSet
Fore
SplineSet
333 -157 m 2,0,1
 367 -157 367 -157 367 -139 c 0,2,3
 366 -127 366 -127 344 -120 c 0,4,5
 338 -118 338 -118 332 -116 c 128,-1,6
 326 -114 326 -114 316 -111.5 c 128,-1,7
 306 -109 306 -109 298 -107 c 0,8,9
 280 -103 280 -103 251 -95 c 2,10,-1
 229 -89 l 1,11,-1
 256 -5 l 1,12,13
 63 32 63 32 63 228 c 0,14,15
 63 298 63 298 87.5 350.5 c 128,-1,16
 112 403 112 403 154 432 c 0,17,18
 235 488 235 488 350 488 c 1,19,20
 432 488 432 488 500 458 c 2,21,-1
 518 450 l 1,22,-1
 486 355 l 1,23,-1
 467 361 l 1,24,25
 415 379 415 379 362 379 c 0,26,27
 188 379 188 379 188 243 c 0,28,29
 188 93 188 93 372 93 c 0,30,31
 420 93 420 93 461 108 c 1,32,-1
 480 114 l 1,33,-1
 513 22 l 1,34,-1
 495 15 l 2,35,36
 438 -7 438 -7 377 -12 c 1,37,-1
 371 -33 l 1,38,39
 460 -58 460 -58 460 -134 c 0,40,41
 460 -177 460 -177 426 -210 c 128,-1,42
 392 -243 392 -243 331 -243 c 0,43,44
 292 -243 292 -243 192 -217 c 1,45,-1
 169 -212 l 1,46,-1
 197 -129 l 1,47,-1
 220 -135 l 2,48,49
 307 -157 307 -157 331 -157 c 2,50,-1
 333 -157 l 2,0,1
EndSplineSet
EndChar

StartChar: cedilla
Encoding: 184 184 126
Width: 537
VWidth: 0
Flags: HW
HStem: -263 87<207.57 330.536> -231 83<185.976 235.225>
VStem: 331 88<-175.47 -138.27>
LayerCount: 2
Fore
SplineSet
207 -154 m 2,0,1
 277 -176 277 -176 304 -176 c 128,-1,2
 331 -176 331 -176 331 -158 c 0,3,4
 331 -141 331 -141 259 -122 c 0,5,6
 244 -118 244 -118 233 -114 c 1,7,-1
 214 -109 l 1,8,-1
 252 31 l 1,9,-1
 355 31 l 1,10,-1
 334 -52 l 1,11,12
 419 -79 419 -79 419 -153 c 0,13,14
 419 -196 419 -196 386.5 -229.5 c 128,-1,15
 354 -263 354 -263 300 -263 c 0,16,17
 267 -263 267 -263 183 -237 c 2,18,-1
 164 -231 l 1,19,-1
 188 -148 l 1,20,-1
 207 -154 l 2,0,1
EndSplineSet
EndChar

StartChar: Ccedilla
Encoding: 199 199 127
Width: 788
VWidth: 0
Flags: HW
HStem: -247 92<379.231 507.192> -215 90<347.744 406.141> -10 116<527 677.968> 585 114<414.412 669.04>
VStem: 134 127<253.335 439.507>
LayerCount: 2
Back
SplineSet
535.928 -154.191 m 0,0,1
 535.928 -191.52067684 535.928 -191.52067684 507.178287026 -219.25033842 c 0
 478.428574052 -246.98 478.428574052 -246.98 432.426 -246.98 c 0,2,3
 404.819869159 -246.98 404.819869159 -246.98 333.252 -225.931 c 2,4,-1
 316.65 -221.048 l 1,5,-1
 331.299 -170.267 l 1,6,-1
 345.947 -174.661 l 2,7,8
 413.959389166 -194.707 413.959389166 -194.707 436.025 -194.707 c 0,9,10
 450.052776842 -194.707 450.052776842 -194.707 460.512777544 -189.739014137 c 0
 470.972778246 -184.771028275 470.972778246 -184.771028275 475.997889123 -177.058319196 c 0
 481.023 -169.345610117 481.023 -169.345610117 481.023 -160.225 c 0,11,12
 480.442109835 -131.668949019 480.442109835 -131.668949019 433.35 -118.021 c 2,13,-1
 366.455 -98.001 l 1,14,-1
 393.057 -1.03516 l 1,15,16
 313.170079345 16.5203582113 313.170079345 16.5203582113 254.08460317 66.789827756 c 0
 194.999126994 117.059297301 194.999126994 117.059297301 164.638063497 189.105852244 c 0
 134.277 261.152407187 134.277 261.152407187 134.277 346.191 c 0,17,18
 134.277 383.444287611 134.277 383.444287611 140.457812904 418.663213903 c 0
 146.638625808 453.882140195 146.638625808 453.882140195 158.411626549 485.540307581 c 0
 170.184627291 517.198474968 170.184627291 517.198474968 187.767738685 545.484709997 c 0
 205.350850079 573.770945026 205.350850079 573.770945026 227.625548424 597.364323206 c 0
 249.90024677 620.957701387 249.90024677 620.957701387 277.649680091 639.827877966 c 0
 305.399113413 658.698054544 305.399113413 658.698054544 336.939532799 671.743276331 c 0
 368.479952186 684.788498119 368.479952186 684.788498119 405.159730873 691.759249059 c 0
 441.839509559 698.73 441.839509559 698.73 481.445 698.73 c 0,19,20
 576.172175446 698.73 576.172175446 698.73 669.922 661.621 c 1,21,-1
 644.531 592.773 l 1,22,23
 607.476932583 605.582021624 607.476932583 605.582021624 573.794451312 613.268672073 c 0
 540.111970042 620.955322521 540.111970042 620.955322521 519.141882021 623.221661261 c 0
 498.171794 625.488 498.171794 625.488 479.004 625.488 c 0,24,25
 351.413848615 625.488 351.413848615 625.488 275.947102778 526.279217719 c 0
 217.641571035 448.529951466 217.641571035 448.529951466 217.285 346.68 c 0,26,27
 217.285 229.122084516 217.285 229.122084516 294.463164229 147.764142258 c 0
 371.641328457 66.4062 371.641328457 66.4062 497.07 66.4062 c 0,28,29
 572.349291136 66.4062 572.349291136 66.4062 653.809 95.7031 c 1,30,-1
 679.199 34.1797 l 1,31,32
 628.017433774 12.1430265152 628.017433774 12.1430265152 575.75219268 1.18870325761 c 0
 523.486951587 -9.76562 523.486951587 -9.76562 476.074 -9.76562 c 0,33,34
 474.33282624 -9.76562 474.33282624 -9.76562 472.595783625 -9.75137819894 c 0
 470.85874101 -9.73713639787 470.85874101 -9.73713639787 469.130403875 -9.70872664481 c 0
 467.402066741 -9.68031689176 467.402066741 -9.68031689176 465.682408625 -9.63791538644 c 0
 463.962750508 -9.59551388111 463.962750508 -9.59551388111 462.248 -9.53906 c 1,35,-1
 448.006 -65.875 l 2,36,37
 448.705335552 -66.0847864297 448.705335552 -66.0847864297 451.088917533 -66.6991481064 c 0
 535.928 -88.5661874444 535.928 -88.5661874444 535.928 -154.191 c 0,0,1
EndSplineSet
Fore
SplineSet
371 -131 m 2,0,1
 455 -155 455 -155 481.5 -155 c 128,-1,2
 508 -155 508 -155 508 -140 c 0,3,4
 508 -130 508 -130 486 -122 c 0,5,6
 454 -111 454 -111 397 -97 c 2,7,-1
 376 -92 l 1,8,-1
 406 4 l 1,9,10
 277 35 277 35 205.5 128.5 c 128,-1,11
 134 222 134 222 134 347 c 0,12,13
 134 501 134 501 241.5 600 c 128,-1,14
 349 699 349 699 531 699 c 0,15,16
 639 699 639 699 737 660 c 2,17,-1
 755 653 l 1,18,-1
 717 547 l 1,19,-1
 698 554 l 1,20,21
 606 585 606 585 528 585 c 0,22,23
 408 585 408 585 334.5 515 c 128,-1,24
 261 445 261 445 261 346 c 128,-1,25
 261 247 261 247 340 176.5 c 128,-1,26
 419 106 419 106 548 106 c 0,27,28
 625 106 625 106 707 135 c 1,29,-1
 725 141 l 1,30,-1
 765 43 l 1,31,-1
 747 36 l 1,32,33
 640 -10 640 -10 527 -10 c 1,34,-1
 521 -32 l 1,35,36
 613 -60 613 -60 613 -134 c 0,37,38
 613 -180 613 -180 575 -213.5 c 128,-1,39
 537 -247 537 -247 477 -247 c 0,40,41
 444 -247 444 -247 342 -220 c 1,42,-1
 321 -215 l 1,43,-1
 350 -125 l 1,44,-1
 371 -131 l 2,0,1
EndSplineSet
EndChar

StartChar: dieresis
Encoding: 168 168 128
Width: 585
VWidth: 0
Flags: HW
HStem: 583 131<118 249 337 468>
VStem: 118 131<583 714> 337 131<583 714>
LayerCount: 2
Fore
SplineSet
118 714 m 1,0,-1
 249 714 l 1,1,-1
 249 583 l 1,2,-1
 118 583 l 1,3,-1
 118 714 l 1,0,-1
337 714 m 1,4,-1
 468 714 l 1,5,-1
 468 583 l 1,6,-1
 337 583 l 1,7,-1
 337 714 l 1,4,-1
EndSplineSet
EndChar

StartChar: Adieresis
Encoding: 196 196 129
Width: 755
VWidth: 0
Flags: HW
HStem: 0 21G<63 191.462 612.429 748> 182 112<303 500> 674 20G<330.075 480.925> 796 130<214 358 455 599>
VStem: 214 144<796 926> 455 144<796 926>
LayerCount: 2
Fore
SplineSet
338 694 m 1,0,-1
 473 694 l 1,1,-1
 748 0 l 1,2,-1
 621 0 l 1,3,-1
 543 182 l 1,4,-1
 260 182 l 1,5,-1
 183 0 l 1,6,-1
 63 0 l 1,7,-1
 338 694 l 1,0,-1
500 294 m 1,8,-1
 402 552 l 1,9,-1
 303 294 l 1,10,-1
 500 294 l 1,8,-1
214 926 m 1,11,-1
 358 926 l 1,12,-1
 358 796 l 1,13,-1
 214 796 l 1,14,-1
 214 926 l 1,11,-1
455 926 m 1,15,-1
 599 926 l 1,16,-1
 599 796 l 1,17,-1
 455 796 l 1,18,-1
 455 926 l 1,15,-1
EndSplineSet
EndChar

StartChar: Edieresis
Encoding: 203 203 130
Width: 706
VWidth: 1023
Flags: HW
HStem: 0 113<265 628> 301 113<265 602> 581 113<265 628> 796 131<190 332 438 580>
VStem: 142 123<113 301 414 581> 190 142<796 927> 438 142<796 927>
LayerCount: 2
Fore
SplineSet
142 694 m 1,0,-1
 628 694 l 1,1,-1
 628 581 l 1,2,-1
 265 581 l 1,3,-1
 265 414 l 1,4,-1
 602 414 l 1,5,-1
 602 301 l 1,6,-1
 265 301 l 1,7,-1
 265 113 l 1,8,-1
 628 113 l 1,9,-1
 628 0 l 1,10,-1
 142 0 l 1,11,-1
 142 694 l 1,0,-1
190 927 m 1,12,-1
 332 927 l 1,13,-1
 332 796 l 1,14,-1
 190 796 l 1,15,-1
 190 927 l 1,12,-1
438 927 m 1,16,-1
 580 927 l 1,17,-1
 580 796 l 1,18,-1
 438 796 l 1,19,-1
 438 927 l 1,16,-1
EndSplineSet
EndChar

StartChar: Idieresis
Encoding: 207 207 131
Width: 367
VWidth: 0
Flags: HW
HStem: 0 21G<142 265> 674 20G<142 265> 760 131<43 173 233 363>
VStem: 43 130<760 891> 142 123<0 694> 233 130<760 891>
LayerCount: 2
Fore
SplineSet
142 694 m 1,0,-1
 265 694 l 1,1,-1
 265 0 l 1,2,-1
 142 0 l 1,3,-1
 142 694 l 1,0,-1
43 891 m 1,4,-1
 173 891 l 1,5,-1
 173 760 l 1,6,-1
 43 760 l 1,7,-1
 43 891 l 1,4,-1
233 891 m 1,8,-1
 363 891 l 1,9,-1
 363 760 l 1,10,-1
 233 760 l 1,11,-1
 233 891 l 1,8,-1
EndSplineSet
EndChar

StartChar: Odieresis
Encoding: 214 214 132
Width: 903
VWidth: 0
Flags: HW
HStem: -7 112<370.856 577.057> 588 113<364.58 570.076> 796 131<286 428 525 667>
VStem: 105 126<248.908 459.514> 286 142<796 927> 525 142<796 927> 711 126<238.736 449.155>
LayerCount: 2
Fore
SplineSet
207 603.5 m 128,-1,1
 309 701 309 701 471 701 c 128,-1,2
 633 701 633 701 735 606.5 c 128,-1,3
 837 512 837 512 837 352.5 c 128,-1,4
 837 193 837 193 735 93 c 128,-1,5
 633 -7 633 -7 468 -7 c 0,6,7
 371 -7 371 -7 290.5 30.5 c 128,-1,8
 210 68 210 68 157.5 150 c 128,-1,9
 105 232 105 232 105 345 c 0,10,0
 105 506 105 506 207 603.5 c 128,-1,1
711 346 m 0,11,12
 711 407 711 407 689 455.5 c 128,-1,13
 667 504 667 504 631 532 c 0,14,15
 559 588 559 588 465.5 588 c 128,-1,16
 372 588 372 588 301.5 528.5 c 128,-1,17
 231 469 231 469 231 355.5 c 128,-1,18
 231 242 231 242 300.5 173.5 c 128,-1,19
 370 105 370 105 470 105 c 128,-1,20
 570 105 570 105 640.5 166.5 c 128,-1,21
 711 228 711 228 711 346 c 0,11,12
286 927 m 1,22,-1
 428 927 l 1,23,-1
 428 796 l 1,24,-1
 286 796 l 1,25,-1
 286 927 l 1,22,-1
525 927 m 1,26,-1
 667 927 l 1,27,-1
 667 796 l 1,28,-1
 525 796 l 1,29,-1
 525 927 l 1,26,-1
EndSplineSet
EndChar

StartChar: Udieresis
Encoding: 220 220 133
Width: 851
VWidth: 0
Flags: HW
HStem: -10 112<333.479 555.722> 674 20G<142 265 626 749> 796 131<250 396 495 640>
VStem: 142 123<167.592 694> 250 146<796 927> 495 145<796 927> 626 123<167.162 694>
LayerCount: 2
Fore
SplineSet
142 694 m 1,0,-1
 265 694 l 1,1,-1
 265 254 l 2,2,3
 264 192 264 192 296 150 c 0,4,5
 332 101 332 101 439 101.5 c 129,-1,6
 546 102 546 102 586 142.5 c 128,-1,7
 626 183 626 183 626 254 c 2,8,-1
 626 694 l 1,9,-1
 749 694 l 1,10,-1
 749 242 l 2,11,12
 749 157 749 157 724 112 c 0,13,14
 713 92 713 92 690 67 c 0,15,16
 668 42 668 42 636 26 c 0,17,18
 562 -10 562 -10 441 -10 c 0,19,20
 269 -10 269 -10 199 68 c 0,21,22
 177 92 177 92 166 112.5 c 0,23,24
 156 134 156 134 150 162 c 0,25,26
 142 201 142 201 142 242 c 2,27,-1
 142 694 l 1,0,-1
250 927 m 1,28,-1
 396 927 l 1,29,-1
 396 796 l 1,30,-1
 250 796 l 1,31,-1
 250 927 l 1,28,-1
495 927 m 1,32,-1
 640 927 l 1,33,-1
 640 796 l 1,34,-1
 495 796 l 1,35,-1
 495 927 l 1,32,-1
EndSplineSet
EndChar

StartChar: adieresis
Encoding: 228 228 134
Width: 602
VWidth: 0
Flags: HW
HStem: -10 103<201.821 369.537> 0 21G<415.875 514> 193 91<202.292 393> 358 97<111.742 159.087> 385 106<132.191 366.52> 563 131<126 274 383 516>
VStem: 60 120<114.834 170.45> 126 148<563 694> 383 133<563 694> 393 121<112.555 193 284 360.94>
LayerCount: 2
Fore
SplineSet
383 694 m 1,0,-1
 516 694 l 1,1,-1
 516 563 l 1,2,-1
 383 563 l 1,3,-1
 383 694 l 1,0,-1
126 694 m 1,4,-1
 274 694 l 1,5,-1
 274 563 l 1,6,-1
 126 563 l 1,7,-1
 126 694 l 1,4,-1
393 125 m 1,8,-1
 393 193 l 1,9,-1
 381 193 l 2,10,11
 180 193 180 193 180 142 c 0,12,13
 180 124 180 124 210.5 108.5 c 128,-1,14
 241 93 241 93 293.5 93 c 128,-1,15
 346 93 346 93 393 125 c 1,8,-1
104 460 m 1,16,17
 188 491 188 491 271.5 491 c 128,-1,18
 355 491 355 491 401.5 477 c 128,-1,19
 448 463 448 463 472 437 c 0,20,21
 514 390 514 390 514 314 c 2,22,-1
 514 0 l 1,23,-1
 424 0 l 1,24,-1
 411 32 l 1,25,26
 343 -10 343 -10 256.5 -10 c 128,-1,27
 170 -10 170 -10 115 32.5 c 128,-1,28
 60 75 60 75 60 133 c 0,29,30
 60 222 60 222 160 254 c 0,31,32
 247 282 247 282 393 284 c 1,33,-1
 393 301 l 2,34,35
 393 363 393 363 338 378 c 0,36,37
 312 385 312 385 260 385 c 128,-1,38
 208 385 208 385 131 364 c 1,39,-1
 112 358 l 1,40,-1
 87 455 l 1,41,-1
 104 460 l 1,16,17
EndSplineSet
EndChar

StartChar: edieresis
Encoding: 235 235 135
Width: 618
VWidth: 0
Flags: HW
HStem: -10 104<260.943 496.175> 184 100<187 437> 382 110<238.834 400.942> 563 131<144 292 397 534>
VStem: 144 148<563 694> 397 137<563 694>
LayerCount: 2
Fore
SplineSet
340 492 m 0,0,1
 399 492 399 492 441 474.5 c 128,-1,2
 483 457 483 457 504.5 433 c 128,-1,3
 526 409 526 409 538 370.5 c 128,-1,4
 550 332 550 332 552.5 304.5 c 128,-1,5
 555 277 555 277 555 238 c 2,6,-1
 555 184 l 1,7,-1
 187 184 l 1,8,9
 197 148 197 148 246 121 c 128,-1,10
 295 94 295 94 363 94 c 128,-1,11
 431 94 431 94 488 111 c 2,12,-1
 508 117 l 1,13,-1
 532 24 l 1,14,-1
 515 18 l 2,15,16
 435 -10 435 -10 347.5 -10 c 128,-1,17
 260 -10 260 -10 203.5 10.5 c 128,-1,18
 147 31 147 31 118 67 c 0,19,20
 63 135 63 135 63 227 c 0,21,22
 63 358 63 358 142 425 c 128,-1,23
 221 492 221 492 340 492 c 0,0,1
320 382 m 0,24,25
 262 382 262 382 227 354 c 128,-1,26
 192 326 192 326 186 284 c 1,27,-1
 437 284 l 1,28,29
 430 382 430 382 320 382 c 0,24,25
144 694 m 1,30,-1
 292 694 l 1,31,-1
 292 563 l 1,32,-1
 144 563 l 1,33,-1
 144 694 l 1,30,-1
397 694 m 1,34,-1
 534 694 l 1,35,-1
 534 563 l 1,36,-1
 397 563 l 1,37,-1
 397 694 l 1,34,-1
EndSplineSet
EndChar

StartChar: idieresis
Encoding: 239 239 136
Width: 295
VWidth: 0
Flags: HW
HStem: 0 21G<88 208> 462 20G<88 208> 563 131<-7 123 173 303>
VStem: -7 130<563 694> 88 120<0 482> 173 130<563 694>
LayerCount: 2
Fore
SplineSet
88 482 m 1,0,-1
 208 482 l 1,1,-1
 208 0 l 1,2,-1
 88 0 l 1,3,-1
 88 482 l 1,0,-1
-7 694 m 1,4,-1
 123 694 l 1,5,-1
 123 563 l 1,6,-1
 -7 563 l 1,7,-1
 -7 694 l 1,4,-1
173 694 m 1,8,-1
 303 694 l 1,9,-1
 303 563 l 1,10,-1
 173 563 l 1,11,-1
 173 694 l 1,8,-1
EndSplineSet
EndChar

StartChar: odieresis
Encoding: 246 246 137
Width: 671
VWidth: 0
Flags: HW
HStem: -10 109<256.861 424.541> 383 109<248.337 414.946> 563 131<156 302 404 545>
VStem: 63 119<172.971 320.588> 156 146<563 694> 404 141<563 694> 490 118<163.739 312.789>
LayerCount: 2
Fore
SplineSet
137.5 423 m 128,-1,1
 212 492 212 492 336 492 c 128,-1,2
 460 492 460 492 534 428 c 128,-1,3
 608 364 608 364 608 247 c 128,-1,4
 608 130 608 130 532.5 60 c 128,-1,5
 457 -10 457 -10 333 -10 c 128,-1,6
 209 -10 209 -10 136 56 c 128,-1,7
 63 122 63 122 63 238 c 128,-1,0
 63 354 63 354 137.5 423 c 128,-1,1
441.5 344 m 128,-1,9
 393 383 393 383 332 383 c 128,-1,10
 271 383 271 383 226.5 348 c 128,-1,11
 182 313 182 313 182 249 c 128,-1,12
 182 185 182 185 226 142 c 128,-1,13
 270 99 270 99 337 99 c 128,-1,14
 404 99 404 99 447 136.5 c 128,-1,15
 490 174 490 174 490 239.5 c 128,-1,8
 490 305 490 305 441.5 344 c 128,-1,9
156 694 m 1,16,-1
 302 694 l 1,17,-1
 302 563 l 1,18,-1
 156 563 l 1,19,-1
 156 694 l 1,16,-1
404 694 m 1,20,-1
 545 694 l 1,21,-1
 545 563 l 1,22,-1
 404 563 l 1,23,-1
 404 694 l 1,20,-1
EndSplineSet
EndChar

StartChar: udieresis
Encoding: 252 252 138
Width: 654
VWidth: 0
Flags: HW
HStem: -10 112<237.115 405.808> 0 21G<468.909 567> 462 20G<88 208 447 567> 563 131<135 277 383 524>
VStem: 88 120<132.365 482> 135 142<563 694> 383 141<563 694> 447 120<121.854 482>
LayerCount: 2
Fore
SplineSet
447 482 m 1,0,-1
 567 482 l 1,1,-1
 567 0 l 1,2,-1
 478 0 l 1,3,-1
 463 33 l 1,4,5
 363 -10 363 -10 274 -10 c 0,6,7
 142 -10 142 -10 106 82 c 0,8,9
 88 129 88 129 88 197 c 2,10,-1
 88 482 l 1,11,-1
 208 482 l 1,12,-1
 208 198 l 2,13,14
 208 132 208 132 256 112 c 0,15,16
 280 102 280 102 326.5 102 c 128,-1,17
 373 102 373 102 447 129 c 1,18,-1
 447 482 l 1,0,-1
135 694 m 1,19,-1
 277 694 l 1,20,-1
 277 563 l 1,21,-1
 135 563 l 1,22,-1
 135 694 l 1,19,-1
383 694 m 1,23,-1
 524 694 l 1,24,-1
 524 563 l 1,25,-1
 383 563 l 1,26,-1
 383 694 l 1,23,-1
EndSplineSet
EndChar

StartChar: ydieresis
Encoding: 255 255 139
Width: 592
VWidth: 0
Flags: HW
HStem: 462 20G<24 159.703 452 587> 563 131<117 262 364 507>
VStem: 117 145<563 694> 364 143<563 694>
LayerCount: 2
Fore
SplineSet
24 482 m 1,0,-1
 151 482 l 1,1,-1
 312 112 l 1,2,-1
 460 482 l 1,3,-1
 587 482 l 1,4,-1
 269 -259 l 1,5,-1
 124 -259 l 1,6,-1
 244 1 l 1,7,-1
 24 482 l 1,0,-1
117 694 m 1,8,-1
 262 694 l 1,9,-1
 262 563 l 1,10,-1
 117 563 l 1,11,-1
 117 694 l 1,8,-1
364 694 m 1,12,-1
 507 694 l 1,13,-1
 507 563 l 1,14,-1
 364 563 l 1,15,-1
 364 694 l 1,12,-1
EndSplineSet
EndChar

StartChar: dotlessi
Encoding: 305 305 140
Width: 295
VWidth: 1023
Flags: HW
HStem: 0 21G<88 208> 462 20G<88 208>
VStem: 88 120<0 482>
LayerCount: 2
Fore
SplineSet
88 482 m 1,0,-1
 208 482 l 1,1,-1
 208 0 l 1,2,-1
 88 0 l 1,3,-1
 88 482 l 1,0,-1
EndSplineSet
EndChar

StartChar: Agrave
Encoding: 192 192 141
Width: 755
VWidth: 0
Flags: HW
HStem: 0 21G<63 191.462 612.429 748> 182 112<303 500> 674 20G<330.075 480.925>
LayerCount: 2
Fore
SplineSet
338 694 m 1,0,-1
 473 694 l 1,1,-1
 748 0 l 1,2,-1
 621 0 l 1,3,-1
 543 182 l 1,4,-1
 260 182 l 1,5,-1
 183 0 l 1,6,-1
 63 0 l 1,7,-1
 338 694 l 1,0,-1
500 294 m 1,8,-1
 402 552 l 1,9,-1
 303 294 l 1,10,-1
 500 294 l 1,8,-1
288 950 m 1,11,-1
 596 777 l 1,12,-1
 541 690 l 1,13,-1
 228 854 l 1,14,-1
 288 950 l 1,11,-1
EndSplineSet
EndChar

StartChar: Aacute
Encoding: 193 193 142
Width: 755
VWidth: 0
Flags: HW
HStem: 0 21G<63 191.462 612.429 748> 182 112<303 500> 674 20G<330.075 480.925>
LayerCount: 2
Fore
SplineSet
338 694 m 1,0,-1
 473 694 l 1,1,-1
 748 0 l 1,2,-1
 621 0 l 1,3,-1
 543 182 l 1,4,-1
 260 182 l 1,5,-1
 183 0 l 1,6,-1
 63 0 l 1,7,-1
 338 694 l 1,0,-1
500 294 m 1,8,-1
 402 552 l 1,9,-1
 303 294 l 1,10,-1
 500 294 l 1,8,-1
522 950 m 1,11,-1
 583 854 l 1,12,-1
 269 690 l 1,13,-1
 214 777 l 1,14,-1
 522 950 l 1,11,-1
EndSplineSet
EndChar

StartChar: Acircumflex
Encoding: 194 194 143
Width: 755
VWidth: 0
Flags: HW
HStem: 0 21G<63 191.462 612.429 748> 182 112<303 500> 674 20G<330.075 480.925>
LayerCount: 2
Fore
SplineSet
338 694 m 1,0,-1
 473 694 l 1,1,-1
 748 0 l 1,2,-1
 621 0 l 1,3,-1
 543 182 l 1,4,-1
 260 182 l 1,5,-1
 183 0 l 1,6,-1
 63 0 l 1,7,-1
 338 694 l 1,0,-1
500 294 m 1,8,-1
 402 552 l 1,9,-1
 303 294 l 1,10,-1
 500 294 l 1,8,-1
417 949 m 1,11,-1
 584 779 l 1,12,-1
 503 708 l 1,13,-1
 409 803 l 1,14,-1
 313 709 l 1,15,-1
 233 774 l 1,16,-1
 417 949 l 1,11,-1
EndSplineSet
EndChar

StartChar: Atilde
Encoding: 195 195 144
Width: 755
VWidth: 0
Flags: HW
HStem: 0 21G<63 191.462 612.429 748> 182 112<303 500> 674 20G<330.075 480.925> 729 99<468.134 519.774> 817 99<314.07 365.866>
VStem: 195 102<738.108 807.578> 533 100<833.331 905.469>
LayerCount: 2
Fore
SplineSet
537 920 m 1,0,-1
 637 905 l 1,1,-1
 633 885 l 2,2,3
 619 811 619 811 604 784 c 0,4,5
 573 729 573 729 504 729 c 1,6,7
 461 731 461 731 424.5 753 c 128,-1,8
 388 775 388 775 365.5 796 c 128,-1,9
 343 817 343 817 333 817 c 0,10,11
 315 817 315 817 303 755 c 2,12,-1
 297 726 l 1,13,-1
 195 739 l 1,14,-1
 200 760 l 2,15,16
 201 763 201 763 204 779.5 c 128,-1,17
 207 796 207 796 209 802 c 128,-1,18
 211 808 211 808 215.5 824.5 c 128,-1,19
 220 841 220 841 224 848.5 c 128,-1,20
 228 856 228 856 235.5 869 c 128,-1,21
 243 882 243 882 251.5 888.5 c 0,22,23
 260 894 260 894 272 902 c 0,24,25
 291 915 291 915 327 915 c 0,26,27
 330 915 330 915 333 915 c 0,28,29
 373 914 373 914 409.5 892 c 128,-1,30
 446 870 446 870 468.5 849 c 128,-1,31
 491 828 491 828 502 828 c 128,-1,32
 513 828 513 828 518.5 843 c 128,-1,33
 524 858 524 858 527.5 875.5 c 0,34,35
 532 892 532 892 532 894 c 0,36,37
 534 898 534 898 533 901 c 2,38,-1
 537 920 l 1,0,-1
500 294 m 1,39,-1
 402 552 l 1,40,-1
 303 294 l 1,41,-1
 500 294 l 1,39,-1
338 694 m 1,42,-1
 473 694 l 1,43,-1
 748 0 l 1,44,-1
 621 0 l 1,45,-1
 543 182 l 1,46,-1
 260 182 l 1,47,-1
 183 0 l 1,48,-1
 63 0 l 1,49,-1
 338 694 l 1,42,-1
EndSplineSet
EndChar

StartChar: Aring
Encoding: 197 197 145
Width: 755
VWidth: 0
Flags: HW
HStem: 0 21G<63 191.462 612.429 748> 182 112<303 500> 824 91<358.594 454.987>
VStem: 243 103<727.703 810.55> 467 104<727.443 811.147>
LayerCount: 2
Fore
SplineSet
407 915 m 128,-1,1
 474 915 474 915 522.5 873 c 128,-1,2
 571 831 571 831 571 770 c 0,3,4
 571 733 571 733 549.5 701.5 c 128,-1,5
 528 670 528 670 492 652 c 1,6,-1
 748 0 l 1,7,-1
 621 0 l 1,8,-1
 543 182 l 1,9,-1
 260 182 l 1,10,-1
 183 0 l 1,11,-1
 63 0 l 1,12,-1
 320 653 l 1,13,14
 285 672 285 672 264 702.5 c 128,-1,15
 243 733 243 733 243 770 c 0,16,17
 243 830 243 830 291.5 872.5 c 128,-1,0
 340 915 340 915 407 915 c 128,-1,1
450.5 808 m 128,-1,19
 434 824 434 824 407.5 824 c 128,-1,20
 381 824 381 824 363.5 808 c 128,-1,21
 346 792 346 792 346 770 c 128,-1,22
 346 748 346 748 363 731.5 c 128,-1,23
 380 715 380 715 406.5 715 c 128,-1,24
 433 715 433 715 450 731.5 c 128,-1,25
 467 748 467 748 467 770 c 128,-1,18
 467 792 467 792 450.5 808 c 128,-1,19
500 294 m 1,26,-1
 402 552 l 1,27,-1
 303 294 l 1,28,-1
 500 294 l 1,26,-1
EndSplineSet
EndChar

StartChar: uni00B2
Encoding: 178 178 146
Width: 390
VWidth: 0
Flags: HW
HStem: 358 76<159 319> 682 74<92.5507 221.568>
VStem: 231 88<607.083 671.237>
LayerCount: 2
Fore
SplineSet
60 404 m 1,0,1
 76 454 76 454 106 497 c 128,-1,2
 136 540 136 540 163 562 c 0,3,4
 231 619 231 619 231 637 c 128,-1,5
 231 655 231 655 214.5 668.5 c 128,-1,6
 198 682 198 682 171.5 682 c 128,-1,7
 145 682 145 682 86 658 c 1,8,-1
 75 653 l 1,9,-1
 48 719 l 1,10,-1
 58 724 l 2,11,12
 120 756 120 756 178.5 756 c 128,-1,13
 237 756 237 756 275 725.5 c 128,-1,14
 313 695 313 695 313 651 c 128,-1,15
 313 607 313 607 285.5 574.5 c 128,-1,16
 258 542 258 542 217.5 506 c 128,-1,17
 177 470 177 470 159 434 c 1,18,-1
 319 434 l 1,19,-1
 319 358 l 1,20,-1
 60 358 l 1,21,-1
 60 404 l 1,0,1
EndSplineSet
EndChar

StartChar: uni00B3
Encoding: 179 179 147
Width: 390
VWidth: 1023
Flags: HW
HStem: 354 78<63.0981 221.203> 532 74<123 212.367> 678 77<90.3929 215.787>
VStem: 219 80<616.515 672.487> 233 81<446.829 518.014>
LayerCount: 2
Fore
SplineSet
62 725 m 2,0,1
 124 755 124 755 175.5 755 c 128,-1,2
 227 755 227 755 263 726 c 128,-1,3
 299 697 299 697 299 652 c 128,-1,4
 299 607 299 607 268 578 c 1,5,6
 314 549 314 549 314 489.5 c 128,-1,7
 314 430 314 430 270.5 392 c 128,-1,8
 227 354 227 354 168.5 354 c 128,-1,9
 110 354 110 354 57 376 c 1,10,-1
 46 381 l 1,11,-1
 69 449 l 1,12,-1
 81 446 l 1,13,14
 132 432 132 432 161 432 c 128,-1,15
 190 432 190 432 211.5 446 c 128,-1,16
 233 460 233 460 233 482 c 0,17,18
 233 532 233 532 135 532 c 2,19,-1
 123 532 l 1,20,-1
 123 606 l 1,21,-1
 135 606 l 2,22,23
 219 606 219 606 219 646 c 0,24,25
 219 658 219 658 206.5 668 c 128,-1,26
 194 678 194 678 166.5 678 c 128,-1,27
 139 678 139 678 92 657 c 1,28,-1
 81 651 l 1,29,-1
 52 720 l 1,30,-1
 62 725 l 2,0,1
EndSplineSet
EndChar

StartChar: acute
Encoding: 180 180 148
Width: 547
VWidth: 1023
Flags: HW
HStem: 542 260
LayerCount: 2
Fore
SplineSet
387 802 m 1,0,-1
 441 707 l 1,1,-1
 157 542 l 1,2,-1
 107 629 l 1,3,-1
 387 802 l 1,0,-1
EndSplineSet
EndChar

StartChar: uni00B9
Encoding: 185 185 149
Width: 265
VWidth: 0
Flags: HW
VStem: 100 80<359 669>
LayerCount: 2
Fore
SplineSet
121 750 m 1,0,-1
 180 750 l 1,1,-1
 180 359 l 1,2,-1
 100 359 l 1,3,-1
 100 669 l 1,4,-1
 33 650 l 1,5,-1
 15 721 l 1,6,-1
 121 750 l 1,0,-1
EndSplineSet
EndChar

StartChar: ordmasculine
Encoding: 186 186 150
Width: 372
VWidth: 1023
Flags: HW
HStem: 355 73<135.378 239.96> 679 75<132.075 240.938>
VStem: 21 80<465.601 646.076> 271 81<462.515 647.513>
LayerCount: 2
Fore
SplineSet
186 679 m 0,0,1
 152 679 152 679 126.5 653.5 c 128,-1,2
 101 628 101 628 101 556.5 c 128,-1,3
 101 485 101 485 127 456.5 c 128,-1,4
 153 428 153 428 187 428 c 128,-1,5
 221 428 221 428 246 456 c 128,-1,6
 271 484 271 484 271 558 c 0,7,8
 271 679 271 679 186 679 c 0,0,1
352 559 m 0,9,10
 352 465 352 465 305 410 c 128,-1,11
 258 355 258 355 186.5 355 c 128,-1,12
 115 355 115 355 68 403.5 c 128,-1,13
 21 452 21 452 21 552 c 128,-1,14
 21 652 21 652 70 703 c 128,-1,15
 119 754 119 754 187 754 c 0,16,17
 246 754 246 754 294 718 c 0,18,19
 320 698 320 698 336 657 c 128,-1,20
 352 616 352 616 352 559 c 0,9,10
EndSplineSet
EndChar

StartChar: Egrave
Encoding: 200 200 151
Width: 706
VWidth: 0
Flags: HW
HStem: 0 113<265 628> 301 113<265 602> 581 113<265 628> 700 21G<477.366 528.494>
VStem: 142 123<113 301 414 581>
LayerCount: 2
Fore
SplineSet
142 694 m 1,0,-1
 628 694 l 1,1,-1
 628 581 l 1,2,-1
 265 581 l 1,3,-1
 265 414 l 1,4,-1
 602 414 l 1,5,-1
 602 301 l 1,6,-1
 265 301 l 1,7,-1
 265 113 l 1,8,-1
 628 113 l 1,9,-1
 628 0 l 1,10,-1
 142 0 l 1,11,-1
 142 694 l 1,0,-1
247 959 m 1,12,-1
 567 787 l 1,13,-1
 517 700 l 1,14,-1
 192 864 l 1,15,-1
 247 959 l 1,12,-1
EndSplineSet
EndChar

StartChar: Eacute
Encoding: 201 201 152
Width: 706
VWidth: 0
Flags: HW
HStem: 0 113<265 628> 301 113<265 602> 581 113<265 628> 700 21G<250.506 301.512>
VStem: 142 123<113 301 414 581>
LayerCount: 2
Fore
SplineSet
142 694 m 1,0,-1
 628 694 l 1,1,-1
 628 581 l 1,2,-1
 265 581 l 1,3,-1
 265 414 l 1,4,-1
 602 414 l 1,5,-1
 602 301 l 1,6,-1
 265 301 l 1,7,-1
 265 113 l 1,8,-1
 628 113 l 1,9,-1
 628 0 l 1,10,-1
 142 0 l 1,11,-1
 142 694 l 1,0,-1
532 959 m 1,12,-1
 586 864 l 1,13,-1
 262 700 l 1,14,-1
 212 787 l 1,15,-1
 532 959 l 1,12,-1
EndSplineSet
EndChar

StartChar: Ecircumflex
Encoding: 202 202 153
Width: 706
VWidth: 0
Flags: HW
HStem: 0 113<265 628> 301 113<265 602> 581 113<265 628>
VStem: 142 123<113 301 414 581>
LayerCount: 2
Fore
SplineSet
142 694 m 1,0,-1
 628 694 l 1,1,-1
 628 581 l 1,2,-1
 265 581 l 1,3,-1
 265 414 l 1,4,-1
 602 414 l 1,5,-1
 602 301 l 1,6,-1
 265 301 l 1,7,-1
 265 113 l 1,8,-1
 628 113 l 1,9,-1
 628 0 l 1,10,-1
 142 0 l 1,11,-1
 142 694 l 1,0,-1
394 953 m 1,12,-1
 564 782 l 1,13,-1
 486 712 l 1,14,-1
 385 807 l 1,15,-1
 281 713 l 1,16,-1
 205 778 l 1,17,-1
 394 953 l 1,12,-1
EndSplineSet
EndChar

StartChar: Icircumflex
Encoding: 206 206 154
Width: 396
VWidth: 0
Flags: HW
HStem: 0 21G<165 288> 674 20G<165 288>
VStem: 165 123<0 694>
LayerCount: 2
Fore
SplineSet
165 694 m 1,0,-1
 288 694 l 1,1,-1
 288 0 l 1,2,-1
 165 0 l 1,3,-1
 165 694 l 1,0,-1
235 949 m 5,4,-1
 388 778 l 1,5,-1
 312 708 l 1,6,-1
 228 803 l 1,7,-1
 142 709 l 1,8,-1
 68 774 l 1,9,-1
 235 949 l 5,4,-1
EndSplineSet
EndChar

StartChar: Igrave
Encoding: 204 204 155
Width: 396
VWidth: 0
Flags: HW
HStem: 0 21G<164 287> 674 20G<164 287>
VStem: 164 123<0 694>
LayerCount: 2
Fore
SplineSet
164 694 m 1,0,-1
 287 694 l 1,1,-1
 287 0 l 1,2,-1
 164 0 l 1,3,-1
 164 694 l 1,0,-1
122 949 m 1,4,-1
 402 776 l 1,5,-1
 351 690 l 1,6,-1
 66 854 l 1,7,-1
 122 949 l 1,4,-1
EndSplineSet
EndChar

StartChar: Iacute
Encoding: 205 205 156
Width: 436
VWidth: 0
Flags: HW
HStem: 0 21G<203 326> 674 20G<203 326>
VStem: 203 123<0 694>
LayerCount: 2
Fore
SplineSet
203 694 m 1,0,-1
 326 694 l 1,1,-1
 326 0 l 1,2,-1
 203 0 l 1,3,-1
 203 694 l 1,0,-1
382 950 m 5,4,-1
 437 855 l 1,5,-1
 112 690 l 1,6,-1
 62 778 l 1,7,-1
 382 950 l 5,4,-1
EndSplineSet
EndChar

StartChar: Ntilde
Encoding: 209 209 157
Width: 890
VWidth: 0
Flags: HW
HStem: 0 21G<142 265 635.581 788> 674 20G<142 291.559 665 788> 729 99<531.76 583.271> 817 99<377.828 429.844>
VStem: 142 123<0 534> 259 101<738.099 804.36> 665 123<161 694>
LayerCount: 2
Fore
SplineSet
601 920 m 1,0,-1
 701 905 l 1,1,-1
 696 885 l 1,2,3
 696 873 696 873 688 842 c 128,-1,4
 680 811 680 811 677 805 c 128,-1,5
 674 799 674 799 668 786 c 128,-1,6
 662 773 662 773 656 767 c 2,7,-1
 641 752 l 2,8,9
 618 729 618 729 568 729 c 1,10,11
 525 731 525 731 488.5 753 c 128,-1,12
 452 775 452 775 429.5 796 c 128,-1,13
 407 817 407 817 397 817 c 0,14,15
 378 817 378 817 365 751 c 0,16,17
 364 747 364 747 364 745 c 2,18,-1
 360 726 l 1,19,-1
 259 739 l 1,20,-1
 263 760 l 2,21,22
 263 761 263 761 267 779.5 c 128,-1,23
 271 798 271 798 272.5 802.5 c 128,-1,24
 274 807 274 807 278.5 824.5 c 128,-1,25
 283 842 283 842 287.5 848.5 c 128,-1,26
 292 855 292 855 299.5 868.5 c 128,-1,27
 307 882 307 882 315.5 888 c 128,-1,28
 324 894 324 894 336 902 c 0,29,30
 355 916 355 916 389 916 c 0,31,32
 390 916 390 916 392 916 c 0,33,34
 428 916 428 916 458.5 901.5 c 0,35,36
 489 886 489 886 506 870 c 0,37,38
 550 828 550 828 563 828 c 128,-1,39
 576 828 576 828 581.5 843 c 128,-1,40
 587 858 587 858 590.5 875.5 c 0,41,42
 594 892 594 892 594 894 c 0,43,44
 596 898 596 898 596 901 c 2,45,-1
 601 920 l 1,0,-1
142 694 m 1,46,-1
 277 694 l 1,47,-1
 665 161 l 1,48,-1
 665 694 l 1,49,-1
 788 694 l 1,50,-1
 788 0 l 1,51,-1
 650 0 l 1,52,-1
 265 534 l 1,53,-1
 265 0 l 1,54,-1
 142 0 l 1,55,-1
 142 694 l 1,46,-1
EndSplineSet
EndChar

StartChar: Ograve
Encoding: 210 210 158
Width: 903
VWidth: 0
Flags: HW
HStem: -7 112<370.856 577.057> 588 113<364.58 570.076>
VStem: 105 126<248.908 459.514> 711 126<238.736 449.155>
LayerCount: 2
Fore
SplineSet
207 603.5 m 128,-1,1
 309 701 309 701 471 701 c 128,-1,2
 633 701 633 701 735 606.5 c 128,-1,3
 837 512 837 512 837 352.5 c 128,-1,4
 837 193 837 193 735 93 c 128,-1,5
 633 -7 633 -7 468 -7 c 0,6,7
 371 -7 371 -7 290.5 30.5 c 128,-1,8
 210 68 210 68 157.5 150 c 128,-1,9
 105 232 105 232 105 345 c 0,10,0
 105 506 105 506 207 603.5 c 128,-1,1
711 346 m 0,11,12
 711 407 711 407 689 455.5 c 128,-1,13
 667 504 667 504 631 532 c 0,14,15
 559 588 559 588 465.5 588 c 128,-1,16
 372 588 372 588 301.5 528.5 c 128,-1,17
 231 469 231 469 231 355.5 c 128,-1,18
 231 242 231 242 300.5 173.5 c 128,-1,19
 370 105 370 105 470 105 c 128,-1,20
 570 105 570 105 640.5 166.5 c 128,-1,21
 711 228 711 228 711 346 c 0,11,12
386 951 m 1,22,-1
 691 779 l 1,23,-1
 636 692 l 1,24,-1
 326 856 l 1,25,-1
 386 951 l 1,22,-1
EndSplineSet
EndChar

StartChar: Oacute
Encoding: 211 211 159
Width: 903
VWidth: 0
Flags: HW
HStem: -7 112<370.856 577.057> 588 113<364.58 570.076>
VStem: 105 126<248.908 459.514> 711 126<238.736 449.155>
LayerCount: 2
Fore
SplineSet
207 603.5 m 128,-1,1
 309 701 309 701 471 701 c 128,-1,2
 633 701 633 701 735 606.5 c 128,-1,3
 837 512 837 512 837 352.5 c 128,-1,4
 837 193 837 193 735 93 c 128,-1,5
 633 -7 633 -7 468 -7 c 0,6,7
 371 -7 371 -7 290.5 30.5 c 128,-1,8
 210 68 210 68 157.5 150 c 128,-1,9
 105 232 105 232 105 345 c 0,10,0
 105 506 105 506 207 603.5 c 128,-1,1
711 346 m 0,11,12
 711 407 711 407 689 455.5 c 128,-1,13
 667 504 667 504 631 532 c 0,14,15
 559 588 559 588 465.5 588 c 128,-1,16
 372 588 372 588 301.5 528.5 c 128,-1,17
 231 469 231 469 231 355.5 c 128,-1,18
 231 242 231 242 300.5 173.5 c 128,-1,19
 370 105 370 105 470 105 c 128,-1,20
 570 105 570 105 640.5 166.5 c 128,-1,21
 711 228 711 228 711 346 c 0,11,12
598 950 m 1,22,-1
 657 855 l 1,23,-1
 347 690 l 1,24,-1
 293 778 l 1,25,-1
 598 950 l 1,22,-1
EndSplineSet
EndChar

StartChar: Ocircumflex
Encoding: 212 212 160
Width: 903
VWidth: 0
Flags: HW
HStem: -7 112<370.856 577.057> 588 113<364.58 570.076>
VStem: 105 126<248.908 459.514> 711 126<238.736 449.155>
LayerCount: 2
Fore
SplineSet
207 603.5 m 128,-1,1
 309 701 309 701 471 701 c 128,-1,2
 633 701 633 701 735 606.5 c 128,-1,3
 837 512 837 512 837 352.5 c 128,-1,4
 837 193 837 193 735 93 c 128,-1,5
 633 -7 633 -7 468 -7 c 0,6,7
 371 -7 371 -7 290.5 30.5 c 128,-1,8
 210 68 210 68 157.5 150 c 128,-1,9
 105 232 105 232 105 345 c 0,10,0
 105 506 105 506 207 603.5 c 128,-1,1
711 346 m 0,11,12
 711 407 711 407 689 455.5 c 128,-1,13
 667 504 667 504 631 532 c 0,14,15
 559 588 559 588 465.5 588 c 128,-1,16
 372 588 372 588 301.5 528.5 c 128,-1,17
 231 469 231 469 231 355.5 c 128,-1,18
 231 242 231 242 300.5 173.5 c 128,-1,19
 370 105 370 105 470 105 c 128,-1,20
 570 105 570 105 640.5 166.5 c 128,-1,21
 711 228 711 228 711 346 c 0,11,12
487 949 m 1,22,-1
 653 779 l 1,23,-1
 572 708 l 1,24,-1
 479 803 l 1,25,-1
 385 709 l 1,26,-1
 305 774 l 1,27,-1
 487 949 l 1,22,-1
EndSplineSet
EndChar

StartChar: Otilde
Encoding: 213 213 161
Width: 903
VWidth: 0
Flags: HW
HStem: -7 112<370.856 577.057> 588 113<364.58 570.298> 729 99<535.64 589.271> 817 99<383.331 437.36>
VStem: 105 126<248.908 459.514> 265 101<738.099 804.36> 602 100<833.331 905.312> 711 126<238.736 452.067>
LayerCount: 2
Fore
SplineSet
606 920 m 5,0,-1
 707 905 l 1,1,-1
 702 885 l 1,2,3
 702 873 702 873 694 842 c 128,-1,4
 686 811 686 811 683 805 c 128,-1,5
 680 799 680 799 674 786 c 128,-1,6
 668 773 668 773 662 767 c 2,7,-1
 647 752 l 2,8,9
 624 729 624 729 574 729 c 1,10,11
 531 731 531 731 494.5 753 c 128,-1,12
 458 775 458 775 435.5 796 c 128,-1,13
 413 817 413 817 403 817 c 0,14,15
 384 817 384 817 371 751 c 0,16,17
 370 747 370 747 370 745 c 2,18,-1
 366 726 l 1,19,-1
 265 739 l 1,20,-1
 269 760 l 2,21,22
 270 763 270 763 273 779.5 c 128,-1,23
 276 796 276 796 278 802 c 128,-1,24
 280 808 280 808 284.5 824.5 c 128,-1,25
 289 841 289 841 293 848.5 c 128,-1,26
 297 856 297 856 304.5 869 c 128,-1,27
 312 882 312 882 320.5 888.5 c 0,28,29
 328 894 328 894 340 902 c 0,30,31
 359 915 359 915 396 915 c 0,32,33
 399 915 399 915 402 915 c 0,34,35
 442 914 442 914 478.5 892 c 128,-1,36
 515 870 515 870 537.5 849 c 128,-1,37
 560 828 560 828 571 828 c 128,-1,38
 582 828 582 828 587.5 843 c 128,-1,39
 593 858 593 858 596.5 875.5 c 0,40,41
 600 892 600 892 600 894 c 0,42,43
 602 898 602 898 602 901 c 2,44,-1
 606 920 l 5,0,-1
711 346 m 0,45,46
 711 487 711 487 602 552 c 0,47,48
 541 588 541 588 456.5 588 c 128,-1,49
 372 588 372 588 301.5 528.5 c 128,-1,50
 231 469 231 469 231 355.5 c 128,-1,51
 231 242 231 242 300.5 173.5 c 128,-1,52
 370 105 370 105 470 105 c 128,-1,53
 570 105 570 105 640.5 166.5 c 128,-1,54
 711 228 711 228 711 346 c 0,45,46
207 603.5 m 128,-1,56
 309 701 309 701 471 701 c 128,-1,57
 633 701 633 701 735 606.5 c 128,-1,58
 837 512 837 512 837 352.5 c 128,-1,59
 837 193 837 193 735 93 c 128,-1,60
 633 -7 633 -7 468 -7 c 0,61,62
 371 -7 371 -7 290.5 30.5 c 128,-1,63
 210 68 210 68 157.5 150 c 128,-1,64
 105 232 105 232 105 345 c 0,65,55
 105 506 105 506 207 603.5 c 128,-1,56
EndSplineSet
EndChar

StartChar: Ugrave
Encoding: 217 217 162
Width: 851
VWidth: 0
Flags: HW
HStem: -10 112<333.479 555.722> 674 20G<142 265 626 749>
VStem: 142 123<167.592 694> 626 123<167.162 694>
LayerCount: 2
Fore
SplineSet
142 694 m 1,0,-1
 265 694 l 1,1,-1
 265 254 l 2,2,3
 264 192 264 192 296 150 c 0,4,5
 332 101 332 101 439 101.5 c 129,-1,6
 546 102 546 102 586 142.5 c 128,-1,7
 626 183 626 183 626 254 c 2,8,-1
 626 694 l 1,9,-1
 749 694 l 1,10,-1
 749 242 l 2,11,12
 749 157 749 157 724 112 c 0,13,14
 713 92 713 92 690 67 c 0,15,16
 668 42 668 42 636 26 c 0,17,18
 562 -10 562 -10 441 -10 c 0,19,20
 269 -10 269 -10 199 68 c 0,21,22
 177 92 177 92 166 112.5 c 0,23,24
 156 134 156 134 150 162 c 0,25,26
 142 201 142 201 142 242 c 2,27,-1
 142 694 l 1,0,-1
324 963 m 5,28,-1
 638 791 l 1,29,-1
 583 705 l 1,30,-1
 263 868 l 1,31,-1
 324 963 l 5,28,-1
EndSplineSet
EndChar

StartChar: Uacute
Encoding: 218 218 163
Width: 851
VWidth: 0
Flags: HW
HStem: -10 112<333.479 555.722> 674 20G<142 265 626 749>
VStem: 142 123<167.592 694> 626 123<167.162 694>
LayerCount: 2
Fore
SplineSet
142 694 m 1,0,-1
 265 694 l 1,1,-1
 265 254 l 2,2,3
 264 192 264 192 296 150 c 0,4,5
 332 101 332 101 439 101.5 c 129,-1,6
 546 102 546 102 586 142.5 c 128,-1,7
 626 183 626 183 626 254 c 2,8,-1
 626 694 l 1,9,-1
 749 694 l 1,10,-1
 749 242 l 2,11,12
 749 157 749 157 724 112 c 0,13,14
 713 92 713 92 690 67 c 0,15,16
 668 42 668 42 636 26 c 0,17,18
 562 -10 562 -10 441 -10 c 0,19,20
 269 -10 269 -10 199 68 c 0,21,22
 177 92 177 92 166 112.5 c 0,23,24
 156 134 156 134 150 162 c 0,25,26
 142 201 142 201 142 242 c 2,27,-1
 142 694 l 1,0,-1
582 965 m 5,28,-1
 641 870 l 1,29,-1
 323 705 l 1,30,-1
 267 792 l 1,31,-1
 582 965 l 5,28,-1
EndSplineSet
EndChar

StartChar: Ucircumflex
Encoding: 219 219 164
Width: 851
VWidth: 0
Flags: HW
HStem: -10 112<333.479 555.722> 674 20G<142 265 626 749>
VStem: 142 123<167.592 694> 626 123<167.162 694>
LayerCount: 2
Fore
SplineSet
142 694 m 1,0,-1
 265 694 l 1,1,-1
 265 254 l 2,2,3
 264 192 264 192 296 150 c 0,4,5
 332 101 332 101 439 101.5 c 129,-1,6
 546 102 546 102 586 142.5 c 128,-1,7
 626 183 626 183 626 254 c 2,8,-1
 626 694 l 1,9,-1
 749 694 l 1,10,-1
 749 242 l 2,11,12
 749 157 749 157 724 112 c 0,13,14
 713 92 713 92 690 67 c 0,15,16
 668 42 668 42 636 26 c 0,17,18
 562 -10 562 -10 441 -10 c 0,19,20
 269 -10 269 -10 199 68 c 0,21,22
 177 92 177 92 166 112.5 c 0,23,24
 156 134 156 134 150 162 c 0,25,26
 142 201 142 201 142 242 c 2,27,-1
 142 694 l 1,0,-1
454 949 m 1,28,-1
 625 778 l 1,29,-1
 541 708 l 1,30,-1
 445 803 l 1,31,-1
 348 709 l 1,32,-1
 266 774 l 1,33,-1
 454 949 l 1,28,-1
EndSplineSet
EndChar

StartChar: Yacute
Encoding: 221 221 165
Width: 696
VWidth: 0
Flags: HW
HStem: 0 21G<306 444> 674 20G<49 207.829 554.948 710>
VStem: 306 138<0 324>
LayerCount: 2
Fore
SplineSet
49 694 m 1,0,-1
 194 694 l 1,1,-1
 380 425 l 1,2,-1
 569 694 l 1,3,-1
 710 694 l 1,4,-1
 444 324 l 1,5,-1
 444 0 l 1,6,-1
 306 0 l 1,7,-1
 306 324 l 1,8,-1
 49 694 l 1,0,-1
501 965 m 5,9,-1
 562 870 l 1,10,-1
 244 705 l 1,11,-1
 188 792 l 1,12,-1
 501 965 l 5,9,-1
EndSplineSet
EndChar

StartChar: agrave
Encoding: 224 224 166
Width: 602
VWidth: 0
Flags: HW
HStem: -10 103<199.675 370.114> 0 21G<415.875 514> 193 91<202.292 394> 358 97<111.742 159.087> 385 106<132.191 366.724>
VStem: 60 120<114.834 170.45> 394 120<112.555 193 284 356.982>
LayerCount: 2
Fore
SplineSet
104 460 m 1,0,1
 188 491 188 491 271.5 491 c 128,-1,2
 355 491 355 491 401.5 477 c 128,-1,3
 448 463 448 463 472 437 c 0,4,5
 514 390 514 390 514 314 c 2,6,-1
 514 0 l 1,7,-1
 424 0 l 1,8,-1
 411 32 l 1,9,10
 343 -10 343 -10 257 -10 c 128,-1,11
 171 -10 171 -10 115.5 32.5 c 128,-1,12
 60 75 60 75 60 133 c 0,13,14
 60 222 60 222 160 254 c 0,15,16
 247 282 247 282 394 284 c 1,17,-1
 394 301 l 2,18,19
 394 363 394 363 338 378 c 0,20,21
 312 385 312 385 260 385 c 128,-1,22
 208 385 208 385 131 364 c 1,23,-1
 112 358 l 1,24,-1
 87 455 l 1,25,-1
 104 460 l 1,0,1
394 125 m 1,26,-1
 394 193 l 1,27,-1
 381 193 l 2,28,29
 180 193 180 193 180 142 c 0,30,31
 180 124 180 124 210 108.5 c 128,-1,32
 240 93 240 93 293.5 93 c 128,-1,33
 347 93 347 93 394 125 c 1,26,-1
248 760 m 1,34,-1
 482 576 l 1,35,-1
 419 496 l 1,36,-1
 164 676 l 1,37,-1
 248 760 l 1,34,-1
EndSplineSet
EndChar

StartChar: aacute
Encoding: 225 225 167
Width: 602
VWidth: 0
Flags: HW
HStem: -10 103<199.675 370.114> 0 21G<415.875 514> 193 91<202.292 394> 358 97<111.742 159.087> 385 106<132.191 366.724>
VStem: 60 120<114.834 170.45> 394 120<112.555 193 284 356.982>
LayerCount: 2
Fore
SplineSet
392 765 m 1,0,-1
 463 681 l 1,1,-1
 215 501 l 1,2,-1
 145 581 l 1,3,-1
 392 765 l 1,0,-1
394 125 m 1,4,-1
 394 193 l 1,5,-1
 381 193 l 2,6,7
 180 193 180 193 180 142 c 0,8,9
 180 124 180 124 210 108.5 c 128,-1,10
 240 93 240 93 293.5 93 c 128,-1,11
 347 93 347 93 394 125 c 1,4,-1
104 460 m 1,12,13
 188 491 188 491 271.5 491 c 128,-1,14
 355 491 355 491 401.5 477 c 128,-1,15
 448 463 448 463 472 437 c 0,16,17
 514 390 514 390 514 314 c 2,18,-1
 514 0 l 1,19,-1
 424 0 l 1,20,-1
 411 32 l 1,21,22
 343 -10 343 -10 257 -10 c 128,-1,23
 171 -10 171 -10 115.5 32.5 c 128,-1,24
 60 75 60 75 60 133 c 0,25,26
 60 222 60 222 160 254 c 0,27,28
 247 282 247 282 394 284 c 1,29,-1
 394 301 l 2,30,31
 394 363 394 363 338 378 c 0,32,33
 312 385 312 385 260 385 c 128,-1,34
 208 385 208 385 131 364 c 1,35,-1
 112 358 l 1,36,-1
 87 455 l 1,37,-1
 104 460 l 1,12,13
EndSplineSet
EndChar

StartChar: acircumflex
Encoding: 226 226 168
Width: 602
VWidth: 0
Flags: HW
HStem: -10 103<199.675 370.114> 0 21G<415.875 514> 193 91<202.292 394> 358 97<111.742 159.087> 385 106<132.191 366.724> 717 20G<289.057 330.765>
VStem: 60 120<114.834 170.45> 394 120<112.555 193 284 356.982>
LayerCount: 2
Fore
SplineSet
311 737 m 1,0,-1
 479 567 l 1,1,-1
 404 496 l 1,2,-1
 302 591 l 1,3,-1
 195 498 l 1,4,-1
 119 562 l 1,5,-1
 311 737 l 1,0,-1
394 125 m 1,6,-1
 394 193 l 1,7,-1
 381 193 l 2,8,9
 180 193 180 193 180 142 c 0,10,11
 180 124 180 124 210 108.5 c 128,-1,12
 240 93 240 93 293.5 93 c 128,-1,13
 347 93 347 93 394 125 c 1,6,-1
104 460 m 1,14,15
 188 491 188 491 271.5 491 c 128,-1,16
 355 491 355 491 401.5 477 c 128,-1,17
 448 463 448 463 472 437 c 0,18,19
 514 390 514 390 514 314 c 2,20,-1
 514 0 l 1,21,-1
 424 0 l 1,22,-1
 411 32 l 1,23,24
 343 -10 343 -10 257 -10 c 128,-1,25
 171 -10 171 -10 115.5 32.5 c 128,-1,26
 60 75 60 75 60 133 c 0,27,28
 60 222 60 222 160 254 c 0,29,30
 247 282 247 282 394 284 c 1,31,-1
 394 301 l 2,32,33
 394 363 394 363 338 378 c 0,34,35
 312 385 312 385 260 385 c 128,-1,36
 208 385 208 385 131 364 c 1,37,-1
 112 358 l 1,38,-1
 87 455 l 1,39,-1
 104 460 l 1,14,15
EndSplineSet
EndChar

StartChar: atilde
Encoding: 227 227 169
Width: 602
VWidth: 0
Flags: HW
HStem: -10 103<199.357 368.899> 0 21G<415.875 514> 193 91<201.969 391> 358 97<111.742 159.022> 385 106<132.126 364.842> 517 98<365.396 419.099> 605 99<195.108 254.764>
VStem: 60 120<114.834 170.995> 391 123<112.555 193 284 360.94>
LayerCount: 2
Fore
SplineSet
436 708 m 5,0,-1
 528 693 l 1,1,-1
 516 631 l 1,2,3
 512 605 512 605 498 575 c 0,4,5
 470 517 470 517 405 517 c 1,6,7
 368 518 368 518 334.5 532 c 0,8,9
 302 546 302 546 282 562 c 0,10,11
 228 602 228 602 217 605 c 1,12,13
 198 605 198 605 188 557 c 1,14,-1
 178 514 l 1,15,-1
 85 527 l 1,16,-1
 98 589 l 2,17,18
 112 655 112 655 142 679 c 0,19,20
 171 703 171 703 209 704 c 0,21,-1
 210 704 l 0,22,23
 249 704 249 704 283 689 c 0,24,25
 316 674 316 674 336 658 c 0,26,27
 388 615 388 615 401 615 c 0,28,29
 419 615 419 615 427 664 c 1,30,-1
 436 708 l 5,0,-1
391 125 m 1,31,-1
 391 193 l 1,32,-1
 378 193 l 2,33,34
 180 193 180 193 180 142 c 0,35,36
 180 124 180 124 210 108.5 c 128,-1,37
 240 93 240 93 292 93 c 128,-1,38
 344 93 344 93 391 125 c 1,31,-1
286 491 m 0,39,40
 415 491 415 491 464.5 443 c 128,-1,41
 514 395 514 395 514 314 c 2,42,-1
 514 0 l 1,43,-1
 424 0 l 1,44,-1
 411 32 l 1,45,46
 338 -10 338 -10 254.5 -10 c 128,-1,47
 171 -10 171 -10 115.5 32.5 c 128,-1,48
 60 75 60 75 60 133 c 0,49,50
 60 222 60 222 160 254 c 0,51,52
 246 282 246 282 391 284 c 1,53,-1
 391 301 l 2,54,55
 390 363 390 363 336 378 c 0,56,57
 310 385 310 385 259 385 c 128,-1,58
 208 385 208 385 131 364 c 1,59,-1
 112 358 l 1,60,-1
 87 455 l 1,61,-1
 104 460 l 1,62,63
 188 491 188 491 286 491 c 0,39,40
EndSplineSet
EndChar

StartChar: aring
Encoding: 229 229 170
Width: 602
VWidth: 0
Flags: HW
HStem: -10 103<199.675 370.114> 0 21G<415.875 514> 193 91<202.292 394> 358 97<111.742 159.087> 385 106<132.191 366.724> 509 84<270.344 356.539> 684 84<269.831 357.633>
VStem: 60 120<114.834 170.45> 162 99<602.609 674.844> 366 90<602.609 675.021> 394 120<112.555 193 284 356.982>
LayerCount: 2
Fore
SplineSet
351 670.5 m 128,-1,1
 336 684 336 684 313.5 684 c 128,-1,2
 291 684 291 684 276 670.5 c 128,-1,3
 261 657 261 657 261 638.5 c 128,-1,4
 261 620 261 620 276 606.5 c 128,-1,5
 291 593 291 593 313 593 c 128,-1,6
 335 593 335 593 350.5 607 c 128,-1,7
 366 621 366 621 366 639 c 128,-1,0
 366 657 366 657 351 670.5 c 128,-1,1
205.5 730.5 m 128,-1,9
 249 768 249 768 312 768 c 128,-1,10
 375 768 375 768 415.5 731 c 128,-1,11
 456 694 456 694 456 639 c 128,-1,12
 456 584 456 584 416.5 546.5 c 128,-1,13
 377 509 377 509 313.5 509 c 128,-1,14
 250 509 250 509 206 547 c 128,-1,15
 162 585 162 585 162 639 c 128,-1,8
 162 693 162 693 205.5 730.5 c 128,-1,9
394 125 m 1,16,-1
 394 193 l 1,17,-1
 381 193 l 2,18,19
 180 193 180 193 180 142 c 0,20,21
 180 124 180 124 210 108.5 c 128,-1,22
 240 93 240 93 293.5 93 c 128,-1,23
 347 93 347 93 394 125 c 1,16,-1
104 460 m 1,24,25
 188 491 188 491 271.5 491 c 128,-1,26
 355 491 355 491 401.5 477 c 128,-1,27
 448 463 448 463 472 437 c 0,28,29
 514 390 514 390 514 314 c 2,30,-1
 514 0 l 1,31,-1
 424 0 l 1,32,-1
 411 32 l 1,33,34
 343 -10 343 -10 257 -10 c 128,-1,35
 171 -10 171 -10 115.5 32.5 c 128,-1,36
 60 75 60 75 60 133 c 0,37,38
 60 222 60 222 160 254 c 0,39,40
 247 282 247 282 394 284 c 1,41,-1
 394 301 l 2,42,43
 394 363 394 363 338 378 c 0,44,45
 312 385 312 385 260 385 c 128,-1,46
 208 385 208 385 131 364 c 1,47,-1
 112 358 l 1,48,-1
 87 455 l 1,49,-1
 104 460 l 1,24,25
EndSplineSet
EndChar

StartChar: egrave
Encoding: 232 232 171
Width: 618
VWidth: 0
Flags: HW
HStem: -10 104<260.906 496.175> 184 100<187 437> 382 110<239.237 400.942>
LayerCount: 2
Fore
SplineSet
340 492 m 0,0,1
 399 492 399 492 441 474.5 c 128,-1,2
 483 457 483 457 504.5 433 c 128,-1,3
 526 409 526 409 538 370.5 c 128,-1,4
 550 332 550 332 552.5 304.5 c 128,-1,5
 555 277 555 277 555 238 c 2,6,-1
 555 184 l 1,7,-1
 186 184 l 1,8,9
 197 148 197 148 246 121 c 128,-1,10
 295 94 295 94 363 94 c 128,-1,11
 431 94 431 94 488 111 c 2,12,-1
 508 117 l 1,13,-1
 532 24 l 1,14,-1
 515 18 l 2,15,16
 435 -10 435 -10 347.5 -10 c 128,-1,17
 260 -10 260 -10 203.5 10.5 c 128,-1,18
 147 31 147 31 118 67 c 0,19,20
 63 135 63 135 63 227 c 0,21,22
 63 358 63 358 142 425 c 128,-1,23
 221 492 221 492 340 492 c 0,0,1
320 382 m 0,24,25
 262 382 262 382 227.5 354 c 128,-1,26
 193 326 193 326 187 284 c 1,27,-1
 437 284 l 1,28,29
 430 382 430 382 320 382 c 0,24,25
254 765 m 1,30,-1
 490 581 l 1,31,-1
 425 501 l 1,32,-1
 171 681 l 1,33,-1
 254 765 l 1,30,-1
EndSplineSet
EndChar

StartChar: eacute
Encoding: 233 233 172
Width: 618
VWidth: 0
Flags: HW
HStem: -10 104<260.906 496.175> 184 100<187 437> 382 110<239.237 400.942>
LayerCount: 2
Fore
SplineSet
340 492 m 0,0,1
 399 492 399 492 441 474.5 c 128,-1,2
 483 457 483 457 504.5 433 c 128,-1,3
 526 409 526 409 538 370.5 c 128,-1,4
 550 332 550 332 552.5 304.5 c 128,-1,5
 555 277 555 277 555 238 c 2,6,-1
 555 184 l 1,7,-1
 186 184 l 1,8,9
 197 148 197 148 246 121 c 128,-1,10
 295 94 295 94 363 94 c 128,-1,11
 431 94 431 94 488 111 c 2,12,-1
 508 117 l 1,13,-1
 532 24 l 1,14,-1
 515 18 l 2,15,16
 435 -10 435 -10 347.5 -10 c 128,-1,17
 260 -10 260 -10 203.5 10.5 c 128,-1,18
 147 31 147 31 118 67 c 0,19,20
 63 135 63 135 63 227 c 0,21,22
 63 358 63 358 142 425 c 128,-1,23
 221 492 221 492 340 492 c 0,0,1
320 382 m 0,24,25
 262 382 262 382 227.5 354 c 128,-1,26
 193 326 193 326 187 284 c 1,27,-1
 437 284 l 1,28,29
 430 382 430 382 320 382 c 0,24,25
441 765 m 1,30,-1
 512 681 l 1,31,-1
 271 501 l 1,32,-1
 196 581 l 1,33,-1
 441 765 l 1,30,-1
EndSplineSet
EndChar

StartChar: ecircumflex
Encoding: 234 234 173
Width: 618
VWidth: 0
Flags: HW
HStem: -10 104<260.906 496.175> 184 100<187 437> 382 110<239.237 400.942> 717 20G<333.829 375.412>
LayerCount: 2
Fore
SplineSet
340 492 m 0,0,1
 399 492 399 492 441 474.5 c 128,-1,2
 483 457 483 457 504.5 433 c 128,-1,3
 526 409 526 409 538 370.5 c 128,-1,4
 550 332 550 332 552.5 304.5 c 128,-1,5
 555 277 555 277 555 238 c 2,6,-1
 555 184 l 1,7,-1
 186 184 l 1,8,9
 197 148 197 148 246 121 c 128,-1,10
 295 94 295 94 363 94 c 128,-1,11
 431 94 431 94 488 111 c 2,12,-1
 508 117 l 1,13,-1
 532 24 l 1,14,-1
 515 18 l 2,15,16
 435 -10 435 -10 347.5 -10 c 128,-1,17
 260 -10 260 -10 203.5 10.5 c 128,-1,18
 147 31 147 31 118 67 c 0,19,20
 63 135 63 135 63 227 c 0,21,22
 63 358 63 358 142 425 c 128,-1,23
 221 492 221 492 340 492 c 0,0,1
320 382 m 0,24,25
 262 382 262 382 227.5 354 c 128,-1,26
 193 326 193 326 187 284 c 1,27,-1
 437 284 l 1,28,29
 430 382 430 382 320 382 c 0,24,25
356 737 m 1,30,-1
 521 567 l 1,31,-1
 447 496 l 1,32,-1
 348 591 l 1,33,-1
 245 498 l 1,34,-1
 162 562 l 1,35,-1
 356 737 l 1,30,-1
EndSplineSet
EndChar

StartChar: igrave
Encoding: 236 236 174
Width: 295
VWidth: 0
Flags: HW
HStem: 0 21G<96 216> 462 20G<96 216>
VStem: 96 120<0 482>
LayerCount: 2
Fore
SplineSet
96 482 m 1,0,-1
 216 482 l 1,1,-1
 216 0 l 1,2,-1
 96 0 l 1,3,-1
 96 482 l 1,0,-1
71 765 m 1,4,-1
 278 581 l 1,5,-1
 215 501 l 1,6,-1
 0 681 l 1,7,-1
 71 765 l 1,4,-1
EndSplineSet
EndChar

StartChar: iacute
Encoding: 237 237 175
Width: 295
VWidth: 0
Flags: HW
HStem: 0 21G<95 215> 462 20G<95 215>
VStem: 95 120<0 482>
LayerCount: 2
Fore
SplineSet
95 482 m 1,0,-1
 215 482 l 1,1,-1
 215 0 l 1,2,-1
 95 0 l 1,3,-1
 95 482 l 1,0,-1
262 765 m 1,4,-1
 333 681 l 1,5,-1
 118 501 l 1,6,-1
 55 581 l 1,7,-1
 262 765 l 1,4,-1
EndSplineSet
EndChar

StartChar: icircumflex
Encoding: 238 238 176
Width: 298
VWidth: 0
Flags: HW
HStem: 0 21G<96 216> 462 20G<96 216> 719 20G<141.938 174.838>
VStem: 96 120<0 482>
LayerCount: 2
Fore
SplineSet
96 482 m 1,0,-1
 216 482 l 1,1,-1
 216 0 l 1,2,-1
 96 0 l 1,3,-1
 96 482 l 1,0,-1
159 739 m 1,4,-1
 296 566 l 1,5,-1
 222 495 l 1,6,-1
 152 583 l 1,7,-1
 81 497 l 1,8,-1
 8 562 l 1,9,-1
 159 739 l 1,4,-1
EndSplineSet
EndChar

StartChar: ograve
Encoding: 242 242 177
Width: 671
VWidth: 0
Flags: HW
HStem: -10 109<256.861 424.541> 383 109<248.337 414.946>
VStem: 63 119<172.971 320.588> 490 118<163.739 312.789>
LayerCount: 2
Fore
SplineSet
291 765 m 1,0,-1
 523 581 l 1,1,-1
 456 501 l 1,2,-1
 208 681 l 1,3,-1
 291 765 l 1,0,-1
441.5 344 m 128,-1,5
 393 383 393 383 332 383 c 128,-1,6
 271 383 271 383 226.5 348 c 128,-1,7
 182 313 182 313 182 249 c 128,-1,8
 182 185 182 185 226 142 c 128,-1,9
 270 99 270 99 337 99 c 128,-1,10
 404 99 404 99 447 136.5 c 128,-1,11
 490 174 490 174 490 239.5 c 128,-1,4
 490 305 490 305 441.5 344 c 128,-1,5
137.5 423 m 128,-1,13
 212 492 212 492 336 492 c 128,-1,14
 460 492 460 492 534 428 c 128,-1,15
 608 364 608 364 608 247 c 128,-1,16
 608 130 608 130 532.5 60 c 128,-1,17
 457 -10 457 -10 333 -10 c 128,-1,18
 209 -10 209 -10 136 56 c 128,-1,19
 63 122 63 122 63 238 c 128,-1,12
 63 354 63 354 137.5 423 c 128,-1,13
EndSplineSet
EndChar

StartChar: oacute
Encoding: 243 243 178
Width: 671
VWidth: 0
Flags: HW
HStem: -10 109<256.861 424.541> 383 109<248.337 414.946>
VStem: 63 119<172.971 320.588> 490 118<163.739 312.789>
LayerCount: 2
Fore
SplineSet
137.5 423 m 128,-1,1
 212 492 212 492 336 492 c 128,-1,2
 460 492 460 492 534 428 c 128,-1,3
 608 364 608 364 608 247 c 128,-1,4
 608 130 608 130 532.5 60 c 128,-1,5
 457 -10 457 -10 333 -10 c 128,-1,6
 209 -10 209 -10 136 56 c 128,-1,7
 63 122 63 122 63 238 c 128,-1,0
 63 354 63 354 137.5 423 c 128,-1,1
441.5 344 m 128,-1,9
 393 383 393 383 332 383 c 128,-1,10
 271 383 271 383 226.5 348 c 128,-1,11
 182 313 182 313 182 249 c 128,-1,12
 182 185 182 185 226 142 c 128,-1,13
 270 99 270 99 337 99 c 128,-1,14
 404 99 404 99 447 136.5 c 128,-1,15
 490 174 490 174 490 239.5 c 128,-1,8
 490 305 490 305 441.5 344 c 128,-1,9
395 765 m 1,16,-1
 477 681 l 1,17,-1
 229 501 l 1,18,-1
 160 581 l 1,19,-1
 395 765 l 1,16,-1
EndSplineSet
EndChar

StartChar: ocircumflex
Encoding: 244 244 179
Width: 671
VWidth: 0
Flags: HW
HStem: -10 109<256.861 424.541> 383 109<248.337 414.946> 717 20G<325.4 367.118>
VStem: 63 119<172.971 320.588> 490 118<163.739 312.789>
LayerCount: 2
Fore
SplineSet
137.5 423 m 128,-1,1
 212 492 212 492 336 492 c 128,-1,2
 460 492 460 492 534 428 c 128,-1,3
 608 364 608 364 608 247 c 128,-1,4
 608 130 608 130 532.5 60 c 128,-1,5
 457 -10 457 -10 333 -10 c 128,-1,6
 209 -10 209 -10 136 56 c 128,-1,7
 63 122 63 122 63 238 c 128,-1,0
 63 354 63 354 137.5 423 c 128,-1,1
441.5 344 m 128,-1,9
 393 383 393 383 332 383 c 128,-1,10
 271 383 271 383 226.5 348 c 128,-1,11
 182 313 182 313 182 249 c 128,-1,12
 182 185 182 185 226 142 c 128,-1,13
 270 99 270 99 337 99 c 128,-1,14
 404 99 404 99 447 136.5 c 128,-1,15
 490 174 490 174 490 239.5 c 128,-1,8
 490 305 490 305 441.5 344 c 128,-1,9
347 737 m 1,16,-1
 518 567 l 1,17,-1
 437 496 l 1,18,-1
 339 591 l 1,19,-1
 239 498 l 1,20,-1
 158 562 l 1,21,-1
 347 737 l 1,16,-1
EndSplineSet
EndChar

StartChar: otilde
Encoding: 245 245 180
Width: 671
VWidth: 0
Flags: HW
HStem: -10 109<256.861 424.541> 383 109<248.337 414.946> 519 98<397.396 451.096> 607 99<226.817 286.764>
VStem: 63 119<172.971 320.588> 490 118<163.739 312.789>
LayerCount: 2
Fore
SplineSet
467 710 m 1,0,-1
 560 695 l 1,1,-1
 547 633 l 1,2,3
 528 519 528 519 437 519 c 1,4,5
 400 520 400 520 366.5 534 c 0,6,7
 334 548 334 548 314 564 c 0,8,9
 260 604 260 604 249 607 c 1,10,11
 229 607 229 607 219 559 c 1,12,-1
 209 516 l 1,13,-1
 117 529 l 1,14,-1
 129 591 l 1,15,16
 153 706 153 706 245 706 c 1,17,18
 281 705 281 705 315 690.5 c 0,19,20
 348 676 348 676 368 660 c 0,21,22
 420 617 420 617 433 617 c 0,23,24
 451 617 451 617 459 666 c 2,25,-1
 467 710 l 1,0,-1
441.5 344 m 128,-1,27
 393 383 393 383 332 383 c 128,-1,28
 271 383 271 383 226.5 348 c 128,-1,29
 182 313 182 313 182 249 c 128,-1,30
 182 185 182 185 226 142 c 128,-1,31
 270 99 270 99 337 99 c 128,-1,32
 404 99 404 99 447 136.5 c 128,-1,33
 490 174 490 174 490 239.5 c 128,-1,26
 490 305 490 305 441.5 344 c 128,-1,27
137.5 423 m 128,-1,35
 212 492 212 492 336 492 c 128,-1,36
 460 492 460 492 534 428 c 128,-1,37
 608 364 608 364 608 247 c 128,-1,38
 608 130 608 130 532.5 60 c 128,-1,39
 457 -10 457 -10 333 -10 c 128,-1,40
 209 -10 209 -10 136 56 c 128,-1,41
 63 122 63 122 63 238 c 128,-1,34
 63 354 63 354 137.5 423 c 128,-1,35
EndSplineSet
EndChar

StartChar: ugrave
Encoding: 249 249 181
Width: 654
VWidth: 0
Flags: HW
HStem: -10 112<237.115 405.808> 0 21G<468.909 567> 462 20G<88 208 447 567>
VStem: 88 120<132.365 482> 447 120<121.854 482>
LayerCount: 2
Fore
SplineSet
447 482 m 1,0,-1
 567 482 l 1,1,-1
 567 0 l 1,2,-1
 478 0 l 1,3,-1
 463 33 l 1,4,5
 363 -10 363 -10 274 -10 c 0,6,7
 142 -10 142 -10 106 82 c 0,8,9
 88 129 88 129 88 197 c 2,10,-1
 88 482 l 1,11,-1
 208 482 l 1,12,-1
 208 198 l 2,13,14
 208 132 208 132 256 112 c 0,15,16
 280 102 280 102 326.5 102 c 128,-1,17
 373 102 373 102 447 129 c 1,18,-1
 447 482 l 1,0,-1
260 765 m 1,19,-1
 498 581 l 1,20,-1
 432 501 l 1,21,-1
 180 681 l 1,22,-1
 260 765 l 1,19,-1
EndSplineSet
EndChar

StartChar: uacute
Encoding: 250 250 182
Width: 654
VWidth: 0
Flags: HW
HStem: -10 112<237.115 405.808> 0 21G<468.909 567> 462 20G<88 208 447 567>
VStem: 88 120<132.365 482> 447 120<121.854 482>
LayerCount: 2
Fore
SplineSet
447 482 m 1,0,-1
 567 482 l 1,1,-1
 567 0 l 1,2,-1
 478 0 l 1,3,-1
 463 33 l 1,4,5
 363 -10 363 -10 274 -10 c 0,6,7
 142 -10 142 -10 106 82 c 0,8,9
 88 129 88 129 88 197 c 2,10,-1
 88 482 l 1,11,-1
 208 482 l 1,12,-1
 208 198 l 2,13,14
 208 132 208 132 256 112 c 0,15,16
 280 102 280 102 326.5 102 c 128,-1,17
 373 102 373 102 447 129 c 1,18,-1
 447 482 l 1,0,-1
434 765 m 1,19,-1
 507 681 l 1,20,-1
 262 501 l 1,21,-1
 189 581 l 1,22,-1
 434 765 l 1,19,-1
EndSplineSet
EndChar

StartChar: ucircumflex
Encoding: 251 251 183
Width: 654
VWidth: 0
Flags: HW
HStem: -10 112<237.115 405.808> 0 21G<468.909 567> 462 20G<88 208 447 567> 717 20G<319.4 361>
VStem: 88 120<132.365 482> 447 120<121.854 482>
LayerCount: 2
Fore
SplineSet
447 482 m 1,0,-1
 567 482 l 1,1,-1
 567 0 l 1,2,-1
 478 0 l 1,3,-1
 463 33 l 1,4,5
 363 -10 363 -10 274 -10 c 0,6,7
 142 -10 142 -10 106 82 c 0,8,9
 88 129 88 129 88 197 c 2,10,-1
 88 482 l 1,11,-1
 208 482 l 1,12,-1
 208 198 l 2,13,14
 208 132 208 132 256 112 c 0,15,16
 280 102 280 102 326.5 102 c 128,-1,17
 373 102 373 102 447 129 c 1,18,-1
 447 482 l 1,0,-1
341 737 m 1,19,-1
 511 567 l 1,20,-1
 435 496 l 1,21,-1
 333 591 l 1,22,-1
 229 498 l 1,23,-1
 152 562 l 1,24,-1
 341 737 l 1,19,-1
EndSplineSet
EndChar

StartChar: yacute
Encoding: 253 253 184
Width: 592
VWidth: 0
Flags: HW
HStem: 462 20G<24 159.703 452 587>
LayerCount: 2
Fore
SplineSet
24 482 m 1,0,-1
 151 482 l 1,1,-1
 312 112 l 1,2,-1
 460 482 l 1,3,-1
 587 482 l 1,4,-1
 269 -259 l 1,5,-1
 124 -259 l 1,6,-1
 244 1 l 1,7,-1
 24 482 l 1,0,-1
443 765 m 1,8,-1
 517 681 l 1,9,-1
 278 501 l 1,10,-1
 206 581 l 1,11,-1
 443 765 l 1,8,-1
EndSplineSet
EndChar

StartChar: ntilde
Encoding: 241 241 185
Width: 654
VWidth: 0
Flags: HW
HStem: 0 21G<88 208 446 567> 380 112<247.69 417.016> 462 20G<88 185.485> 519 99<405.291 461.028> 607 99<238.809 298.539>
VStem: 88 120<0 360.146> 446 121<0 349.635>
LayerCount: 2
Fore
SplineSet
477 710 m 1,0,-1
 570 696 l 1,1,-1
 557 634 l 1,2,3
 538 519 538 519 447 519 c 1,4,5
 370 522 370 522 296 586 c 0,6,7
 272 607 272 607 261 607 c 0,8,9
 241 607 241 607 231 560 c 2,10,-1
 221 516 l 1,11,-1
 126 530 l 1,12,-1
 139 592 l 2,13,14
 163 706 163 706 257 706 c 1,15,16
 334 703 334 703 408 639 c 0,17,18
 432 618 432 618 439.5 618 c 128,-1,19
 447 618 447 618 451 621 c 128,-1,20
 455 624 455 624 457.5 628 c 128,-1,21
 460 632 460 632 462.5 639 c 128,-1,22
 465 646 465 646 465.5 649.5 c 128,-1,23
 466 653 466 653 469 666 c 2,24,-1
 477 710 l 1,0,-1
88 482 m 1,25,-1
 177 482 l 1,26,-1
 191 449 l 1,27,28
 291 492 291 492 380 492 c 0,29,30
 498 492 498 492 536 424 c 0,31,32
 568 369 568 369 567 285 c 2,33,-1
 567 0 l 1,34,-1
 446 0 l 1,35,-1
 446 283 l 2,36,37
 446 350 446 350 398 370 c 0,38,39
 374 380 374 380 328 380 c 128,-1,40
 282 380 282 380 208 353 c 1,41,-1
 208 0 l 1,42,-1
 88 0 l 1,43,-1
 88 482 l 1,25,-1
EndSplineSet
EndChar

StartChar: eth
Encoding: 240 240 186
Width: 691
VWidth: 1023
Flags: HW
HStem: -10 106<259.714 410.593> 394 70<245.035 427.604> 680 20G<515 562.605>
VStem: 63 118<174.094 319.141> 486 118<178.354 353.812>
LayerCount: 2
Fore
SplineSet
222.5 355.5 m 128,-1,1
 181 317 181 317 181 252 c 128,-1,2
 181 187 181 187 226.5 141.5 c 128,-1,3
 272 96 272 96 336 96 c 0,4,5
 383 96 383 96 426 126.5 c 128,-1,6
 469 157 469 157 481 235 c 1,7,8
 486 275 486 275 486 327 c 2,9,-1
 486 346 l 1,10,11
 394 394 394 394 329 394 c 128,-1,0
 264 394 264 394 222.5 355.5 c 128,-1,1
290 711 m 1,12,13
 379 689 379 689 452 645 c 1,14,-1
 551 700 l 1,15,-1
 598 619 l 1,16,-1
 527 578 l 1,17,18
 604 490 604 490 604 332 c 0,19,20
 604 275 604 275 598.5 230 c 128,-1,21
 593 185 593 185 575 138 c 128,-1,22
 557 91 557 91 527.5 60 c 128,-1,23
 498 29 498 29 447 9.5 c 128,-1,24
 396 -10 396 -10 327 -10 c 0,25,26
 206 -10 206 -10 134.5 49.5 c 128,-1,27
 63 109 63 109 63 213.5 c 128,-1,28
 63 318 63 318 131.5 391 c 128,-1,29
 200 464 200 464 315 464 c 0,30,31
 389 464 389 464 473 431 c 1,32,33
 456 479 456 479 412 518 c 1,34,-1
 307 465 l 1,35,-1
 253 546 l 1,36,-1
 320 580 l 1,37,38
 282 598 282 598 242 610 c 2,39,-1
 217 618 l 1,40,-1
 271 716 l 1,41,-1
 290 711 l 1,12,13
EndSplineSet
EndChar

StartChar: thorn
Encoding: 254 254 187
Width: 676
VWidth: 1023
Flags: HW
HStem: -11 108<258.044 426.206> 381 109<260.865 420.244> 674 20G<93 219>
VStem: 93 126<-259 21 135.219 338.167 456 694> 495 118<161.51 310.646>
LayerCount: 2
Back
SplineSet
298.34 420.898 m 4,0,1
 168.457 420.898 168.457 420.898 168.457 228.027 c 0,2,3
 168.457 58.5967398933 168.457 58.5967398933 298.110825224 57.1411005718 c 0
 299.702130632 57.131929272 299.702130632 57.131929272 300.293 57.1289 c 0,4,5
 319.899112721 57.1289 319.899112721 57.1289 340.04635909 62.5772120858 c 0
 360.193605459 68.0255241715 360.193605459 68.0255241715 381.10184091 81.3523615142 c 0
 402.01007636 94.679198857 402.01007636 94.679198857 418.07771909 114.311458486 c 0
 434.14536182 133.943718115 434.14536182 133.943718115 444.36768091 165.195967914 c 0
 454.59 196.448217714 454.59 196.448217714 454.59 234.863 c 0,6,7
 454.59 321.345215461 454.59 321.345215461 407.248653256 371.121607731 c 0
 359.907306512 420.898 359.907306512 420.898 298.34 420.898 c 4,0,1
312.012 489.746 m 4,8,9
 405.312152713 489.746 405.312152713 489.746 469.013576357 424.49785542 c 0
 532.715 359.249710839 532.715 359.249710839 532.715 249.023 c 0,10,11
 532.715 193.212519433 532.715 193.212519433 515.433693848 144.659200114 c 0
 498.152387696 96.1058807949 498.152387696 96.1058807949 468.239649902 61.9750217612 c 0
 438.326912109 27.8441627275 438.326912109 27.8441627275 396.659131348 8.30683136376 c 0
 354.991350587 -11.2305 354.991350587 -11.2305 307.617 -11.2305 c 0,12,13
 228.82986602 -11.2305 228.82986602 -11.2305 172.852 41.0156 c 1,14,-1
 172.852 -259.277 l 1,15,-1
 92.7734 -259.277 l 1,16,-1
 92.7734 693.848 l 1,17,-1
 172.852 693.848 l 1,18,-1
 172.852 432.129 l 1,19,20
 224.220654082 489.746 224.220654082 489.746 312.012 489.746 c 4,8,9
EndSplineSet
Fore
SplineSet
339 381 m 128,-1,1
 278 381 278 381 245.5 346 c 128,-1,2
 213 311 213 311 213 229 c 0,3,4
 213 97 213 97 341 97 c 0,5,6
 422 97 422 97 468 153 c 0,7,8
 495 186 495 186 495 235 c 0,9,10
 495 304 495 304 447.5 342.5 c 128,-1,0
 400 381 400 381 339 381 c 128,-1,1
354 490 m 0,11,12
 467 490 467 490 540 425 c 128,-1,13
 613 360 613 360 613 248 c 128,-1,14
 613 136 613 136 540 62.5 c 128,-1,15
 467 -11 467 -11 350 -11 c 0,16,17
 280 -11 280 -11 219 21 c 1,18,-1
 219 -259 l 1,19,-1
 93 -259 l 1,20,-1
 93 694 l 1,21,-1
 219 694 l 1,22,-1
 219 456 l 1,23,24
 277 490 277 490 354 490 c 0,11,12
EndSplineSet
EndChar

StartChar: Eth
Encoding: 208 208 188
Width: 863
VWidth: 1023
Flags: HW
HStem: 0 113<287 531.112> 301 114<57 164 287 414> 581 113<287 536.007>
VStem: 164 123<113 301 415 581> 684 124<239.352 449.531>
LayerCount: 2
Fore
SplineSet
164 694 m 1,0,-1
 396 694 l 2,1,2
 516 694 516 694 604 664 c 0,3,4
 640 652 640 652 679.5 626.5 c 128,-1,5
 719 601 719 601 746 568 c 128,-1,6
 773 535 773 535 790.5 483 c 128,-1,7
 808 431 808 431 808 367 c 0,8,9
 808 0 808 0 365 0 c 2,10,-1
 164 0 l 1,11,-1
 164 301 l 1,12,-1
 57 301 l 1,13,-1
 57 415 l 1,14,-1
 164 415 l 1,15,-1
 164 694 l 1,0,-1
402 581 m 2,16,-1
 287 581 l 1,17,-1
 287 415 l 1,18,-1
 414 415 l 1,19,-1
 414 301 l 1,20,-1
 287 301 l 1,21,-1
 287 113 l 1,22,-1
 368 113 l 2,23,24
 414 113 414 113 449.5 116 c 128,-1,25
 485 119 485 119 532 133 c 128,-1,26
 579 147 579 147 609.5 171 c 128,-1,27
 640 195 640 195 662 241 c 128,-1,28
 684 287 684 287 684 339.5 c 128,-1,29
 684 392 684 392 671.5 428.5 c 128,-1,30
 659 465 659 465 630 501.5 c 128,-1,31
 601 538 601 538 542.5 559.5 c 128,-1,32
 484 581 484 581 402 581 c 2,16,-1
EndSplineSet
EndChar

StartChar: Oslash
Encoding: 216 216 189
Width: 937
VWidth: 0
Flags: HW
HStem: -7 112<382.676 587.057> 0 21G<113.226 154> 588 113<374.001 584.875>
VStem: 115 126<244.469 459.303> 721 126<238.736 456.46>
LayerCount: 2
Back
SplineSet
827.988 692.007 m 29,0,-1
 77.6553 62.4023 l 1,1,-1
 130.384 -0.436523 l 1,2,-1
 880.718 629.17 l 1,3,-1
 827.988 692.007 l 29,0,-1
481.445 701.172 m 4,4,5
 560.557634644 701.172 560.557634644 701.172 627.931251607 676.913504292 c 0
 695.304868571 652.655008585 695.304868571 652.655008585 743.833435893 608.449058208 c 0
 792.362003215 564.24310783 792.362003215 564.24310783 819.765001607 498.858629292 c 0
 847.168 433.474150754 847.168 433.474150754 847.168 354.492 c 0,6,7
 847.168 183.046927247 847.168 183.046927247 733.070778967 81.959043062 c 0
 631.512566235 -6.94576074564 631.512566235 -6.94576074564 477.539 -7.32422 c 0,8,9
 436.886620421 -7.32422 436.886620421 -7.32422 398.094484646 -0.282347313845 c 0
 359.302348871 6.75952537231 359.302348871 6.75952537231 323.193261709 21.3112488299 c 0
 287.084174547 35.8629722874 287.084174547 35.8629722874 255.618799515 56.9334821905 c 0
 224.153424483 78.0039920936 224.153424483 78.0039920936 198.193302526 107.328563116 c 0
 172.233180568 136.653134138 172.233180568 136.653134138 153.697656658 171.888918925 c 0
 135.162132748 207.124703713 135.162132748 207.124703713 124.954066374 251.358759967 c 0
 114.746 295.592816221 114.746 295.592816221 114.746 345.215 c 0,10,11
 114.746 506.634399611 114.746 506.634399611 216.71984845 603.903199805 c 0
 318.6936969 701.172 318.6936969 701.172 481.445 701.172 c 4,4,5
476.562 588.379 m 4,12,13
 432.353260663 588.379 432.353260663 588.379 391.458298652 574.436047275 c 0
 350.563336641 560.49309455 350.563336641 560.49309455 316.236685723 533.245077725 c 0
 281.910034804 505.997060901 281.910034804 505.997060901 261.316517402 459.842172275 c 0
 240.723 413.687283649 240.723 413.687283649 240.723 354.98 c 0,14,15
 240.723 298.415462676 240.723 298.415462676 259.797008353 251.116358363 c 0
 278.871016706 203.817254049 278.871016706 203.817254049 311.873897897 172.147422887 c 0
 344.876779088 140.477591725 344.876779088 140.477591725 389.465820853 122.973295863 c 0
 434.054862618 105.469 434.054862618 105.469 484.863 105.469 c 0,16,17
 528.518571967 105.469 528.518571967 105.469 569.249413036 119.63000798 c 0
 609.980254105 133.79101596 609.980254105 133.79101596 644.671008839 161.666288895 c 0
 679.361763572 189.54156183 679.361763572 189.54156183 700.276381786 237.33610173 c 0
 721.191 285.130641631 721.191 285.130641631 721.191 346.191 c 0,18,19
 721.191 387.875355574 721.191 387.875355574 711.005995533 423.681231854 c 0
 700.820991066 459.487108133 700.820991066 459.487108133 682.8735878 485.497809813 c 0
 664.926184535 511.508511493 664.926184535 511.508511493 641.426106644 531.609685557 c 0
 617.926028753 551.710859622 617.926028753 551.710859622 590.263032245 563.912402406 c 0
 562.600035737 576.113945189 562.600035737 576.113945189 534.085551088 582.246472594 c 0
 505.57106644 588.379 505.57106644 588.379 476.562 588.379 c 4,12,13
EndSplineSet
Fore
SplineSet
477 588 m 128,-1,1
 382 588 382 588 311.5 528.5 c 128,-1,2
 241 469 241 469 241 355 c 0,3,4
 241 281 241 281 272 225 c 1,5,-1
 639 534 l 1,6,0
 572 588 572 588 477 588 c 128,-1,1
828 692 m 1,7,-1
 881 629 l 1,8,-1
 791 554 l 1,9,10
 847 470 847 470 847 354 c 0,11,12
 847 193 847 193 745 93 c 128,-1,13
 643 -7 643 -7 485 -7 c 0,14,15
 327 -7 327 -7 226 80 c 1,16,-1
 130 0 l 1,17,-1
 78 62 l 1,18,-1
 172 141 l 1,19,20
 115 225 115 225 115 345 c 0,21,22
 115 506 115 506 216.5 603.5 c 128,-1,23
 318 701 318 701 478 701 c 0,24,25
 638 701 638 701 736 615 c 1,26,-1
 828 692 l 1,7,-1
692 471 m 1,27,-1
 324 162 l 1,28,29
 392 105 392 105 486 105 c 0,30,31
 580 105 580 105 650.5 166.5 c 128,-1,32
 721 228 721 228 721 346 c 0,33,34
 721 419 721 419 692 471 c 1,27,-1
EndSplineSet
EndChar

StartChar: logicalnot
Encoding: 172 172 190
Width: 683
VWidth: 1023
Flags: HW
HStem: 265 112<41 530>
VStem: 530 113<118 265>
LayerCount: 2
Fore
SplineSet
41 377 m 1,0,-1
 643 377 l 1,1,-1
 643 118 l 1,2,-1
 530 118 l 1,3,-1
 530 265 l 1,4,-1
 41 265 l 1,5,-1
 41 377 l 1,0,-1
EndSplineSet
EndChar

StartChar: macron
Encoding: 175 175 191
Width: 683
VWidth: 1023
Flags: HW
HStem: 708 113<119 564>
LayerCount: 2
Fore
SplineSet
119 821 m 1,0,-1
 564 821 l 1,1,-1
 564 708 l 1,2,-1
 119 708 l 1,3,-1
 119 821 l 1,0,-1
EndSplineSet
EndChar

StartChar: ordfeminine
Encoding: 170 170 192
Width: 374
VWidth: 1023
Flags: HW
HStem: 350 64<148.62 235.995> 485 65<151.666 243> 603 63<89.4375 235.08>
VStem: 73 72<419.506 475.691> 243 72<422.972 485 550 593.789>
LayerCount: 2
Fore
SplineSet
243 485 m 1,0,-1
 242 485 l 2,1,2
 145 485 145 485 145 448 c 0,3,4
 145 436 145 436 157.5 425 c 128,-1,5
 170 414 170 414 196 414 c 128,-1,6
 222 414 222 414 243 444 c 1,7,-1
 243 485 l 1,0,-1
243 550 m 1,8,9
 243 603 243 603 186 603 c 0,10,11
 158 603 158 603 106 590 c 1,12,-1
 94 586 l 1,13,-1
 80 644 l 1,14,-1
 90 647 l 1,15,16
 141 666 141 666 187 666 c 128,-1,17
 233 666 233 666 260 654.5 c 128,-1,18
 287 643 287 643 298 623 c 0,19,20
 315 592 315 592 315 552 c 2,21,-1
 315 359 l 1,22,-1
 261 359 l 1,23,-1
 254 376 l 1,24,25
 223 350 223 350 179.5 350 c 128,-1,26
 136 350 136 350 104.5 376 c 128,-1,27
 73 402 73 402 73 447 c 0,28,29
 73 507 73 507 113.5 528 c 128,-1,30
 154 549 154 549 243 550 c 1,8,9
EndSplineSet
EndChar

StartChar: Thorn
Encoding: 222 222 193
Width: 727
VWidth: 1023
Flags: HW
HStem: 0 21G<142 265> 139 112<265 505.256> 472 99<265 507.007> 674 20G<142 265>
VStem: 142 123<0 141 254 469 566 694> 559 125<298.113 425.572>
LayerCount: 2
Fore
SplineSet
440.5 468.5 m 128,-1,1
 410 472 410 472 363 472 c 128,-1,2
 316 472 316 472 265 469 c 1,3,-1
 265 254 l 1,4,5
 328 251 328 251 352 251 c 2,6,-1
 367 251 l 2,7,8
 510 250 510 250 544 304 c 0,9,10
 560 328 560 328 559.5 364 c 128,-1,11
 559 400 559 400 544 422 c 128,-1,12
 529 444 529 444 500 454.5 c 128,-1,0
 471 465 471 465 440.5 468.5 c 128,-1,1
142 694 m 1,13,-1
 265 694 l 1,14,-1
 265 566 l 1,15,16
 335 571 335 571 393 571 c 0,17,18
 531 571 531 571 607.5 528 c 128,-1,19
 684 485 684 485 684 377 c 0,20,21
 684 332 684 332 672 291.5 c 128,-1,22
 660 251 660 251 622 211 c 128,-1,23
 584 171 584 171 522.5 155 c 128,-1,24
 461 139 461 139 334 139 c 0,25,26
 311 139 311 139 265 141 c 1,27,-1
 265 0 l 1,28,-1
 142 0 l 1,29,-1
 142 694 l 1,13,-1
EndSplineSet
EndChar

StartChar: quotedblleft
Encoding: 8220 8220 194
Width: 405
VWidth: 1023
Flags: HW
HStem: 506 252<65 130 251 315>
LayerCount: 2
Fore
SplineSet
388 758 m 1,0,-1
 315 506 l 1,1,-1
 178 506 l 1,2,-1
 251 758 l 1,3,-1
 388 758 l 1,0,-1
203 758 m 1,4,-1
 130 506 l 1,5,-1
 -7 506 l 1,6,-1
 65 758 l 1,7,-1
 203 758 l 1,4,-1
EndSplineSet
EndChar

StartChar: quotedblright
Encoding: 8221 8221 195
Width: 405
VWidth: 1023
Flags: HW
HStem: 506 252<65 130 251 315>
LayerCount: 2
Fore
SplineSet
251 758 m 1,0,-1
 388 758 l 1,1,-1
 315 506 l 1,2,-1
 178 506 l 1,3,-1
 251 758 l 1,0,-1
65 758 m 1,4,-1
 203 758 l 1,5,-1
 130 506 l 1,6,-1
 -7 506 l 1,7,-1
 65 758 l 1,4,-1
EndSplineSet
EndChar

StartChar: Ydieresis
Encoding: 376 376 196
Width: 696
VWidth: 0
Flags: HW
HStem: 0 21G<306 444> 674 20G<49 207.829 554.948 710> 796 131<184 328 428 574>
VStem: 184 144<796 927> 306 138<0 324> 428 146<796 927>
LayerCount: 2
Fore
SplineSet
49 694 m 1,0,-1
 194 694 l 1,1,-1
 380 425 l 1,2,-1
 569 694 l 1,3,-1
 710 694 l 1,4,-1
 444 324 l 1,5,-1
 444 0 l 1,6,-1
 306 0 l 1,7,-1
 306 324 l 1,8,-1
 49 694 l 1,0,-1
428 927 m 1,9,-1
 574 927 l 1,10,-1
 574 796 l 1,11,-1
 428 796 l 1,12,-1
 428 927 l 1,9,-1
184 927 m 1,13,-1
 328 927 l 1,14,-1
 328 796 l 1,15,-1
 184 796 l 1,16,-1
 184 927 l 1,13,-1
EndSplineSet
EndChar

StartChar: zcaron
Encoding: 382 382 197
Width: 606
VWidth: 0
Flags: HW
HStem: 0 103<245 533> 379 103<73 345> 719 20G<382.204 428.438>
LayerCount: 2
Fore
SplineSet
73 482 m 1,0,-1
 521 482 l 1,1,-1
 521 420 l 1,2,-1
 245 103 l 1,3,-1
 533 103 l 1,4,-1
 533 0 l 1,5,-1
 73 0 l 1,6,-1
 73 62 l 1,7,-1
 345 379 l 1,8,-1
 73 379 l 1,9,-1
 73 482 l 1,0,-1
291 500 m 1,10,-1
 121 669 l 1,11,-1
 195 740 l 1,12,-1
 299 646 l 1,13,-1
 405 739 l 1,14,-1
 480 675 l 1,15,-1
 291 500 l 1,10,-1
EndSplineSet
EndChar

StartChar: Zcaron
Encoding: 381 381 198
Width: 743
VWidth: 0
Flags: HW
HStem: 0 113<252 714> 581 113<90 514>
LayerCount: 2
Fore
SplineSet
90 694 m 1,0,-1
 701 694 l 1,1,-1
 701 619 l 1,2,-1
 252 113 l 1,3,-1
 714 113 l 1,4,-1
 714 0 l 1,5,-1
 76 0 l 1,6,-1
 76 76 l 1,7,-1
 514 581 l 1,8,-1
 90 581 l 1,9,-1
 90 694 l 1,0,-1
389 711 m 1,10,-1
 220 881 l 1,11,-1
 302 952 l 1,12,-1
 397 857 l 1,13,-1
 494 951 l 1,14,-1
 575 886 l 1,15,-1
 389 711 l 1,10,-1
EndSplineSet
EndChar

